<svg xmlns="http://www.w3.org/2000/svg" width="691" height="378" fill="none"><path fill="#DCECFF" d="M345.7 451.7c181.3 0 328.2-27 328.2-60.4C674 358 527 331 345.7 331S17.5 358 17.5 391.3c0 33.4 147 60.4 328.2 60.4Z"/><path fill="#4E7AC7" d="M496.9 95.1c0-1.5-.1-3-.4-4.6-1.3.4-3.1-.2-4-2.2a18 18 0 0 1-.7-3.7 9 9 0 0 0-4.6-6.8c1.9.7 3.8 1.4 5.5 2.4 1.8 1 4.2 2.3 5 4 .8 1.7 1.4 4.4-.6 6 .3 1 .4 2.2.5 3.4a88.4 88.4 0 0 1 3.8-7.6c0-1.7-.1-3.5-.4-5.2-1.3.5-3.2-.1-4-2.1a18 18 0 0 1-.7-3.7 9 9 0 0 0-4.7-6.8c2 .7 3.9 1.4 5.6 2.4 1.8 1 4.2 2.3 5 4 .8 1.7 1.4 4.4-.6 5.9.3 1.4.5 3 .5 4.4 1.3-2.3 2.8-4.5 4.4-6.7 0-1.8 0-3.5-.4-5.2-1.3.5-3.1-.1-4-2.1a18 18 0 0 1-.7-3.7 9 9 0 0 0-4.6-6.9c1.9.7 3.8 1.4 5.5 2.5 1.8 1 4.2 2.3 5 4 .8 1.7 1.4 4.4-.6 5.9.3 1.4.5 3 .5 4.5l2.4-3c.6-1 1.4-1.8 2-2.6.6-1.5.9-3 1-4.6-1.3.1-3-.9-3.1-3 0-1 .1-2.8.3-3.8.6-2.7-.4-5.7-2.5-7.7a31 31 0 0 1 4.7 3.7c1.4 1.4 3.3 3.2 3.6 5 .3 1.9 0 4.6-2.2 5.6l-.6 3.6c2.2-2.5 4.6-4.9 7.1-7.2.8-1.5 1.3-3 1.8-4.6-1.4 0-2.9-1.3-2.7-3.4 0-1 .5-2.8.9-3.7 1-2.7.4-5.7-1.4-8 1.5 1.4 3.5 2.5 4.7 4 1.1 1.6 2.2 3.8 2.2 5.7 0 1.8-.6 4.6-3 5.3a24 24 0 0 1-1.2 3.6c2.3-2 4.6-3.9 7-5.6l.1-.1c.9-1.5 1.6-3.2 2.1-4.8-1.3-.1-2.7-1.4-2.4-3.5 0-1 .7-2.8 1-3.7 1.1-2.6.8-5.7-.9-8 1.4 1.4 3.4 2.7 4.4 4.3 1.1 1.6 2 3.8 2 5.7-.1 1.8-.9 4.6-3.3 5.1-.4 1.4-1 2.7-1.6 4 2.6-1.8 5.3-3.5 8-5l2.8-2.1c-.9-.8-1-2.5.3-4 .7-.8 2.3-2 3.1-2.5a9 9 0 0 0 4.1-7.2c.3 1.9.7 3.7.6 5.6-.1 2-.1 4.4-1.3 6-1.2 1.5-3.5 3.4-5.8 2.6-1 .8-2.1 1.6-3.2 2.2l-.2.2h-.1l-4.9 3 4.2-.3c1.1-2.3 4.3-2.2 6.3-1.8 2 .4 4 2 5.4 3.4 1.4 1.4 2.2 3.5 3.3 5.2a10 10 0 0 0-8-3l-4.2-.1c-2.1-.4-3-1.8-3-3-1.8 0-3.5.1-5.3.4a99 99 0 0 0-7.4 5.6c1.7-.3 3.4-.5 5.1-.5 1.2-2 4.3-1.9 6.3-1.5 2 .4 4 2 5.5 3.3 1.4 1.3 2.2 3.4 3.3 5-2-2-5.2-3.2-8.2-3-1 .1-3 .2-4.1 0-2.4-.3-3.4-1.9-3-3.1a29.6 29.6 0 0 0-5.9.5 98.2 98.2 0 0 0-6.9 6.4c1.6-.2 3.2-.4 4.8-.4 1.3-2 4.3-1.9 6.3-1.5 2 .5 4 2 5.5 3.3 1.4 1.4 2.2 3.4 3.3 5-2-2-5.1-3.2-8.2-3-1 .1-3 .2-4.1 0-2.3-.3-3.3-1.9-3-3.1-1.8 0-3.6.2-5.3.5a94 94 0 0 0-5.9 6.7c1.8-.3 3.5-.4 5.3-.4 1.2-2 4.3-2 6.2-1.6 2 .5 4.1 2 5.6 3.3 1.4 1.4 2.2 3.4 3.3 5-2-2-5.2-3.2-8.2-3-1 .2-3.1.2-4.2 0-2.3-.3-3.3-1.9-3-3-1.9 0-3.7.1-5.6.5a90.3 90.3 0 0 0-4.6 6.5c1.7-.3 3.5-.4 5.3-.4 1.3-2 4.3-2 6.2-1.5 2 .4 4 1.8 5.4 3.2 1.4 1.3 2.2 3.4 3.3 5-2-2.1-5-3.2-8-3h-4.2c-2.3-.3-3.2-1.9-3-3-1.8 0-3.7.1-5.5.5a87 87 0 0 0-3.9 6.8c1.8-.3 3.5-.4 5.2-.4 1.3-2 4.3-2 6.3-1.6 2 .5 4 2 5.5 3.3 1.4 1.4 2.2 3.4 3.3 5-2-2-5.1-3.2-8.2-3-1 .1-3 .2-4.1 0-2.4-.3-3.3-1.9-3-3.1-1.8 0-3.6.2-5.3.5l-.4.8A84.2 84.2 0 0 0 491 128c0 .5-1 .6-1 0a83.9 83.9 0 0 1 6.9-33Z"/><path fill="#76A2E2" d="M487.7 161.3c-5.9-1.3-12.8-9.1-14.5-16.5 0 0-7.3 8.2-7.3 13.8 0 12.7 6.8 20.2 18.6 33.7h.2c14.4-33.2 43.6-56 72.5-91.4-4.4 2.5-8 4.2-16.7 6.5-13.3 3.5-12.1 28-15 22-1.8-3.7 5.6-21 9.2-24.1a36 36 0 0 0-13 4.4c-4.6 3.3-2.7 24.3-5.7 19.1-3.1-5.2 4.3-19.5 4.3-19.5s-9.5 2.6-14.5 6.3c-5 3.8 4 27.5-.7 25.7-2.7-1-6-16.7-1.3-25.3 0 0-12.9 8.3-16.4 12.4-3.6 4 17.7 27 11.9 27.4-5.7.4-16-19.6-14.2-26.2 0 0-8.1 7-10.4 12.7-2.2 5.7 16.8 19.8 13 19Zm24.2-29c-.5.4-1.4 0-2-1-.6-1-.6-2 0-2.3.6-.4 1.5.1 2 1 .6 1 .6 2 0 2.3Zm-28.3 34.4c-.9 1.2-3.4.9-5.5-.8-2.2-1.6-3.2-4-2.3-5.1 1-1.2 3.4-.9 5.6.7 2.2 1.7 3.2 4 2.2 5.2Z"/><path fill="#4E7AC7" d="M484.7 192.3a92.3 92.3 0 0 0 38.4-.1c7.4-1.7 12.4-11.5 12.4-11.5-13.5-1.8-18.7-8.8-18-11 .9-2.2 10.9 8.2 18.5 8.8 7.6.6 11.9-12.8 11.9-12.8-3.8 6.4-31.6-1.7-32.2-5.3-.7-3.5 19.9 4.7 27.8 4.5 7.9-.2 7.7-15.5 7.7-15.8-1.4 6-23.5 3.9-23.5-.4 0-4.2 23.3-.7 25.5-3.4 3.3-4.2 1.7-15.7 1.7-16-.5 6.1-17.3 11.3-23.7 9-6.6-2.5 23-2.6 23.4-14.6.3-6.3.6-15.2 2.6-22.8-28.9 35.3-58.1 58.2-72.5 91.4Zm61.8-70c1.8-.5 3.5 0 3.7 1 .3 1-1 2.2-2.8 2.7-1.8.4-3.4 0-3.7-1-.3-1 1-2.2 2.8-2.7Zm1.5 17c1 0 1.8.4 1.8 1.1 0 .7-.7 1.2-1.7 1.3-1 0-1.8-.4-1.9-1.1 0-.7.8-1.2 1.8-1.3Zm-30.2 38.8c3 1 5.1 3.1 4.6 4.9-.5 1.7-3.5 2.3-6.6 1.4-3-1-5.2-3.1-4.6-4.9.5-1.7 3.4-2.3 6.6-1.4Zm2.2-25c1.9.3 3.2 1.4 3 2.4-.2 1-1.9 1.6-3.7 1.2-1.8-.4-3.1-1.5-3-2.5.3-1 1.9-1.6 3.7-1.2ZM200.1 95c0-1.5.1-3 .4-4.6 1.3.4 3.1-.2 4-2.2.3-.9.6-2.7.7-3.7a9 9 0 0 1 4.6-6.8c-1.9.7-3.8 1.4-5.5 2.4-1.8 1-4.2 2.3-5 4-.8 1.7-1.4 4.4.6 6-.3 1-.4 2.2-.5 3.4a88.4 88.4 0 0 0-3.8-7.6c0-1.7.1-3.5.4-5.2 1.3.5 3.2-.1 4-2.1.3-1 .6-2.8.7-3.7a9 9 0 0 1 4.7-6.8c-2 .7-3.9 1.4-5.6 2.4-1.8 1-4.2 2.3-5 4-.8 1.7-1.4 4.4.6 5.9-.3 1.4-.5 3-.5 4.4a90.2 90.2 0 0 0-4.4-6.7c0-1.8 0-3.5.4-5.2 1.3.5 3.1-.1 4-2.1.3-1 .6-2.8.7-3.7a9 9 0 0 1 4.6-6.9c-1.9.7-3.8 1.4-5.5 2.5-1.8 1-4.2 2.3-5 4-.8 1.7-1.4 4.4.6 5.9-.3 1.4-.5 3-.5 4.5l-2.4-3-2-2.6c-.6-1.5-.9-3-1-4.6 1.3.1 3-.9 3.1-3 0-1-.1-2.8-.3-3.8-.6-2.7.4-5.7 2.5-7.7a31 31 0 0 0-4.7 3.7c-1.4 1.4-3.3 3.2-3.6 5-.3 1.9 0 4.6 2.2 5.6l.6 3.6a96.4 96.4 0 0 0-7.1-7.2c-.8-1.5-1.3-3-1.8-4.6 1.4 0 2.9-1.3 2.7-3.4 0-1-.6-2.8-.9-3.7-1-2.7-.4-5.7 1.4-8-1.5 1.4-3.5 2.5-4.7 4a10.7 10.7 0 0 0-2.2 5.7c0 1.8.6 4.6 3 5.3a24 24 0 0 0 1.2 3.6 100 100 0 0 0-7-5.6l-.1-.1c-.9-1.5-1.6-3.2-2.1-4.8 1.3-.1 2.7-1.4 2.4-3.5 0-1-.7-2.8-1-3.7-1.1-2.6-.8-5.7.9-8-1.4 1.4-3.4 2.7-4.4 4.3-1.1 1.6-2 3.8-2 5.7.1 1.8.9 4.6 3.3 5.1.4 1.4 1 2.7 1.6 4-2.6-1.8-5.3-3.5-8-5l-2.8-2.1c.9-.8 1-2.5-.3-4-.7-.8-2.3-2-3.1-2.5a9 9 0 0 1-4.1-7.2c-.3 1.9-.7 3.7-.6 5.6.1 2 .1 4.4 1.3 6 1.2 1.5 3.5 3.4 5.8 2.6 1 .8 2.1 1.6 3.2 2.2l.2.2h.1l4.9 3-4.2-.3c-1.1-2.3-4.3-2.2-6.3-1.8-2 .4-4 2-5.4 3.4-1.4 1.4-2.2 3.5-3.3 5.2 2-2.2 5-3.3 8-3l4.1-.1c2.2-.4 3.2-1.8 3-3 1.9 0 3.6.1 5.4.4a99 99 0 0 1 7.4 5.6c-1.7-.3-3.4-.5-5.1-.5-1.3-2-4.3-1.9-6.3-1.5-2 .4-4 2-5.5 3.3-1.4 1.3-2.2 3.4-3.3 5 2-2 5.1-3.2 8.2-3 1 .1 3 .2 4.1 0 2.4-.3 3.4-1.9 3-3.1a29.6 29.6 0 0 1 5.9.5 95.4 95.4 0 0 1 6.8 6.4c-1.5-.2-3.1-.4-4.7-.4-1.3-2-4.4-1.9-6.3-1.5-2 .5-4 2-5.5 3.3-1.4 1.4-2.2 3.4-3.3 5 2-2 5.1-3.2 8.2-3 1 .1 3 .2 4.1 0 2.3-.3 3.3-1.9 3-3.1 1.8 0 3.6.2 5.3.5 2 2.1 4 4.4 5.9 6.7-1.8-.3-3.5-.4-5.3-.4-1.2-2-4.3-2-6.3-1.6-2 .5-4 2-5.5 3.3-1.4 1.4-2.2 3.4-3.3 5 2-2 5.2-3.2 8.2-3 1 .2 3.1.2 4.2 0 2.3-.3 3.3-1.9 3-3 1.9 0 3.7.1 5.6.5 1.6 2 3.2 4.3 4.6 6.5-1.8-.3-3.5-.4-5.3-.4-1.3-2-4.3-2-6.2-1.5-2 .4-4 1.8-5.4 3.2-1.4 1.3-2.2 3.4-3.3 5 2-2.1 5-3.2 8-3h4.2c2.3-.3 3.2-1.9 3-3 1.8 0 3.6.1 5.5.5a87 87 0 0 1 3.8 6.8c-1.7-.3-3.4-.4-5.1-.4-1.3-2-4.3-2-6.3-1.6-2 .5-4 2-5.5 3.3-1.4 1.4-2.2 3.4-3.3 5 2-2 5.1-3.2 8.2-3 1 .1 3 .2 4.1 0 2.4-.3 3.3-1.9 3-3.1 1.8 0 3.6.2 5.3.5l.4.8c5.6 11.4 8.5 24 8.5 36.4 0 .5 1 .6 1 0a83.8 83.8 0 0 0-6.9-33Z"/><path fill="#76A2E2" d="M222.3 142.3c-2.3-5.7-10.4-12.7-10.4-12.7 1.8 6.6-8.5 26.6-14.2 26.2-5.8-.4 15.5-23.4 12-27.4-3.6-4-16.5-12.4-16.5-12.4 4.7 8.6 1.4 24.2-1.3 25.3-4.6 1.8 4.3-21.9-.7-25.7a54 54 0 0 0-14.5-6.3s7.4 14.3 4.3 19.5c-3 5.2-1.1-15.8-5.7-19.1a36 36 0 0 0-13-4.4c3.6 3 11 20.4 9.2 24-2.9 6-1.7-18.4-15-22-8.7-2.2-12.3-3.9-16.7-6.4 28.9 35.3 58.1 58.2 72.5 91.4h.2c11.8-13.5 18.6-21 18.6-33.7 0-5.6-7.3-13.8-7.3-13.8-1.7 7.4-8.6 15.2-14.5 16.5-3.8.8 15.2-13.3 13-19ZM185 130.1c.5-1 1.4-1.5 2-1.1.6.3.6 1.3 0 2.3-.6 1-1.5 1.4-2 1-.6-.3-.6-1.3 0-2.2Zm30.5 31.4c2.2-1.6 4.7-2 5.6-.7 1 1.2 0 3.5-2.3 5.1-2.1 1.7-4.6 2-5.5.8-1-1.2 0-3.5 2.2-5.2Z"/><path fill="#4E7AC7" d="M139.8 101c2 7.5 2.3 16.4 2.6 22.7.4 12 30 12 23.4 14.5-6.4 2.4-23.2-2.8-23.7-9 0 .4-1.6 11.9 1.7 16 2.2 2.8 25.5-.7 25.5 3.5 0 4.3-22 6.3-23.5.4 0 .3-.2 15.6 7.7 15.8 8 .2 28.5-8 27.8-4.5-.6 3.6-28.4 11.7-32.2 5.3 0 0 4.3 13.4 12 12.8 7.5-.6 17.5-11 18.3-8.8.8 2.2-4.3 9.2-17.9 11 0 0 5 9.8 12.4 11.5 10.7 2.4 23.2 3 38.4.1-14.4-33.2-43.6-56-72.5-91.4Zm13.5 24c-.3 1-2 1.4-3.7 1-1.9-.5-3.1-1.7-2.8-2.7.2-1 1.9-1.5 3.7-1 1.8.5 3 1.7 2.8 2.7Zm-2.5 15.6c0 .7-1 1.1-1.9 1-1 0-1.8-.5-1.7-1.2 0-.7.8-1.2 1.8-1.1 1 0 1.8.6 1.8 1.3Zm35 39c.6 1.7-1.5 3.8-4.6 4.8-3.1 1-6 .3-6.6-1.4-.5-1.8 1.5-4 4.6-4.9 3.2-1 6.1-.3 6.6 1.4Zm-5.2-25.4c.2 1-1 2.1-2.9 2.5-1.8.4-3.5-.1-3.7-1.2-.2-1 1.1-2.1 3-2.5 1.8-.4 3.4.2 3.6 1.2Z"/><path fill="#fff" d="M490.5 242.3H198.6V166l.1-4.3v-26.1l.1-20.9h291.3a45574.3 45574.3 0 0 1 .4 127.7Z"/><path fill="#D5DAED" d="M436.7 125h17.9c14.8 0 26.8 12 26.8 26.8a46465.4 46465.4 0 0 1 .3 90.5h8.8a71059 71059 0 0 0-.4-127.7H198.8v10.5h238Z"/><path fill="#fff" d="M172.3 241.2h346.8v119.5H172.3V241.2Z"/><path fill="#D5DAED" d="M172.3 241.2v8.2h317.6c11.9 0 21.5 9.6 21.5 21.5v89.8h7.7V241.2H172.3Z"/><path fill="#95B6EF" d="M172.3 344h346.8v16.7H172.3v-16.6Z"/><path fill="#DCEAFF" d="M519.6 335.2h-14.7l-18 .2h-21.5l-20 .1h-2.6l-29.4.2H411v-4l-.2-18.8V296l-.1-5.2v-4.4l-.2-27.9v-.4h108.9v51.5l.1 25.6Z"/><path fill="#E3EDF7" d="m452.1 258.1-41.3 32.7v-4.4l35.6-28.3h5.7Zm59.3 0-98 77.6H411v-4l93-73.6h7.3Zm-31.2 0L410.9 313V296l47.8-37.9h21.5Zm39.4 51.5-32.7 25.8h-21.5l54.1-42.8v17Z"/><path fill="#95B6EF" d="M410.6 258.1h1.6v78.5h-1.6V258Zm27.2 0h1.6v78.5h-1.6V258Zm27.3 0h1.6v78.5H465V258Zm27.2 0h1.6v78.5h-1.6V258Z"/><path fill="#95B6EF" d="M411.4 258.1h108v1h-108v-1Zm0 25.1h108v1h-108v-1Zm0 25.1h108v1h-108v-1Zm0 27.4h108v.9h-108v-1Z"/><path fill="#DCEAFF" d="M304.6 212.7h-32.7l-11.5.1H250l-19.5.2H222.8l-24.2.1h-.3l.3-.3V166l.1-4.3h-.2l.2-.2v-25.9h105.8v77.2Z"/><path fill="#E3EDF7" d="m237.1 135.6-1.1.9-11.6 9.1-1.6 1.3-17.4 13.8-1.2.9-5.5 4.3v-4.3h-.2l.2-.2 1-.7 23.1-18.3 1.6-1.3 5.9-4.6 1.1-1h5.7Zm59.3 0-1.1.9-16.4 13-1.6 1.2-12.6 10-1.2.9-11.9 9.4-1.6 1.2-17 13.6-1.2.9-7.4 5.8-1.6 1.3-23.9 18.9-.3.2V207l24.2-19 1.6-1.3 1.2-1 24.4-19.3 1.6-1.2 4.6-3.6 1.1-1 20-15.7 1.6-1.3 9-7.1 1.2-1h7.3Zm-31.2 0-1.2.9-12.4 9.7-1.6 1.3-16.6 13.2-1.1.9-7.9 6.2-1.6 1.3-21.1 16.7-1.2.9-1.8 1.4v-17l12.1-9.5 1.1-1 10.9-8.5 1.6-1.3 18.2-14.3 1.1-1h21.5Zm39.3 51.4L272 212.8h-21.6l54.2-42.7v17Z"/><path fill="#95B6EF" d="M303.8 135.6h1.6v78h-1.6v-78Zm-81 0h1.6v78h-1.6v-78Zm27.2 0h1.7v77.7H250v-77.7Zm27.3 0h1.6v78h-1.6v-78Z"/><path fill="#95B6EF" d="M304.5 135.6v.9H198.7v-1h105.8Zm0 25v1h-106l.2-.2v-.7h105.8Zm0 25.2v.9H198.7v-1h105.8Zm0 26.9v.9H198.6v-.5h-.3l.3-.2v-.2h105.9Z"/><path fill="#DCEAFF" d="M402.2 258.1v77.4h-27.3l-24.4.2h-2.3v-4l-.1-18.8v-2.7l-.2-14.2V286.4l-.2-27.9v-.4h54.5Z"/><path fill="#E3EDF7" d="m389.3 258.1-41.4 32.7v-4.4l35.7-28.3h5.7Zm12.9 30.9v5.8l-17.1 13.5-1.2 1-7.3 5.8-1.7 1.2-24.4 19.4h-2.3v-4l26.8-21.2 1.6-1.2 1.1-1 24.5-19.3Zm0-30.9v12l-16.6 13.1-1.2 1-7.8 6.2-1.7 1.2-21 16.7-1.2 1-4.6 3.6v-2.7l-.2-14.2 15-11.9 1.2-.9 10.8-8.5 1.7-1.3 18-14.4 1.2-.9h6.4Z"/><path fill="#95B6EF" d="M347.7 258.1h1.6v78.5h-1.6V258Zm53.7 0h1.6v78.5h-1.6V258Zm-26.5 0h1.6v78.5H375V258Z"/><path fill="#95B6EF" d="M348.5 258.1h53.7v1h-53.7v-1Zm0 25.1h53.7v1h-53.7v-1Zm0 25.1h53.7v1h-53.7v-1Zm0 27.4h53.7v.9h-53.7v-1Z"/><path fill="#DCEAFF" d="M388.7 135.3v77.4h-27.3l-24.4.2h-2.3v-4l-.2-18.8v-16.9l-.1-5.2v-4.5l-.2-27.8v-.4h54.5Z"/><path fill="#E3EDF7" d="M375.7 135.3 334.4 168v-4.5l35.6-28.2h5.7Zm13 30.9v5.8l-17.2 13.5-1.1 1-7.4 5.8-1.6 1.2L337 213h-2.3v-4l26.7-21.2 1.6-1.2 1.2-1 24.5-19.3Zm0-30.9v12L372 160.4l-1.1 1-7.9 6.2-1.6 1.2-21.1 16.7-1.2 1-4.6 3.6v-16.9l15-11.9 1-.9 11-8.6 1.5-1.2 18.2-14.4 1.1-.9h6.4Z"/><path fill="#95B6EF" d="M334.2 135.3h1.6v78.5h-1.6v-78.5Zm53.7 0h1.6v78.5h-1.6v-78.5Zm-26.5 0h1.6v78.5h-1.6v-78.5Z"/><path fill="#95B6EF" d="M335 135.3h53.7v1H335v-1Zm0 25.1h53.7v1H335v-1Zm0 25.1h53.7v1H335v-1Zm0 27.4h53.7v.9H335v-1Z"/><path fill="#DCEAFF" d="M471 135.3v77.4H443.7l-24.4.2H417v-4l-.2-18.8v-16.9l-.1-5.2v-4.5l-.2-27.8v-.4H471Z"/><path fill="#E3EDF7" d="M458 135.3 416.7 168v-4.5l35.6-28.2h5.7Zm13 30.9v5.8l-17.2 13.5-1.1 1-7.4 5.8-1.6 1.2-24.4 19.4H417v-4l26.7-21.2 1.6-1.2 1.2-1 24.5-19.3Zm0-30.9v12l-16.7 13.1-1.1 1-7.9 6.2-1.6 1.2-21.1 16.7-1.2 1-4.6 3.6v-16.9l15-11.9 1-.9 11-8.6 1.5-1.2 18.2-14.4 1.1-.9h6.4Z"/><path fill="#95B6EF" d="M416.5 135.3h1.6v78.5h-1.6v-78.5Zm53.7 0h1.6v78.5h-1.6v-78.5Zm-26.5 0h1.6v78.5h-1.6v-78.5Z"/><path fill="#95B6EF" d="M417.3 135.3H471v1h-53.7v-1Zm0 25.1H471v1h-53.7v-1Zm0 25.1H471v1h-53.7v-1Zm0 27.4H471v.9h-53.7v-1Z"/><path fill="#DCEAFF" d="M235.6 258.1v77.4H208.4l-24.5.2h-2.3v-4l-.1-18.8v-2.7l-.2-14.2V286.4l-.2-27.9v-.4h54.5Z"/><path fill="#E3EDF7" d="m222.7 258.1-41.4 32.7v-4.4L217 258h5.7Zm12.9 30.9v5.8l-17.1 13.5-1.2 1-7.3 5.8-1.6 1.2-24.5 19.4h-2.3v-4l26.8-21.2 1.6-1.2 1.1-1 24.5-19.3Zm0-30.9v12L219 283.2l-1.2 1-7.8 6.2-1.6 1.2-21.2 16.7-1.1 1-4.6 3.6v-2.7l-.2-14.2 15-11.9 1.2-.9 10.9-8.5 1.6-1.3L228 259l1.1-.9h6.4Z"/><path fill="#95B6EF" d="M181.1 258.1h1.6v78.5h-1.6V258Zm53.7 0h1.6v78.5h-1.6V258Zm-26.4 0h1.6v78.5h-1.6V258Z"/><path fill="#95B6EF" d="M182 258.1h53.6v1H182v-1Zm0 25.1h53.6v1H182v-1Zm0 25.1h53.6v1H182v-1Zm0 27.4h53.6v.9H182v-1Zm112.5-79h-44v104.1H334.7V256.8h-40.2Z"/><path fill="#B5CDE8" d="M252.9 346.4h35.5v12.8h-35.5v-12.8Z"/><path fill="#DCEAFF" d="M254 347.4h33.3v10.8H254v-10.8Z"/><path fill="#6B8CD1" d="M292.2 259.1v100h-1v-100h1Z"/><path fill="#DCEAFF" d="M252.9 259.1h35.5v85.3h-35.5v-85.3Z"/><path fill="#B5CDE8" d="M259 264h29.4V259h-35.5v85.3h6V264Zm71.7 95.2h-35.5v-12.8h35.5v12.8Z"/><path fill="#DCEAFF" d="M329.6 358.2h-33.3v-10.8h33.3v10.8Zm1.1-13.8h-35.5v-85.3h35.5v85.3Z"/><path fill="#B5CDE8" d="M324.6 264h-29.4V259h35.5v85.3h-6.1V264Z"/><path fill="#95B6EF" d="M302.7 302.6h1.9v14h-1.9v-14Zm-21.8 0h1.9v14h-1.9v-14Zm-115.1-70.2H526v8.8H165.8v-8.8Z"/><path fill="#6B8CD1" d="M165.8 232.4H526v3.1H165.8v-3Z"/><path fill="#95B6EF" d="M159 223.6h374v8.8H159v-8.8ZM186.5 108h319v8.8h-319v-8.8Z"/><path fill="#6B8CD1" d="M186.5 108h319v3h-319v-3Z"/><path fill="#95B6EF" d="M180.5 99.1h331v8.8h-331v-8.8ZM469.1 77.8V99h-249V77.8c0-17 10.6-30.6 23.7-30.6h201.6a22 22 0 0 1 17.8 10.5 32.3 32.3 0 0 1 5.3 13.3c.4 2.3.6 4.5.6 6.8Z"/><path fill="#fff" d="M225 92.8v-15c0-13.4 8.4-24.2 18.8-24.2h201.6c10.3 0 18.7 10.8 18.7 24.2v15H225Z"/><path fill="#fff" d="M228.8 87.8v-10c0-10.6 6.7-19.2 15-19.2h201.5c8.3 0 15 8.6 15 19.2v10H228.8Z"/><path fill="#91402D" d="M222.5 162c-5.5-4.8-4.2-17 2.2-17.5 1.6-4.8 14-9.5 21.5-1.5 6.8 7.3.8 19 .8 19h-24.5Z"/><path fill="#E0B9A0" d="M247.1 165.5h-.6a7 7 0 0 1-1.1.2l2.4-7s2.5-.8 3.8.6c1 1 .7 5.3-4.5 6.2Zm-23 0-1.1-.1-.7-.1c-5.2-1-5.5-5.2-4.5-6.3 1.3-1.4 3.8-.5 3.8-.5l2.4 7Z"/><path fill="#C0C0DD" d="M233 249.4a.9.9 0 0 1-.2-.7.9.9 0 0 1 .2-.6.9.9 0 0 1 .6-.2.9.9 0 0 1 .9.8.9.9 0 0 1-1.5.7Zm0 4.7a.9.9 0 0 1-.2-.6.9.9 0 0 1 .5-.8.9.9 0 0 1 .7 0l.2.1a.9.9 0 0 1-1.2 1.3Zm0 4.7-.2-.3a.9.9 0 0 1 .2-1 .9.9 0 0 1 .6-.2.9.9 0 0 1 .6.3.9.9 0 0 1-1.2 1.2Zm0 4.7a.9.9 0 1 1 1.2-1.2.9.9 0 0 1-1.2 1.2Zm0 4.7a.9.9 0 0 1-.2-.6.9.9 0 0 1 .5-.8.9.9 0 0 1 .7 0l.2.2a.9.9 0 0 1-1.2 1.2Zm0 4.7a.9.9 0 1 1 1.2-1.2.9.9 0 0 1-1.2 1.2Z"/><path fill="#F9CBCB" d="m224.5 381 1.2 8h-28l15.4-8.5V272.8l22-1.4L225 375l-.6 6Zm21 8 1.3-8-.6-6-10-103.6 22 1.4v107.7l15.4 8.5h-28Z"/><path fill="#333" d="m213.1 272.8 22-1.4-7.7 102-16 .2 1.7-100.8Zm45 0 1.7 100.3-15.2-.1-8.4-101.6 22 1.4Z"/><path fill="#828FFF" d="M240.3 194.3a67.7 67.7 0 0 1-6.5 21.3c-3.4-8-5.7-15.7-6.1-23.4a43 43 0 0 1 .1-7.5l1.5-.2 10.8.2h.3c.3 3.2.3 6.4-.1 9.6Z"/><path fill="#5A6BCC" d="m230.7 190.5 1.3 3a.9.9 0 0 0 .8.5h2.4c.3 0 .6-.1.8-.4l1.4-3.1a49.2 49.2 0 0 0-3.4-3.4l-2.2-.3a.9.9 0 0 0-1 .6l-1 2.4 1 .7Z"/><path fill="#5A6BCC" d="m232.4 193.7-2.6 19.2 4 6.2 4.3-6.3-2.7-19.2h-3Z"/><path fill="#fff" d="M269.4 306.8c-9.3.4-18 .2-26-1a4.9 4.9 0 0 1-4.6-4.2l-4.1-26.5-.9 24.5a6.8 6.8 0 0 1-6.9 6.6 131 131 0 0 1-29-.4s6.7-25.3 9-52.2c2.6-29.8 1.1-61.7 4.5-63.8a45.6 45.6 0 0 1 15.1-4.9l1-.1h.3c-.2 2-.3 4-.2 6a22.8 22.8 0 0 0 .3 4l.2 1.7.2 1.5.3 1.4.3 1.5.7 2.9a21 21 0 0 0 .9 3l.1.3.4 1 .8 2.5.5 1.3 1.5 3.7 1-2.4.3-.4.8-2a59.3 59.3 0 0 0 1.4-3.7l.5-1.6 1-3.2.3-1.3.3-1.3.2-1.2.3-1.3.2-1.6.2-1.3v-.5l.2-1.3v-1l.1-1.4a42.3 42.3 0 0 0-.1-5.3h.3l1 .3c3.1.6 10 2.3 14 5.3.8.6 1.2 2.9 1.4 6.6l.1 1.1v.5l.2 3v1.6c.4 10.5.5 26.1 2 42.1v.4c3 30 9.9 61.1 9.9 61.1Z"/><path fill="#C5CDFF" d="m240.3 194.3-6.3-5.8s-6.2 3.8-6.2 4l-.1-.3a43 43 0 0 1 .1-7.5l1.5-.2 10.8.2h.3c.3 3.2.3 6.4-.1 9.6Z"/><path fill="#C0C0DD" d="m245 207 .9 1.5-12.1 9.2-11.3-9.2.9-1.4 3.2-5.1-.2-.1-9-9.3 9.1-7.7 1-.1h.3c-2.1 7.5.5 18 5.4 30.1l.6.7.6-.7a53 53 0 0 0 6-30.1h.4l1 .3 9.2 7.4-9 9.4-.2.1 3.2 5Z"/><path fill="#fff" d="m233.8 215.6-10.4-8.5-.1-.1 3.1-5.1.6-1-8.3-8.3 8.9-7.8h.2a62.5 62.5 0 0 0 6 30.8ZM242 201.9l3.1 5-.1.1-11.2 8.6a60 60 0 0 0 6.6-30.8h.4l8.9 7.8-8.4 8.3.6 1Z"/><path fill="#F9CBCB" d="m239.5 184.7-.8 1c-3.3 3.7-6.6 4-10-1l1.3-7.8.5-3h7.1l2 10.8Z"/><path fill="#EDBCBC" d="m239.5 184.7-.8 1a23 23 0 0 0-3-7c-1.2-1.6-4-1.9-5.7-1.8l.5-3h7.1l2 10.8Z"/><path fill="#C0C0DD" d="m234.1 274-.1-.2a.9.9 0 0 1 .1-1 .9.9 0 1 1 0 1.3Zm0-4.7-.1-.2a.9.9 0 0 1 .1-1 .9.9 0 0 1 .7-.2.9.9 0 0 1 .6.2.9.9 0 0 1-1.3 1.2Zm0-4.7a.9.9 0 1 1 1.3-1.2.9.9 0 0 1-1.3 1.2Zm0-4.7a.9.9 0 1 1 1.3-1.2.9.9 0 0 1-1.3 1.2Zm0-4.7-.1-.3a.9.9 0 0 1 .1-1 .9.9 0 0 1 .7-.2.9.9 0 0 1 .6.3.9.9 0 0 1-1.3 1.2Zm0-4.7a.9.9 0 0 1-.2-.6.9.9 0 0 1 .2-.6.9.9 0 0 1 .7-.3.9.9 0 0 1 .6.3.9.9 0 0 1-1.3 1.2Zm0-4.7a.9.9 0 0 1 .7-1.5.9.9 0 1 1-.7 1.5Zm0-4.7a.9.9 0 0 1-.2-.6.9.9 0 0 1 .5-.8.9.9 0 0 1 1 .1.9.9 0 0 1-1.3 1.3Zm0-4.7a.9.9 0 0 1 .7-1.5.9.9 0 0 1 .8 1.2.9.9 0 0 1-.8.5.9.9 0 0 1-.7-.2Zm0-4.8a.9.9 0 0 1-.2-.6.9.9 0 0 1 .5-.8.9.9 0 0 1 1 .2.9.9 0 0 1-1.3 1.2Zm0-4.7a.9.9 0 1 1 1.3-1.2.9.9 0 0 1-1.3 1.2Zm0-4.7a.9.9 0 1 1 1.3-1.2.9.9 0 0 1-1.3 1.2Z"/><path fill="#F9CBCB" d="M247.7 159.3c0 7.8-5.7 16.6-12.5 16.6-6.9 0-13.2-8.8-13.2-16.6 0-7.9 5.7-14.3 12.8-14.3 7.1 0 12.9 6.4 12.9 14.3Z"/><path fill="#C0C0DD" d="M234.8 145h-.6c6.8.4 12.3 6.6 12.3 14.3 0 7.6-5.4 16-11.9 16.5h.6c6.8 0 12.5-8.7 12.5-16.5 0-8-5.8-14.3-12.9-14.3Z"/><path fill="#754C24" d="M248.7 157.7Z"/><path fill="#F7E6DC" d="M227.6 159.4a1.8 1.8 0 1 1 3.5 0 1.8 1.8 0 0 1-3.5 0Zm10.9 0a1.8 1.8 0 1 1 3.6 0 1.8 1.8 0 0 1-3.6 0Z"/><path fill="#754C24" d="M242.3 155.3c-.6-.5-1.2-.7-1.8-.7-.7 0-1.4 0-2 .6l-.1.2a.4.4 0 0 0 .2.4.4.4 0 0 0 .5-.1c.6-.7 2-.7 2.9-.1h.2a.2.2 0 0 0 .1-.2v-.1Zm-14.6.4c.8-.6 2.3-.6 2.9 0a.4.4 0 0 0 .7-.1l-.1-.3c-.6-.6-1.4-.7-2-.7-.7.1-1.3.3-1.8.8v.2l.1.1h.1Z"/><path fill="#3B2612" d="M241.6 159.4a1.3 1.3 0 1 0-2.6 0 1.3 1.3 0 0 0 2.6 0Zm-11 0a1.3 1.3 0 0 0-.4-1 1.3 1.3 0 0 0-.9-.3 1.3 1.3 0 0 0-.9 2.2 1.3 1.3 0 0 0 2.2-1Z"/><path fill="#fff" d="m240.1 159 .1-.3a.3.3 0 1 0-.1.3Zm-10.9 0a.3.3 0 1 0-.5-.5.3.3 0 0 0 .5.5Z"/><path fill="#4D4D4D" d="M247.8 158.8v-.1l-4.2.7.2-.8a1.3 1.3 0 0 0-.3-1c-.3-.4-.7-.6-1.1-.6-1.4-.2-2.7-.2-4 0-.5 0-1 .2-1.2.6a1.3 1.3 0 0 0-.2 1v1c-.3-.1-1.4-.4-2-.4l-2.4.2.1-.8a1.3 1.3 0 0 0-.2-1c-.3-.4-.7-.6-1.2-.6-1.3-.2-2.7-.2-4 0-.5 0-.9.2-1.1.6a1.3 1.3 0 0 0-.3 1l.1.7-4-.7v.2l4 .7.2 1c.1.8.9 1.4 1.8 1.4h2.7c.8 0 1.6-.6 1.7-1.4l.2-1 2.3-.2c.7 0 2 .3 2.2.4l.1.8c.1.8.9 1.4 1.8 1.4h2.7c.9 0 1.6-.6 1.7-1.4l.2-1 4.2-.7Zm-15.5 1.7c-.1.7-.8 1.3-1.6 1.3H228c-.9 0-1.6-.6-1.6-1.3l-.2-1.2-.1-.8a1.2 1.2 0 0 1 .2-.8c.2-.3.6-.5 1-.6a15.4 15.4 0 0 1 4 0c.4 0 .8.3 1 .6.2.2.3.5.3.8l-.3 2Zm11 0c-.1.7-.8 1.3-1.6 1.3H239c-.8 0-1.5-.6-1.6-1.3l-.3-2a1.1 1.1 0 0 1 .2-.8c.3-.3.6-.5 1-.6a15.4 15.4 0 0 1 4 0c.5 0 .8.3 1 .6.3.2.3.5.3.8l-.3 2Z"/><path fill="#333" d="M269.1 382.5c-3.6-1-4.8-.4-8-2.4-1.8-1-2-4.2-4-2.7-4 2.7-8.4-1.9-10.9-1.3.6-.2-7 14.4-.9 14.5 8.6 1 18.3.9 26.8.3 4.1-1.4 3.1-6.5-3-8.4Zm-68.1 0c3.6-1 7-1 10.4-3 1.7-1 1-3 2.9-1.5 4 2.7 8.2-1.9 10.7-1.3-.6-.2 6 13.8-.2 14-8.6.9-18.3.8-26.8.2-4.1-1.4-3.1-6.5 3-8.4Z"/><path fill="#fff" d="m246.5 165.6.6-.1v.1c-.7 1.7-1.4 3.4-2 4.3h-.1c-2.6 4-6.3 6-9.9 6-3.4 0-7.4-2.5-10-6.3-1-1-1.8-2.3-2.8-4.3h.7c.8 1.7 1.6 2.9 2.3 3.7 1.3-1 1.6-2.4 1.5-3.6a16 16 0 0 1-4.5-8v-.2h.1l.2-.1c.1 0 .3 0 .3.2v.2l.3 1a16 16 0 0 0 3.3 5.8c.3.3.7.5 1 .4 2-.5 6.2-1.4 8-1.4 2 0 5.2 1 6.9 1.6.4.1.9 0 1.2-.3a13.4 13.4 0 0 0 3.3-7l.1-.5c0-.2.2-.3.4-.3l.2.2v.2c-.1 1-.4 2-.7 3a12 12 0 0 1-3.6 5.5c-.4 1.3.4 2.9 1.6 3.3.5-.8 1-2.1 1.6-3.4Z"/><path fill="#D9E7EF" d="M228 166.4c.7 0 1.3-.2 1.9-.3l1.8-.6c1.2-.3 2.4-.6 3.7-.6.6 0 1.2 0 1.9.2l1.8.5 1.8.5 1.8.3a8 8 0 0 1-1.9-.1l-1.8-.5c-1.2-.3-2.4-.6-3.6-.6-1.3 0-2.5.3-3.7.6l-1.8.4c-.6.2-1.2.3-1.9.2Zm2.4 2 2.5.2a71.6 71.6 0 0 0 5.2 0l2.6-.1-2.6.4a28.2 28.2 0 0 1-7.7-.4Zm.7 2.8a21.4 21.4 0 0 0 4.3.6 15.7 15.7 0 0 0 4.2-.6 10.2 10.2 0 0 1-4.2 1 10.7 10.7 0 0 1-4.3-1Z"/><path fill="#91402D" d="M221.8 159.3s5.2-1.5 5.3-10.6c1.6 3 5 7 10.1 7.5-.4-1-.3-2.1 0-3a6 6 0 0 0 5 5c-.3-1-.6-2.8.5-3.2.6 2.6 2.7 5 5 5.2l.8-6.2-3.7-6.9c-.1-.2-6.9-4.6-6.9-4.6l-8.9.4-5.8 7.6c-2.5 3.1-3.7 6.1-1.4 8.8Z"/><path fill="#C0C0DD" d="m247 237.3-5.5 1.7-.6.1c-3.7 1.2-8.1 2.7-12.6 4-6.7 1.8-15.8 3.3-20.8 2.7l3.8-53.9.5-.1 10.9 15.6c0 6-1.8 13.5-3.2 20.5 2.5-.1 4.3-.8 7.2-1.2l1.8-.3c4-.5 8.3-1.1 12-1.2h4.4l1.6 9 .1.3.5 2.8Z"/><path fill="#fff" d="M245.2 235.5c-9.4 2.3-34.5 13.7-40.7 6-.5-.7-1-1.5-1.4-2.5-4.8-11.2-4-36 8.1-49.1l12 8.9c2.3 3.3-3.6 22-5 27 7.4-.5 18-3 25-2.5l1.5 9 .5 3.2Z"/><path fill="#E7E6F5" d="M245 235.7c-9.3 2.3-34.4 13.7-40.6 6-.5-.7-1-1.5-1.4-2.5 9.2 8.1 41.6-6.4 41.6-6.4l.5 2.9Z"/><path fill="#F9CBCB" d="m228.2 221.3-2.3 5.8-.6 1.5c-4-.8-4-3.3-7.3-2.6l.7-2.2.7-2.4c4.7-2 8.8 0 8.8 0Z"/><path fill="#EBBEA2" d="m225.9 227-.6 1.6c-4-.8-4-3.3-7.3-2.6l.7-2.2c3.2-.1 6.1 2.2 7.2 3.3Z"/><path fill="#C0C0DD" d="M259.6 245.3c-5-.7-11.8-3.7-17.3-5.7-.2 0-.4 0-.6-.2l-.8-.3a223.7 223.7 0 0 1-13.3-5.3l.7-1.4-.4-.1-2.8-1.3 1.8-3.6 1.8-4 .6-1 3.4.8.4-.8c2.5.3 5 .7 7.4 1.2l.8.1c4.8 1 6.5 1.6 11.7 3a66 66 0 0 1-5.2-20.6l9.4-9.1.1 1.1v.5l.2 3v1.6c.4 10.5.5 26.1 2 42.1Z"/><path fill="#828FFF" d="m233 221.4-.8 4.8-1.5 2.9-1 2-2-.8-.2-.2-2.5-1.2 3.6-8.7 3 .8 1.4.4Z"/><path fill="#fff" d="M267.4 234.8c-.9 2.8-2 5-3.6 6.5-5.4 4.8-28-5.2-36.6-9.7l.6-1.3.9-2.2 3-7 .3-.8c6.9 1 13.9 2.5 21 4.7.8-5.2-7.6-19.7-4.9-22.5l7.8-12c11 12.6 16.4 29.3 11.5 44.3Z"/><path fill="#E7E6F5" d="M267.4 234.8c-.9 2.8-2 5-3.6 6.5-5.4 4.8-28-5.2-36.6-9.7l.6-1.3.6-1.5s21.2 11.5 30.4 10.9c5.7-.4 8.6-4.9 8.6-4.9Z"/><path fill="#F9CBCB" d="m257.4 227.6-.1.2c-1 1.5-2.6-2.1-4.4-2.8l-8.7-2.4 1.6-1c2.5-1.4 7.4-3.5 9.8-.6 1.5 2 2.9 4.8 1.8 6.6Z"/><path fill="#EBBEA2" d="m257.4 227.6-.1.2c-1 1.5-2.6-2.1-4.4-2.8l-8.7-2.4c6.6.6 7.8.2 9.9 1.3a9 9 0 0 1 3.3 3.7Z"/><path fill="#F9CBCB" d="M131.3 269.2v.2l-1.5 19.1-8.2 100-.3 3.5 1.6 7.1-.1.6-16 .4 1.7-2c1.7-2.6 2.7-5.4 3.3-7.3l.6-.3-.1-1.8-5.4-118 21.3-1.3h1.6l1.5-.2Z"/><path fill="#F9CBCB" d="M152.7 400.5h-16.3l-.2-1.5 1.5-8.7-.1-1.8-7.8-100-1.6-19v-.3l1.6.1 1.5.1 21.3 1.3-5.9 117.6v1.4l.4.3c.5 1.9 1.5 5.1 3.5 8a14 14 0 0 0 2 2.5Z"/><path fill="#333" d="M153.4 332c-17 1.7-32.8 2-45.8-.5l-4.2-59.6h53.4l-3.4 60.2Z"/><path fill="#F9CBCB" d="M125.5 176.6s-12 3.7-19.3 8.2c-7.2 4.5 4.3 59.3 4.3 59.3h41s6.5-57.8.1-61.5c-5.4-3.1-14-6-14-6h-12.1Z"/><path fill="#FF6BB7" d="M165.2 306.5s-19.3 3.9-30.5 4l-2.4-34.3-4.6 34.4c-12.7 1.4-32-2.4-31.8-4.1 1.4-20 7.5-43 8.4-62.1v-1.9l.3-9.6c.4-19.2-4.4-36.6-1.8-46.2.3-1.3.8-2.4 1.4-3.4 1.9-3 12.8-5.2 18.1-6.2l3.1-.5s.3 6.5 6 6.5c6 0 6.2-6.4 6.2-6.4l2.6.6a70 70 0 0 1 14 5c.3.2.6.8.8 1.9 1.5 7-.4 32.3 1 58.2l.2 2.8c2 30.5 9 61.3 9 61.3Z"/><path fill="#FF0084" d="M140.2 177.3c-.8 3.4-2.9 8.3-8.7 8.3-6 0-8.3-5.2-9.2-8.5l3.1-.5s.3 6.5 6 6.5c6 0 6.2-6.4 6.2-6.4l2.6.6Zm4.3 57.7c-8.7 2.2-29.5 11.4-40.2 9.4v-1.9l.3-9.6c.4-19.2-4.4-36.6-1.8-46.3 1.4-1.1 3-2 4.7-2.4l8.5 14.3c2.2 3.7-1.2 19.9-1.7 25.7 8.4-.6 20.2-3.4 28-2.7l1.6 10v.4l.6 3.1Z"/><path fill="#FF6BB7" d="M142.3 233.1c-10.5 2.6-38.4 15.4-45.3 6.7l-1.6-2.7c-5.4-12.5-3.7-40.3 9.8-54.8l12.6 9.8c2.6 3.7-4 24.6-5.7 30.2 8.3-.6 20.2-3.4 27.9-2.7l1.7 10 .6 3.5Z"/><path fill="#FF0084" d="M142.3 233.1c-10.5 2.6-38.4 15.4-45.3 6.7l-1.6-2.7c10.3 9 46.3-7.1 46.3-7.1l.6 3.1Z"/><path fill="#F9CBCB" d="M126.8 218s-8-3-13.2-.8l-1.5 5c3.7-.7 6.4 4.4 10.8 5.3l4-9.6Z"/><path fill="#FF0084" d="M123 229v-.2l-.3-.2-.3-.1.6-1.4.7-1.6.3-.8 2.7-6.4.7.2.3-.9c7.7 1.1 14.5 2.9 22.5 5.3v-2c-.4-4.9-4.5-11-4.5-19.1l.1-2.8 8.5-15c.2 0 .5 0 .7.2 1.4 6.6-.2 29.2.8 53.4 0 1 0 2.1.2 3.2v1.6c-10-1-26.3-8.3-33.6-12.1l.6-1.3Z"/><path fill="#FF6BB7" d="M167.1 232.2a16 16 0 0 1-4 7.2c-1.5 1.3-4 1.7-7.1 1.4a105 105 0 0 1-33-11.8l-.6-.3v-.2l.6-1.4.7-1.6.3-.8 2.7-6.4.6-1.5.4-.8 5.1.8a140.6 140.6 0 0 1 18.3 4.4c.6-4-3.7-13.2-5.4-19.4-.7-2.7-1-4.8 0-5.7l8.6-13.8c12.3 14.1 18.2 33.1 12.8 49.9Z"/><path fill="#FF0084" d="M167.1 232.3a16 16 0 0 1-4 7.1c-1.5 1.3-4 1.7-7.1 1.4-9.8-1-25.5-8-33-11.8l-.6-.3v-.2l.6-1.4.7-1.6s21.2 11.5 32 12.1h1.8c6-.4 9.2-4.8 9.6-5.3Z"/><path fill="#FF0084" d="m132.8 216.8-6.2 14c-1.7 0-4-1.5-4.2-2.1l.6-1.6.7-1.6.3-.8 2.7-6.4.6-1.5.4-.8c1.8-.3 3.6 0 5.1.8Z"/><path fill="#F9CBCB" d="m156 224.1-.2.2c-1 1.7-2.8-2.3-4.8-3.1l-9.7-2.6 1.8-1.1c2.8-1.6 8.2-4 10.8-.7 1.8 2.1 3.3 5.3 2 7.3Z"/><path fill="#EBBEA2" d="m156 224.1-.2.2c-1 1.7-2.8-2.3-4.8-3.1l-9.7-2.6c7.3.6 8.6.2 11 1.4 1.7 1 2.9 2.8 3.7 4.1Z"/><path fill="#754C24" d="M145.4 147.5c-.3 0-.5-.2-.7-.3l-1-7.7c2.1-2.8 9.8-6.7 11.9.9l.3 1.1c1 6.6-6.2 8-10.5 6Z"/><path fill="#4F3215" d="M145.4 147.5c.2-3 .7-6.8 1.4-5.2 1.2 2.4 3.2 3.4 6 2.4 3-1 2.8-4.3 2.8-4.3l.3 1.1c1 6.6-6.2 8-10.5 6Z"/><path fill="#F9CBCB" d="m137.6 176.8-1 1c-3.8 4.4-7.6 4.6-11.2-1l1.5-13h8.4l2.3 13Z"/><path fill="#CCC" d="M137.6 176.8c0 .5-.3 2.2-.6 2.6-.4-1.4-2-7.6-3.8-10-1.5-1.8-4.8-1.6-6.7-1.5l.4-4h8.4l2.3 13Z"/><path fill="#E0B9A0" d="M145.4 148s2.7-1.4 4.5 0c1.5 1.2 1.8 7.2-6.2 8.5l1.7-8.5Z"/><path fill="#F9CBCB" d="M146.6 147a22.9 22.9 0 0 1-3.2 11.4c-2.6 4.5-6.4 7.8-10.6 8.2h-2c-.7 0-1.4-.2-2-.4l-1-.4c-3-1.2-5.8-3.8-7.8-6.9l-.7-1-.2-.4-.8-1.5-.1-.3c-1.3-2.8-2-5.8-2-8.8 0-9.3 6.8-16.9 15.2-16.9 8.4 0 15.2 7.6 15.2 17Z"/><path fill="#3B2612" d="M123.6 150a1.5 1.5 0 0 1 .4-1.1 1.5 1.5 0 1 1 2.2 2.1 1.5 1.5 0 0 1-1.1.5 1.5 1.5 0 0 1-1.5-1.5Zm13 0a1.5 1.5 0 0 1 .9-1.5 1.5 1.5 0 0 1 1.6.4 1.5 1.5 0 1 1-2.6 1Z"/><path fill="#fff" d="M125.3 149.5a.4.4 0 0 1 0-.5v-.2a.4.4 0 1 1 0 .7Zm13 0a.4.4 0 0 1-.2-.3.4.4 0 1 1 .8 0 .4.4 0 0 1-.4.4l-.3-.1Z"/><path fill="#3B2612" d="m144.7 148.4-2.1.5v-.5l-.1-.4-.1-.3v-.1l-.6-.6-.2-.1-.4-.1-1.3-.2a18.9 18.9 0 0 0-5 .2h-.2l-.3.2c-.2 0-.5.3-.6.5-.2.3-.2.6-.2.9v.3c-.3.1-1.2.5-2 .5a3.7 3.7 0 0 1-1.8-.5v-.3a1.6 1.6 0 0 0-1.2-1.6h-.1a20.6 20.6 0 0 0-6.5 0l-.8.5c-.3.3-.4.7-.4 1v.4l-3.6-.6-1.5-.3v.5l1.4.2 3.7.6v.1a4.5 4.5 0 1 0 9 0h.2c.4.3 1 .4 1.6.4.7 0 1.5-.3 2-.4a4.6 4.6 0 0 0 1 3 4.5 4.5 0 0 0 8-2.8l2.2-.5 2.5-.6.1-.5-2.7.6Zm-15.4.8a4 4 0 0 1-8 0v-.8c0-.6.4-1 .9-1.2a18.2 18.2 0 0 1 6.2 0c.5.1 1 .6 1 1.2v.8Zm12.8 0a4 4 0 1 1-8 0v-.8c0-.6.3-1 .8-1.2h.4a18 18 0 0 1 5.9 0c.2 0 .4.2.6.4.2.2.3.5.3.8v.8Z"/><path fill="#D2A0A0" d="M147.4 147.8v.5a29 29 0 0 1-2.6 7.7c.5-2 .7-4 .4-6.2v-.5c-.3-1.7-.9-3.5-1.9-5.3a14 14 0 0 0-1 4v.5l-.2 1.5c-1 0-2-.3-2.9-.6h-.4l-3-1.3-.7-.4a30.3 30.3 0 0 1-10.4-11 18.8 18.8 0 0 0-7.1 12.7l-.5 2.6a26.2 26.2 0 0 1-.8-2.8l-.2-.5c-2.4-11.6 4.6-24.7 18.1-23.7 5.3.4 9 3 11.2 6.8a25.9 25.9 0 0 1 2 16Z"/><path fill="#fff" d="M145.3 154.4a24 24 0 0 1-2 4c-2.4 4.5-6.3 7.8-10.5 8.2h-1a10.4 10.4 0 0 1-3-.4l-1-.4c-3-1.3-5.8-3.8-7.8-6.9l-.7-1-.2-.4-.8-1.5-.2-.3c3.9 1 9.6-2.1 14-2.2 3-.1 8.5 3 13.2.9Z"/><path fill="#D9E7EF" d="M122.3 157.7c.8 0 1.5-.2 2.3-.4l2.3-.7a17 17 0 0 1 4.8-.9l2.4.3 2.4.7 2.3.6c.7.2 1.5.4 2.3.4-.8 0-1.6 0-2.4-.2a36 36 0 0 1-2.3-.5c-1.6-.4-3.1-.8-4.7-.8a19 19 0 0 0-4.7.7l-2.3.6c-.8.1-1.6.3-2.4.2Zm2.6 2.1 3.3.2a91.8 91.8 0 0 0 6.7 0l3.3-.2a28 28 0 0 1-6.7.7 38.3 38.3 0 0 1-6.6-.7Zm1.2 2.3a27.2 27.2 0 0 0 5.4.8 20.1 20.1 0 0 0 5.5-.8 13.1 13.1 0 0 1-5.5 1.2 13.8 13.8 0 0 1-5.4-1.2Z"/><path fill="#754C24" d="M147.4 147.8v.5a29 29 0 0 1-4.1 10.3c1.1-3 1.9-6.3 1.5-9.7l-.1-.5c-.2-1.5-.7-3-1.4-4.4l-.5-.9c-.5 1-.8 2.7-1 4v.5l-.2 1.6c-1-.1-2-.3-2.9-.6a17 17 0 0 1-3.4-1.4l-.6-.4c-5.3-3-8.8-8-10-10.1l-.5-1a18.8 18.8 0 0 0-7 12.8c-.3.8-.4 1.5-.5 2.3l-.1.3-.8-2.8-.1-.5c-2.4-11.6 4.5-24.7 18-23.6a13.8 13.8 0 0 1 11.7 7.6 25.9 25.9 0 0 1 2 16Z"/><path fill="#FF6BB7" d="M143.7 129.5a25.7 25.7 0 0 0-23.2 0l-3-10.1c9.7-5 19.2-5.2 28.5 0l-2.3 10.1Z"/><path fill="#F9CBCB" d="m520.7 401 1.3 9.7h-31.3l18.8-9.7-1.6-133.3 24.5-1.7-11 127.4-.7 7.5Zm23.5 9.7 1.3-9.8-.7-7.5-11-127.4 24.4 1.7L556 401l19.6 9.6h-31.3Z"/><path fill="#333" d="m508 267.7 26.8 1-13.5 124.7H508V267.7Z"/><path fill="#333" d="M558.2 267.7v125.7h-13.4l-14.3-126 27.7.3ZM571 405c-4.1-1-8.6-1.3-12.3-3.4-2-1.1-4-3.2-6.2-1.4-4.5 3-4.3-3-7.1-2.3.7-.2-7.9 16.1-1 16.3 9.6 1 20.3 1 29.8.3 4.7-1.6 3.5-7.3-3.2-9.5Zm-76.1 0c4-1 8.5-1.3 12.2-3.4 2-1.1 4-3.2 6.2-1.4 4.5 3 4.4-3 7.1-2.3-.6-.2 7.9 16.1 1 16.3-9.5 1-20.3 1-29.8.3-4.7-1.6-3.5-7.3 3.3-9.5Z"/><path fill="#F9CBCB" d="M529.3 173.4s-12 3.7-19.3 8.2c-7.3 4.5 4.2 59.3 4.2 59.3h41.1s6.6-57.8.1-61.5c-5.4-3.1-14-6-14-6h-12.1Z"/><path fill="#FF6BB7" d="M569 303.3s-19.2 3.9-30.5 4L536 273l-4.6 34.4c-12.7 1.4-32-2.4-32-4.1 1.5-20 7.6-43 8.5-62.1v-1.9l.3-9.6c.5-19.2-4.4-36.6-1.8-46.3.3-1.2.8-2.3 1.4-3.3 2-3 12.8-5.2 18.2-6.2l3-.5s.4 6.5 6 6.5c6 0 6.3-6.4 6.3-6.4l2.6.6c3.6 1 10.2 2.8 14 5 .4.2.7.8.9 1.9 1.4 7-.5 32.3 1 58.2l.1 2.7c2 30.6 9 61.4 9 61.4Z"/><path fill="#FF0084" d="M548.3 231.8c-8.7 2.2-29.6 11.4-40.3 9.4v-1.9l.3-9.6c.5-19.2-4.4-36.6-1.8-46.3 1.4-1.1 3-2 4.7-2.5l8.6 14.4c2.2 3.7-1.3 19.9-1.7 25.7 8.3-.6 20.2-3.4 28-2.8l1.6 10.2v.3l.6 3.1Z"/><path fill="#FF6BB7" d="M546 230c-10.4 2.5-38.4 15.3-45.3 6.6l-1.6-2.7c-5.4-12.5-3.7-40.3 9.9-54.8l12.6 9.8c2.5 3.7-4.1 24.5-5.7 30.2 8.3-.6 20.1-3.4 27.9-2.8l1.7 10.2.6 3.4Z"/><path fill="#FF0084" d="M546 230c-10.4 2.5-38.4 15.3-45.3 6.6l-1.6-2.7c10.3 9 46.5-7.1 46.5-7.1l.5 3.1Z"/><path fill="#F9CBCB" d="M530.6 214.7s-8-3-13.2-.7l-1.5 5c3.6-.7 6.4 4.3 10.7 5.3l4-9.6Z"/><path fill="#FF0084" d="m526.7 225.8.1-.2-.3-.2-.3-.1.6-1.4.6-1.6.4-.8 2.7-6.4.6.2.4-.9c7.7 1.1 14.6 2.9 22.5 5.3v-2c-.4-4.9-4.5-11-4.5-19.1 0-1 0-1.9.2-2.8l8.5-15.1.7.3c1.3 6.6-.2 29.2.7 53.4l.2 3.2v1.6c-10-1-26.3-8.3-33.6-12.1l.5-1.3Z"/><path fill="#FF6BB7" d="M571 229a16 16 0 0 1-4 7.2c-1.5 1.3-4 1.7-7.2 1.4a105.4 105.4 0 0 1-33-11.8l-.7-.3.1-.2.6-1.4.6-1.6.4-.8 2.7-6.4.6-1.5.4-.8 5.1.8a141.2 141.2 0 0 1 18.3 4.4c.7-4-3.7-13.2-5.4-19.4-.7-2.7-1-4.8 0-5.7L558 179c12.3 14.1 18.3 33.1 13 49.9Z"/><path fill="#FF0084" d="M571 229a16 16 0 0 1-4 7.2c-1.5 1.3-4 1.7-7.2 1.4a117 117 0 0 1-33-11.8l-.7-.3.1-.2.6-1.4.6-1.6s21.3 11.5 32.2 12.1h1.8c6-.4 9.2-4.8 9.6-5.3Z"/><path fill="#FF0084" d="m536.6 213.6-6.2 14c-1.7 0-4-1.5-4.3-2.1l.7-1.6.6-1.6.4-.8 2.7-6.4.6-1.5.4-.8c1.8-.3 3.5 0 5.1.8Z"/><path fill="#F9CBCB" d="m559.8 221-.1.1c-1.1 1.7-2.8-2.3-5-3.1l-9.6-2.6 1.8-1.1c2.8-1.6 8.2-4 10.9-.7 1.7 2.1 3.2 5.3 2 7.3Z"/><path fill="#EBBEA2" d="m559.8 221-.1.1c-1.1 1.7-2.8-2.3-5-3.1l-9.6-2.6c7.4.6 8.7.2 11 1.4 1.7 1 3 2.8 3.7 4.1Z"/><path fill="#F9CBCB" d="m541.4 173.5-1 1.1c-3.6 4.2-7.4 4.4-11.1-1l1.4-8.8.6-3.3h7.9l2.2 12Z"/><path fill="#DFA5A5" d="M541.4 173.5c0 .5-.2 2.1-.5 2.4-.3-1.3-2-7-3.7-9.1-1.4-1.8-4.6-2-6.5-2l.6-3.3h7.9l2.2 12Z"/><path fill="#E0B9A0" d="M550 151.4c-.3 0-.5.1-.8 0-.4.2-.8.2-1.2.2l2.7-7.7s2.7-1 4.2.6c1.1 1.1.8 5.9-5 6.9Zm-25.9 0-1.1-.1-.8-.1c-5.8-1-6.1-5.9-5-7 1.5-1.6 4.2-.6 4.2-.6l2.7 7.8Z"/><path fill="#F9CBCB" d="M550.5 144.5c0 8.7-6.3 18.5-13.8 18.5-7.7 0-14.8-9.8-14.8-18.5 0-8.8 6.4-16 14.3-16 8 0 14.3 7.2 14.3 16Z"/><path fill="#E7A7A7" d="M536.2 128.5h-.7c7.6.5 13.7 7.4 13.7 16 0 8.5-6 17.9-13.2 18.4h.7c7.5 0 13.8-9.7 13.8-18.4 0-8.8-6.4-16-14.3-16Z"/><path fill="#754C24" d="M551.7 142.7Z"/><path fill="#F7E6DC" d="M528 144.6a2 2 0 1 1 4 0 2 2 0 0 1-4 0ZM542.3 146.6a2 2 0 1 0 0-4 2 2 0 0 0 0 4Z"/><path fill="#754C24" d="M544.5 140c-.6-.5-1.3-.7-2-.8-.7 0-1.6 0-2.2.7a.4.4 0 0 0-.1.3.4.4 0 0 0 .1.3.4.4 0 0 0 .6 0c.7-.8 2.3-.8 3.3-.2h.2a.2.2 0 0 0 0-.3Zm-16.3.4c1-.6 2.6-.6 3.3.2a.4.4 0 0 0 .3.1h.1a.4.4 0 0 0 .3-.2v-.2a.4.4 0 0 0-.1-.3c-.6-.6-1.5-.8-2.2-.7-.7 0-1.4.3-2 .8v.1a.2.2 0 0 0 .3.2Z"/><path fill="#3B2612" d="M543.7 144.6a1.4 1.4 0 1 0-2.8 0 1.4 1.4 0 0 0 2.8 0Zm-12.2 0a1.4 1.4 0 1 0-2.9 0 1.4 1.4 0 0 0 2.9 0Z"/><path fill="#fff" d="m542 144.1.2-.1a.4.4 0 0 0 0-.3.4.4 0 0 0-.2-.2h-.2a.4.4 0 0 0-.3 0 .4.4 0 0 0 0 .6.4.4 0 0 0 .6 0Zm-12 0a.4.4 0 0 0-.6-.5l-.1.2a.4.4 0 0 0 .6.3Z"/><path fill="#4D4D4D" d="M550.7 144v-.2l-4.7.8.2-1a1.4 1.4 0 0 0-.3-1c-.3-.4-.8-.7-1.3-.7-1.5-.2-3-.2-4.5 0-.5 0-1 .3-1.2.7a1.5 1.5 0 0 0-.3 1l.1 1.2c-.4-.1-1.7-.5-2.4-.5l-2.6.3.1-1a1.4 1.4 0 0 0-.2-1c-.3-.4-.8-.7-1.3-.7-1.5-.2-3-.2-4.5 0-.5 0-1 .3-1.2.7a1.4 1.4 0 0 0-.3 1v.9l-4.5-.7v.1l4.6.8.2 1.2c0 .8 1 1.5 2 1.5h3c1 0 1.8-.6 1.9-1.5l.2-1.1 2.6-.3c.8 0 2.2.4 2.4.5l.2.9c0 .8 1 1.5 2 1.5h3c1 0 1.8-.6 2-1.5v-1.2l4.8-.7Zm-17.4 1.9c0 .7-.9 1.3-1.8 1.3h-3c-.9 0-1.7-.6-1.8-1.4l-.1-1.3-.2-.9a1.3 1.3 0 0 1 .3-1c.2-.3.7-.5 1.1-.6a17 17 0 0 1 4.5 0c.4.1.9.3 1.1.7.2.3.3.6.3 1l-.4 2.2Zm12.3 0c0 .7-.8 1.3-1.7 1.3h-3c-1 0-1.8-.6-1.9-1.4l-.3-2.2a1.3 1.3 0 0 1 .3-1c.3-.3.7-.5 1.1-.6a17 17 0 0 1 4.5 0c.5.1.9.3 1.1.7.2.3.3.6.3 1l-.4 2.2Z"/><path fill="#fff" d="m549.2 151.5.7-.1v.2c-.8 1.8-1.5 3.7-2.3 4.7-2.9 4.6-7 6.8-11 6.8-3.9 0-8.4-2.9-11.2-7.1-1.2-1.1-2.1-2.6-3.2-4.8h.8c.9 1.9 1.7 3.2 2.6 4 1.4-1 1.8-2.5 1.6-3.9a17.9 17.9 0 0 1-5-9v-.2H522.6c.2-.1.3 0 .4.1v.3l.3 1.2c.8 2.5 2.3 5 3.7 6.4.3.4.7.5 1.2.4 2-.5 6.8-1.5 9-1.5 2 0 5.6 1.1 7.5 1.7.5.2 1 .1 1.3-.2a15 15 0 0 0 3.8-8l.1-.5c0-.2.2-.3.4-.3l.2.2v.2c-.1 1.2-.4 2.3-.8 3.3-.8 2.7-2.3 4.8-4 6.2-.4 1.4.5 3.2 1.9 3.7.5-1 1.2-2.4 1.7-3.8Z"/><path fill="#D9E7EF" d="M528.6 152.5c.7 0 1.4-.3 2-.5.7-.1 1.4-.4 2-.6 1.4-.4 2.8-.7 4.2-.7l2.1.3 2 .5 2 .6 2 .4-2-.2-2-.5c-1.4-.4-2.7-.7-4.1-.7-1.4 0-2.7.3-4 .6l-2.1.5-2 .3Zm2.6 2.2 2.9.2a81.4 81.4 0 0 0 5.7 0l3-.2a24.3 24.3 0 0 1-5.8.6 33 33 0 0 1-5.8-.6Zm.9 3.1a23.4 23.4 0 0 0 4.7.6 17.5 17.5 0 0 0 4.7-.6 11.4 11.4 0 0 1-4.7 1 12 12 0 0 1-4.7-1Z"/><path fill="#FF6BB7" d="M550.9 144.2c-4.8-7.4-23.5-7.8-29.3.6 0 0-1.2-4.8-1-8 .7-8.6 7-15.7 15.7-15.7s15.6 7 15.7 15.7a35 35 0 0 1-1.1 7.4Z"/><path fill="#1A1A1A" d="M461.3 174.8c-2 5.3-20.5 4.2-26.5 3-8.4-1.5-4.4-11.4-3.5-21.2.3-3.7.5-6.5 3.3-10.6 3.9-5.6 14.3-6.4 21.1-1.1 6.3 5.8 7 25.3 5.6 30Z"/><path fill="#1A1A1A" d="M436 146a2 2 0 0 0-1 .4l-.9.6-1.4 1.6-1 1.9-.7 2c-.3 1.3-.4 2.7-.4 4.1l.2 4.4v.5l-.1.6-.2 1c-.1.8-.3 1.5-.6 2.2-.5 1.4-1 2.7-1.2 4v1.1a8.7 8.7 0 0 0 .2 3.2 5.6 5.6 0 0 0 2.5 3.3 5.6 5.6 0 0 1-2.8-3.2 11.3 11.3 0 0 1 0-6.5c.1-.8.4-1.5.6-2.1l.5-2 .2-1.1V156.7c0-1.5 0-3 .5-4.4.4-1.4 1-2.8 2-4l1.6-1.5a5 5 0 0 1 .9-.5 2 2 0 0 1 1-.2Z"/><path fill="#F9CBCB" d="M433.5 158.3v4.3h-.2c-.2-.2-.4-.2-.7-.3-4.8-2.6-3.2-6-2-6.7.8-.4 1.7 0 2.3.3v.2c0 .7.3 1.5.6 2.2Zm8 217.2 1.8 7.8c-7.5 4.3-13.7 5.1-18.5 4 4.6-3.4 6.6-7 7.4-11.5l-10.4-108 21.9-3-2 104.5-.2 6.2Zm6 7.6 2.3-6.4-.8-7.6-3-104.5 21.9 2.8-9.2 111.4c1.3 4 4.2 6.8 8.9 10a39.8 39.8 0 0 1-20.2-5.7Z"/><path fill="#333" d="m421.8 267.8 24.2-17.3-4.3 118.8-12 1-8-102.5Z"/><path fill="#333" d="M467.9 267.7 461 370.2l-12-.8-5.1-107.4 24 5.7Z"/><path fill="#828FFF" d="M439.8 183s-9.8 2.9-15.7 6.3c-5.9 3.5 3.5 45.4 3.5 45.4h33.3s5.3-44.3.1-47c-4.4-2.5-11.4-4.7-11.4-4.7h-9.8Z"/><path fill="#fff" d="M472 282.4s-15.6 3-24.7 3.1l-2-26.3-3.7 26.4c-10.3 1-26-1.9-26-3.2 1.3-15.3 6.2-33 7-47.5v-1.4l.2-7.4c.4-14.7-3.6-28-1.5-35.4.3-1 .7-1.8 1.2-2.6 2-3 16.8-5 17.2-5l4.7 22.2 5.3-22.2c1 .2 9.3 2 13.4 4.3.3.1.5.6.7 1.4 1.2 5.4-.3 24.7.8 44.6l.2 2c1.6 23.5 7.3 47 7.3 47Z"/><path fill="#C0C0DD" d="M455.3 227.7c-7.1 1.7-24 8.7-32.8 7.2l.1-1.4.2-7.4c.4-14.7-3.6-28-1.5-35.4 1.1-.9 2.4-1.5 3.8-1.9l7 11c1.8 2.8-1 15.2-1.4 19.6 6.8-.4 16.4-2.6 22.7-2l1.4 7.7v.2l.5 2.4Z"/><path fill="#C0C0DD" d="m457.9 188.8-7.6-5.6-.7-.2-4.8 21.8-.4.5-.5-.5-4.2-21.7h-.8l-7.4 5.7 7.2 6.7-3.1 4.7 8.8 6.6 9.4-6.6-3.1-4.7 7.2-6.7Z"/><path fill="#fff" d="m436.1 199 3-4.3-6.6-5.9 7.2-5.7 4.7 22.2-8.3-6.2Z"/><path fill="#fff" d="m450.3 194.7 3 4.4-9 6.2 5.3-22.3 7.2 5.8-6.5 6Zm3.1 31.6c-8.4 2-31.2 11.7-36.8 5-.4-.5-.9-1.2-1.2-2-4.5-9.6-3.1-30.8 8-42l10.1 7.6c2.1 2.9-3.3 18.8-4.6 23.1 6.8-.5 16.4-2.6 22.7-2.1l1.4 7.7.4 2.7Z"/><path fill="#E7E6F5" d="M453.4 226.3c-8.4 2-31.2 11.7-36.8 5-.4-.5-.9-1.2-1.2-2 8.3 7 37.6-5.4 37.6-5.4l.4 2.4Z"/><path fill="#F9CBCB" d="M438.2 214s-3.8-1.7-8 .1l-1.3 3.9c3-.6 3 1.6 6.6 2.2l2.7-6.2Z"/><path fill="#C0C0DD" d="m437.3 224.1.5-1.2h-.3l-2.3-1.1 3.4-7.5 2.7.7.3-.6c6.2.8 11.8 2.2 18.3 4 .7-4.3-4.6-10.2-3.6-18.3l7-11.5.5.2c1.2 5.4-.3 24.7.8 44.6a101 101 0 0 1-27.3-9.3Z"/><path fill="#828FFF" d="m442.5 214-.8 4.2-1.3 2.5-1 1.8-1.6-.8-.3-.1-2.3-1 3.3-7.5 2.8.7 1.2.3Z"/><path fill="#fff" d="M473.7 225.6c-.8 2.3-2 4.2-3.3 5.5-5 4.1-25.3-4.5-33.2-8.2l.6-1.2.8-1.9 2.7-6 .3-.7c6.2.9 12.6 2.2 19 4 .8-4.4-6.8-16.8-4.4-19.2l7-10.5c10 10.8 14.8 25.3 10.5 38.2Z"/><path fill="#E7E6F5" d="M473.7 225.6c-.8 2.3-2 4.2-3.3 5.5-5 4.1-25.3-4.5-33.2-8.2l.6-1.2.5-1.3s19.2 9.9 27.5 9.3c5.2-.3 7.9-4.1 7.9-4.1Z"/><path fill="#F9CBCB" d="M452.6 215.1s7.3-4.8 10.3-1.3c1.5 1.7 2.7 4.2 1.6 5.8-1 1.2-2.3-1.8-4-2.4l-7.9-2Zm-2.6-32-.7.9c-3.4 3.7-6.6 3.8-9.6-1l1.3-10.8h7.1l2 11Z"/><path fill="#EDBCBC" d="m450 183.1-.7.9c-.3-1.2-1.5-5.1-3-7.1-1.3-1.6-4-1.4-5.7-1.4l.4-3.3h7.1l2 11Z"/><path fill="#F9CBCB" d="M457.7 157.9a19.3 19.3 0 0 1-2.8 9.7c-2.1 3.7-5.3 6.6-9 6.9h-1.7c-.5 0-1-.2-1.6-.4l-.9-.3a14.8 14.8 0 0 1-7.2-6.7l-.1-.3-.7-1.3-.1-.2c-1.1-2.4-1.8-5-1.8-7.4 0-8 5.8-14.4 13-14.4 7 0 12.9 6.4 12.9 14.4Z"/><path fill="#fff" d="M456.5 164.1c-.4 1.2-1 2.4-1.6 3.5-2.1 3.7-5.3 6.6-9 6.9h-1.7c-.5 0-1-.2-1.6-.4l-.9-.3a16.2 16.2 0 0 1-7.2-6.7l-.1-.3-.7-1.3-.2-.2c3.3.8 8.1-1.8 11.8-2 2.7 0 7.3 2.7 11.2.8Z"/><path fill="#D9E7EF" d="M437 167c.7 0 1.4-.2 2-.4l2-.6a10.3 10.3 0 0 1 6.1-.5l2 .6 2 .5 2 .4c-.8 0-1.4 0-2.1-.2a31 31 0 0 1-2-.5c-1.3-.3-2.6-.7-4-.7a16 16 0 0 0-4 .7l-2 .4c-.6.2-1.3.3-2 .3Zm2.3 1.7 2.8.2h5.6l2.8-.2a24 24 0 0 1-5.6.6 31.8 31.8 0 0 1-5.6-.6Zm1 2a22.7 22.7 0 0 0 4.6.6 17 17 0 0 0 4.6-.6 11.2 11.2 0 0 1-4.6 1 11.7 11.7 0 0 1-4.6-1Z"/><path fill="#333" d="M449.7 376s-3.2 2.2-3.7 4.3c-.5 2 1.7 8 1.7 11.6h2.3l-.2-6.8s2.3.4 3.9 3.2a6.6 6.6 0 0 0 6.3 3.8c2.6 0 11.6.2 12.9-1 1.5-1.6-7.7-4-7.7-4s-1.3 1.3-5.4.7c-3.5-.5-10.2-9.8-10.1-11.7Zm-8.4-.3s3.1 2.2 3.6 4.2-1.6 8.1-1.6 11.7H441l.2-6.8s-2.3.3-3.9 3.2a6.6 6.6 0 0 1-6.3 3.7c-2.6 0-11.6.3-12.9-1-1.5-1.6 7.4-4.2 7.4-4.2s1.6 1.5 5.6 1c3.5-.6 10.3-9.9 10.2-11.8Z"/><path fill="#0B2D50" d="M437.4 157.4a3 3 0 0 1 1.8-.7c.6 0 1.3 0 1.9.6a.4.4 0 0 1 .1.2.4.4 0 0 1-.1.3h-.1a.4.4 0 0 1-.3 0h-.2c-.5-.7-2-.7-2.8-.1H437.4V157.3Zm14.3.4c-.8-.6-2.3-.6-2.9 0v.2a.4.4 0 0 1-.4 0 .4.4 0 0 1-.2-.2.4.4 0 0 1 0-.4c.6-.6 1.4-.7 2-.6a3 3 0 0 1 1.8.6.2.2 0 0 1 0 .3h-.1c0 .1-.1 0-.2 0Z"/><path fill="#FDEAEA" d="M437.8 159.3a1.6 1.6 0 1 1 3.2 0 1.6 1.6 0 0 1-3.2 0Zm10.7 0a1.6 1.6 0 1 1 3.2 0 1.6 1.6 0 0 1-3.2 0Z"/><path fill="#0B2D50" d="M438.1 159.3a1.3 1.3 0 0 1 .8-1.1 1.2 1.2 0 0 1 1.4.2 1.2 1.2 0 0 1 0 1.8 1.3 1.3 0 0 1-2.2-.9Zm10.8 0a1.2 1.2 0 1 1 2.5 0 1.2 1.2 0 0 1-2.5 0Z"/><path fill="#fff" d="M439.6 159a.3.3 0 0 1-.1-.4.3.3 0 0 1 .2-.2h.1a.3.3 0 0 1 .3.3v.2a.3.3 0 0 1-.5 0Zm10.6 0a.3.3 0 0 1 0-.4.3.3 0 0 1 .1-.2H450.6a.3.3 0 0 1 .2.3.3.3 0 0 1-.6.2Z"/><path fill="#1A1A1A" d="M458.2 159c-.1 2.3-1.1 8.3-1.9 9.2-.5-11.5-8-22.2-18.6-19.8-.2 6-6.5 6.3-2.7 19.8-3.6-5.2-2.7-9-2.9-9.6-1-2.9-.7-6 0-7.9 3.8-10 13.5-8.5 15.1-8.3 7.7.6 10.1 7 10.8 10.2.3 1.4.4 4.2.2 6.3Z"/><path fill="#1A1A1A" d="M436.5 148.1a16 16 0 0 1 3.7-.5 10 10 0 0 1 7 2.6c.9.8 1.6 1.8 2.3 2.9 1.4 2.1 2.3 4.4 3.1 6.7l1.3 3.5a11 11 0 0 0 1.9 3.1 10 10 0 0 1-2.2-3c-.6-1-1-2.2-1.6-3.3-1-2.3-1.9-4.6-3.2-6.6-1.2-2-3-3.8-5.2-4.7-1-.5-2.2-.7-3.4-.8a19 19 0 0 0-3.7.1Z"/><path fill="#005FDF" d="M300.9 69.3c0 .6-.1 1.1-.3 1.6-.2.5-.5.9-.9 1.2-.3.3-.8.6-1.3.7-.5.2-1.2.3-1.9.3h-.9v3.6l-.2.1-.4.1a4.6 4.6 0 0 1-1.4 0l-.2-.2v-10c0-.2 0-.4.2-.6l.5-.1h2.6a9 9 0 0 1 1.6.1c.3 0 .7.2 1 .4l.8.6c.3.3.5.6.6 1l.2 1.2Zm-2.3.1-.2-1-.5-.5-.7-.2h-1.6v3.7h1c.4 0 .7 0 .9-.2a1.5 1.5 0 0 0 1-1v-.8Zm6 7.2v.1l-.2.1-.4.1a5.2 5.2 0 0 1-1.3 0l-.2-.2V65.3h.2l.3-.2a4.3 4.3 0 0 1 1.4.1l.1.1v11.2Zm8.5 0v.2h-.3l-.6.1h-.5l-.3-.1V76l-1.1.8a3 3 0 0 1-1.3.3l-1.1-.2c-.4-.1-.6-.3-.9-.5l-.6-.7-.2-1c0-.5.1-1 .3-1.2.2-.4.4-.6.8-.8l1.2-.5a9 9 0 0 1 1.8-.2h.7v-1a1 1 0 0 0-.3-.5 1 1 0 0 0-.4-.2l-.7-.1-1 .1a5.4 5.4 0 0 0-1.2.5l-.4.1h-.1l-.1-.2-.1-.3a2.2 2.2 0 0 1 0-.7c0-.1 0-.2.2-.3l.4-.3.7-.2a6 6 0 0 1 3.3-.2c.4.2.8.3 1 .6.3.2.5.5.6.9.2.4.2.8.2 1.3v5.1Zm-2-3.2h-1.8l-.5.3a1 1 0 0 0-.4.3v.5c0 .4 0 .6.2.8.2.2.5.3.8.3l.9-.3.7-.6v-1.3Zm11.3 3.2v.1l-.2.1-.3.1a5.2 5.2 0 0 1-1.4 0l-.2-.2v-5.3l-.3-.5a1 1 0 0 0-.4-.4h-.6c-.2 0-.5 0-.8.2l-.8.9v5l-.1.1-.2.1-.3.1a5.2 5.2 0 0 1-1.3 0l-.2-.2V69l.1-.1h.3a3.7 3.7 0 0 1 1.2 0l.1.1v1l1.3-1c.4-.2.9-.3 1.4-.3.5 0 .9 0 1.3.2l.8.7.5 1 .1 1.4v4.7Z"/><path fill="#FF0084" d="m368.2 73.6-.1 1a2.8 2.8 0 0 1-1.2 1.5 4 4 0 0 1-.8.4c-.3.2-.7.2-1 .3h-4.2l-.4-.1-.2-.5v-9.6c0-.2 0-.4.2-.5l.5-.1h2.7l1.7.1 1.2.5.7.9a2.7 2.7 0 0 1 .2 2 2.3 2.3 0 0 1-.8 1.1l-.7.4c.4 0 .6.1.9.3a2.4 2.4 0 0 1 1.1 1.3c.2.3.2.6.2 1Zm-2.9-4.6v-.6a1 1 0 0 0-.4-.4l-.5-.3a3 3 0 0 0-.8 0h-1.1v2.7h2l.5-.4.3-.4V69Zm.6 4.7-.1-.7-.4-.5-.6-.3-1-.1h-1.3v3H364.9c.2 0 .4-.2.5-.3l.4-.5.1-.6Zm10.4 3-.4.2h-1.1l-.2-.1V76l-1.1.8a3 3 0 0 1-1.4.3l-1-.2-1-.5-.5-.7-.2-1c0-.5.1-1 .3-1.2.1-.4.4-.6.7-.8l1.3-.5a9 9 0 0 1 1.8-.2h.7v-1a1 1 0 0 0-.3-.5 1 1 0 0 0-.4-.2l-.7-.1-1 .1a5.4 5.4 0 0 0-1.2.5l-.4.1h-.2v-.2l-.1-.3a2.2 2.2 0 0 1 0-.7l.1-.3.4-.3.7-.2a6.1 6.1 0 0 1 3.4-.2c.4.2.7.3 1 .6.3.2.5.5.6.9l.2 1.3v5.1Zm-2.1-3.3H372.5l-.6.3a1 1 0 0 0-.3.3l-.1.5c0 .4 0 .6.3.8.2.2.5.3.8.3.3 0 .6-.1.8-.3l.8-.6v-1.3Zm11.8-.7-.2 1.8-.7 1.4a2.8 2.8 0 0 1-2.4 1.2l-.7-.1-.6-.2-.6-.5a6 6 0 0 1-.6-.5v.9l-.2.1-.3.1a4.4 4.4 0 0 1-1.1 0l-.2-.2V65.3h.2l.4-.2a4.3 4.3 0 0 1 1.3.1l.2.1v4.3a4.5 4.5 0 0 1 1.2-.8 2.7 2.7 0 0 1 1.2-.2c.6 0 1 0 1.4.3.4.2.7.5 1 1l.5 1.2.2 1.6Zm-2.2.2v-1l-.3-.8-.5-.5-.7-.2h-.4c-.2 0-.3.2-.4.3-.2 0-.3.2-.5.3l-.5.6V74l.9.8c.3.2.5.3.8.3.3 0 .6 0 .7-.2l.5-.5.3-.8V73Zm8.1 4-.9 2.6c0 .2-.2.3-.4.3a4 4 0 0 1-1 .1 4 4 0 0 1-.5 0l-.3-.1-.1-.2v-.2l1-2.5-.2-.2-.1-.2-2.6-7V69l.3-.2h.7a9.3 9.3 0 0 1 .9 0l.2.2v.3l1.8 5 1.7-5 .1-.3.3-.2h1.2l.4.2.1.2v.4l-2.6 7.4Z"/><path fill="#005FDF" fill-rule="evenodd" d="M353 85.6c.8-.7 3.4-3 3.6-4-2-.7-2.3.2-3.6 1.4-4.5 4-8.1 1.8-11.7.6 1.3 0 2.7.7 4.3.4a3.6 3.6 0 0 0 2.6-2.4c-3.3-.2-3.9-.8-6.4-2.6-2-1.6-4.8-1.2-7.2-1.6-9.3-1.6-7.5-10.3-5.9-14.3-5.6 7.2-2.6 21.3 8.4 25.6 5.5 2 11.4.6 15.9-3.1Z" clip-rule="evenodd"/><path fill="#FF0084" fill-rule="evenodd" d="M331.7 70.2c1 .7 1.5.4 1.8 1.7.4 2 1.3 3 3.3 3.5 2.8.5 6.3-1.3 6.9-4.2-1.1 1.4-3.2 3.2-5.2 3a4.8 4.8 0 0 1-3.8-3.2c1 .5 1.8 0 2-.7-1-.1-1.9 1-3.8-1-3.8-3.8-1.2-9.2 2.7-11 3.3-1.4 7.1.1 8.5 3.4 1 2.3-.1 4.3.3 6.4 5.2.7 9.6 3.6 11.3 8.6-2-1.6-4-2-5.7-1.3-.3-1.6-.9-2.8-2.4-3.5 1 1 1.7 2.9.3 3.8-1.2.7-2.9.7-4.8.2.7 1.3 2.3 1.8 4.4 1.9-.3.6-.1 2.4 1 3.3 1 .8 2.6 1.3 5.2-.7-1.5.6-3.6 1-4.5-.7-.7-1.2-.2-2.4.8-3 1.8-1.3 4.4.1 6.1.7-.1-6.4-4.4-10.5-10.6-11.2 2-8.9-4-11.8-9.2-10.6a9 9 0 0 0-7.1 7c-.6 2.8.2 5.8 2.5 7.6Zm7-.7c1 .7 1.5.2 1.8-.8l-1.8.8Z" clip-rule="evenodd"/></svg>