<svg xmlns="http://www.w3.org/2000/svg" width="628" height="549" fill="none"><path fill="#005FDF" fill-opacity=".1" d="M501.2 565.7c-133.2-6.4-215.2-7.6-379.7-8.4-1.5.2-3-.7-4.4-1.1-7.6-2.2-14.5-5-21-8.3a59 59 0 0 1-13.8-9.9 46.4 46.4 0 0 1-14-26.9h-.1a59.5 59.5 0 0 0 2.3 23.3c3.1 12.1 12.1 19.4 23.5 23.6 1.4.5 2.7 1 4.1 1.3l4.2 1.2a118.7 118.7 0 0 0 18 3.3c2 0 4 .5 6 .6l20 .7c.4 0 .5 0 .6-.3v-.1h-.1l-.1-.2v-.2l6.6 2.1c-1 .3-1.9.5-2.8.5l-2.5-.1c-10.4.5-20.7.2-30.7-.9a117 117 0 0 1-22.5-4.8l-4-1.8c-4.2-1.8-8-4-11.3-6.7a33.7 33.7 0 0 1-11.3-17.7 81.6 81.6 0 0 1-1.4-31.3c.3-2.3.4-4.7.4-7l.1-12.9c.3-10.2.2-20.6-.3-30-.3-4.7-.8-9.6-1.7-14.8-1-5.7-2.7-11.7-5.3-17.8-.7-1.6-1.5-2.8-2.4-3.8-5.6-6-12.3-11.2-18.8-16-3-2.1-5.9-4.4-8.8-6.7A88.1 88.1 0 0 1 13.7 379 59.7 59.7 0 0 1 1 350a75.3 75.3 0 0 1-.2-22.8c.6-4.3 1.4-8.9 2.6-13a101.5 101.5 0 0 1 22.2-39.7c1.5-1.8 2.8-3.6 4-5.6 5.8-9 12.9-17.1 21.4-24.4 12.8-11 27.3-20.8 37.4-33.5 2.6-3.2 4.3-7.6 6-11.5.7-1.8 1.3-3.5 1.7-5l1.6-5.2a79.5 79.5 0 0 0 2.9-11.2c1.4-7.8 2.6-16.3 3.3-25.4a943.8 943.8 0 0 0 2-24.8c.3-4.2.8-8.5 1.3-13a143 143 0 0 1 8-32.8 142.9 142.9 0 0 1 30.5-46.8c9.2-9.5 19.8-17.2 31.6-23.3A99.4 99.4 0 0 1 220.6.9 141.5 141.5 0 0 1 251 3.5c1.6.5 3.3.5 4.9 1l2.7.8 8.3 2.8a127.7 127.7 0 0 1 36.3 19.6A177 177 0 0 1 317.6 40c3.7 3.7 7.7 8 12 13a76.8 76.8 0 0 0 9.3 8.7 129.3 129.3 0 0 0 44.9 13.6 220.2 220.2 0 0 0 39 1.3l27.3-.6c4.6 0 11.5 0 20.6.4a149 149 0 0 1 24 2.7c2.7.6 5 1 7.8 1a160.4 160.4 0 0 1 33.9 3.2 102.7 102.7 0 0 1 38.8 20 123.2 123.2 0 0 1 34.3 49 125.6 125.6 0 0 1 8.5 56.5 82.1 82.1 0 0 1-9.5 32.4 169.6 169.6 0 0 1-14 21.8c-3.2 6-6.1 12.1-9 18-5.2 11.3-9 23.5-9.8 35.7a103.5 103.5 0 0 0 17.6 65.2c4.8 7.1 9.6 14.3 14.7 21.3a89.3 89.3 0 0 1 12.7 24A55.2 55.2 0 0 1 624 438a104.7 104.7 0 0 1 1 50 92 92 0 0 1-29.2 50.2 85.7 85.7 0 0 1-26.5 15.8c-7.2 2.7-14 4.6-20.2 5.5-8.7 1.3-17.3 1.8-26 2.2-2.2 0-4.4.3-6.6.8a357.7 357.7 0 0 1-15.3 3.2ZM274 13.5c-4.5-2-9.3-4.1-14-5.4L251.8 6a96.2 96.2 0 0 0-47.5-1.1 116.6 116.6 0 0 0-64.9 40.6 139.7 139.7 0 0 0-23.2 39.7c-2.1 5.6-3.8 11.8-5 17.7a227 227 0 0 0-3.3 22.9c-.3 2.6-.2 5.2-.5 7.7l-.4 5.5c-.5 7.3-1.1 14.7-1.8 22-.7 7-2 14-3.3 20.8a123.5 123.5 0 0 1-3.3 12.5h.1a.3.3 0 0 0 .3 0c5-11.6 8.2-24.3 10.3-36.6l4.3-25.7c.7-4.4 1.6-9 2.7-13.4 7-29.9 22.5-57.3 45.9-76.7A110 110 0 0 1 232 16.4c12.7 0 25.4 2.6 37.4 7.4 8.1 3.2 16.9 7.6 26.3 13l20.9 12.5 11.9 7c2 1 2.1.7.6-.8-1.7-1.7-3.4-3.5-5.1-5.5a152.1 152.1 0 0 0-50-36.5ZM611.8 166a117 117 0 0 0-53.3-71.5 101.4 101.4 0 0 0-37.8-11.8 104.2 104.2 0 0 0-12.4-.6c-.3.2-.3.3 0 .4 8 2.4 15.5 5.7 22.7 9.8a167 167 0 0 1 50.3 43.2 131 131 0 0 1 27.3 62.3 93 93 0 0 1-8 51.9h.5l5-8.7c4.1-7.6 7-15.4 8.5-23.5 2-10.1 2.3-20.6 1-31.6-.8-7-2-13.6-3.8-20ZM25 387c3 3 6.1 5.7 9.6 8.2 3.3 2.4 6.5 5.2 9.7 7.6 3 2.1 5.6 4.4 8.1 6.7 1.8 1.6 2 1.4.7-.6-3.3-4.8-6.7-9.4-10.5-14-13-15.8-27.2-31-31.7-51.2a84.3 84.3 0 0 1 5.6-50 164.8 164.8 0 0 1 4-9.5c0-.1 0-.1-.1 0-1.7 2.5-3.4 5-4.8 7.5a96 96 0 0 0-12.5 33c-2.7 15-.6 31.9 7.2 45.4 2.7 4.7 6.6 9.4 11.5 14.2 1 1 2.2 1.7 3.2 2.7Zm590.3 32.7a28.5 28.5 0 0 1-1.3-2.4h-.2c-.2 0-.2.2-.2.4l1.1 3.5c1 2.7 1.5 5.2 2 7.9.8 3.4 1.1 6.7 1.6 10.1l.5 5.8c.4 8 0 16.2-1.4 24.2a133.3 133.3 0 0 1-15 43.2c-3.5 6.2-7.7 12-12.7 17.2-2 2.1-4.3 3.9-6.5 5.8a107 107 0 0 1-27.2 15.7 208.6 208.6 0 0 1-23.7 7.8v.1a109.8 109.8 0 0 0 32.2-5.8 88.8 88.8 0 0 0 59.7-73.3 132.2 132.2 0 0 0 .6-25.2 102.2 102.2 0 0 0-9.5-35Z"/><path fill="#45241F" d="M443.5 235.2c-1.7 1-3.4 1.7-5.1 2a70.9 70.9 0 0 0 7.3-14.8c.5-.4 1.3-.4 1.8-.7a25 25 0 0 0 13-30.2c-1-3.2-3.2-6.9-6.5-8-3.2-1-7.2.5-9.7 2.6-7.5 6.4-7.9 20.6-7.2 29.5a.5.5 0 0 1-.3.5c-2.2.9-6.6 1.4-6.5-2.3 0-.7 0-2-.3-3.9l.2-4.1a90.7 90.7 0 0 0-3.3-22.6c-2-7.3-5.3-13-12.5-16.2a151 151 0 0 0-7.9-3.2A126.4 126.4 0 0 1 374 145a34.2 34.2 0 0 1-4.5-4.3.8.8 0 0 0-.7 0l-.3.2c-3 3.2-5.4 6.4-7.2 9.8a61 61 0 0 0-6 16.7 93 93 0 0 0-.7 32l-3-2.8a40.4 40.4 0 0 1-13-26c-.5-4.8-.6-9.3-.2-13.4.3-3.6.4-6.1.2-7.6-.3-2.4-.7-4.8-1.4-7-1-3.3-2-6.8-3.4-10a47.2 47.2 0 0 1-4.3-15c-1-10 3.3-20.4 11.9-26.2a28.7 28.7 0 0 1 32.7.7l6.4 4.8c7 5.4 17.3 3.7 25 .8l15.6-6c15.4-5.9 34.5-3.2 43.2 12 2.3 3.9 3.6 8.4 5.5 12.5a9 9 0 0 0 1.6 2.5c3 3.2 6.2 6.8 10 9.1 3 1.9 6.1 3.9 8.8 6.3 7.1 6.5 7.3 15.6 4.1 24.2-1.9 5.2-4.4 10.2-7.5 14.8l-2.9 5.2c-1.4 3-2.9 6-4.6 8.9l-13.9 24.4c-2 3.5-4.6 7.1-7.1 10.4a52 52 0 0 1-14.7 13.1ZM333 122.6c-.5-9.2 2.5-19 9.2-25.7 7.2-7.2 15.7-8.7 25.5-4.5a126.2 126.2 0 0 1 7.8 3.5c-3.3-3-7-5-11-6.2a25.4 25.4 0 0 0-30.8 14.2 29 29 0 0 0-1.1 19.7c.3 1 .4 1 .4 0v-1Zm117-29a37 37 0 0 0-27.4-.1 206.4 206.4 0 0 0-9.1 3.7c12.4-3.3 28-6.5 39.7.6a38.2 38.2 0 0 1 11.7 12A26.8 26.8 0 0 0 450 93.6Zm18.5 67.2c.4-3.6.2-7-.6-10.2-1.2-4.9-5-8.3-7.4-12.5-3.9-6.5.2-15.4-6-21.6-6.3-6.2-13.6-7.3-22.2-7.4-8.6-.2-17 .5-25.1 2.3l-7 1.4a100.8 100.8 0 0 1-20.3 2c10.4 1 19.9-.7 30.5-2.4a115 115 0 0 1 25.7-1.1c6.6.4 12.2 1.9 17 6.7 2.7 2.7 3.4 6.2 3.5 10 .2 4.7.7 8.9 3.7 12.8 3 3.8 6.5 7.1 7.4 12a56.9 56.9 0 0 1 .8 9.6v-1.6Zm25.8-11.6c.5-7-3.2-12.4-9-16.3-.2-.1-.3 0-.2.1l.2.3.3.4c6.5 9.2 7 19.1 4 30-.2.6-.1.6.2.1 2.5-4.5 4-9.4 4.4-14.6Z"/><path fill="#E5775C" d="M468.4 160.8v1.6a57 57 0 0 0-.8-9.5c-.9-5-4.5-8.3-7.4-12.1-3-4-3.5-8-3.7-12.8 0-3.8-.8-7.3-3.6-10a24.2 24.2 0 0 0-17-6.7c-9.3-.6-17.8-.2-25.6 1-10.6 1.8-20 3.6-30.5 2.5-.5-.1-.5-.1 0-.1a100.7 100.7 0 0 0 27.3-3.3c8.1-1.8 16.5-2.5 25.1-2.3 8.6.1 15.9 1.2 22.1 7.4 6.3 6.2 2.2 15 6 21.6 2.5 4.2 6.3 7.6 7.5 12.5.8 3.1 1 6.6.6 10.2ZM430 210l-2.5-11.3c-1-4.6-2.5-8.5-4-12.8-2.7-6.8-6.2-12.6-13.3-15.3-4.8-1.8-10.7-3-14.5-4a127.9 127.9 0 0 1-34.5-15.8 47.9 47.9 0 0 1 7.5-10 .9.9 0 0 1 .7 0l.2.2c1.3 1.5 2.8 3 4.3 4.2 9.8 7.7 20.9 14 32.6 18.6 2.8 1 5.5 2.1 7.9 3.2 7.2 3.3 10.5 9 12.5 16.2a90.7 90.7 0 0 1 3 26.7Z"/><path fill="#F9A17B" d="M361.2 150.8c.7.2 1.3.6 2 1a127.9 127.9 0 0 0 32.6 14.7c3.7 1.2 9.6 2.3 14.4 4.1 7 2.7 10.6 8.5 13.2 15.3 1.6 4.3 3 8.2 4 12.8 1 3.7 1.8 7.5 2.6 11.2l.3 3.9c0 3.7 4.3 3.2 6.5 2.3a.5.5 0 0 0 .3-.5c-.7-9-.3-23.1 7.2-29.5 2.5-2.1 6.5-3.7 9.7-2.6 3.3 1.1 5.5 4.8 6.4 8a25 25 0 0 1-12.9 30.2l-1.8.7a37.1 37.1 0 0 1-54 35.7c-.2 0-.4 0-.6.2-.1-.3-.3-.5-.4-.5a42.5 42.5 0 0 1-18.3-14.4l-.2.1c0-.3 0-.5-.2-.7a91.5 91.5 0 0 1-16.4-36.7l-.3-.4c.3-.6.3-1.4-.2-2.4l-.4-2.2c0-.5 0-1-.2-1.7a93 93 0 0 1 .7-31.9 61 61 0 0 1 6-16.7Z"/><path fill="#E5775C" d="m443.5 235.2-.6 8.9-2.8 3.6a48.8 48.8 0 0 1-33.8 19.6c-5.3.5-10.7-.3-16.3-2.1a.5.5 0 0 1-.3-.5l-.1-.7 1.5-5.7c.2-.2.4-.2.6-.1 12.6 3.9 25.4.4 35.4-7.9 4.5-3.8 8.3-8.2 11.3-13.1 1.7-.3 3.4-1 5.1-2Z"/><path fill="#F9A17B" d="M443 244v8.6a90 90 0 0 0 1 12.8 30 30 0 0 1 1.6 11.4 17 17 0 0 1-6 11.7 24 24 0 0 1-7 4.4c-5 2-10.2 3-16 3-8.6-.1-19-2.3-24.7-8.7-3.6-4-5.1-8.8-4.5-14.4.1-1 .4-2.3.8-3.7l.9-3.8.5-1.3v.7c0 .3.2.4.4.5 5.6 1.8 11 2.6 16.3 2a48.8 48.8 0 0 0 33.8-19.5l2.8-3.6Z"/><path fill="#005FDF" d="M444.2 264.5c3.7.4 7.1 1.1 10.4 2.1.6 3.8.8 7 .4 9.6a34 34 0 0 1-27.2 27.6 60.4 60.4 0 0 1-25.9 0c-9.6-2.2-17.5-9.3-19.6-18.8-1.2-5-.4-10.3 2-14.6.7-1.4 1.8-3 3.1-4.7l1.7-.4-1 3.8-.7 3.7c-.6 5.6.9 10.4 4.5 14.4 5.8 6.4 16 8.6 24.8 8.6 5.7 0 11-1 15.9-3 2.6-1 5-2.5 7-4.3a17 17 0 0 0 6-11.7 30 30 0 0 0-1.5-11.4v-.9Z"/><path fill="#4687E6" d="M387.4 265.7a39 39 0 0 0-3.1 4.7 20.8 20.8 0 0 0-2 14.6c2.1 9.5 10 16.6 19.6 18.7 8.7 1.9 17.3 2 25.9.1a34 34 0 0 0 27.2-27.6c.4-2.6.2-5.8-.4-9.6 5.4 1.5 10.1 3.1 14.2 4.8 11.6 4.6 19.3 7.7 23.3 9.1 3 1.1 5.6 2.4 8 3.8-1 .3-2.5.5-4.4.5a14 14 0 0 0-6.2 1.9c-5.4 2.8-9.4 7.9-12.4 13.2a124.3 124.3 0 0 0-11.8 35.2 342.6 342.6 0 0 0-5.2 35.8 851.6 851.6 0 0 0-3.6 66.7c-13 2.5-25.2 6.1-38.5 10.5-7.5 2.4-20.5 7-38.9 13.5a76 76 0 0 0-3-14.7c-4.1-13.3-7.8-25-11.2-35.1-5.8-17.5-12-34.9-18.8-52a30.8 30.8 0 0 0-1.2-21.1c-1.9-5-3.1-10-3.4-15.3a68.2 68.2 0 0 0-2.5-15.3c-.4-1.4-1-2.6-1.7-3.8 1.4-4.5 2.5-9 4.9-13 .6-1.2 1.6-2.5 3-4l3.3-3.6 1.6-.5c.6-.1 1-.4 1.5-.7 2.4-1.6 4.9-3 7.5-4.3a335 335 0 0 1 28.3-12.5Z"/><path fill="#005FDF" d="m348.5 283.7-3.4 3.6a25.7 25.7 0 0 0-3 4c-2.3 4-3.4 8.5-4.8 13l-1.4.2c-5 1.5-9.9 1.5-14.8-.1-2-.7-4-1.6-6-2.2-.5-.2-1-.5-1.6-1 .3.2.7.2 1 0 9-6.9 18.3-12.6 29-16.3 1.6-.5 3.2-.9 5-1.2ZM500 284.3l4 1.6 4 1.6c14 7.3 17.3 23.3 18.6 37.7 1.8 19.7 1 39.7-1.5 59.6a415 415 0 0 1-18 76.5 41.8 41.8 0 0 1-10.4 18c-1 1-2.4 2.2-2.8 3.5h-.4c-3.6 3.7-7.8 6.2-12.6 7.6-2.4.7-5 1.4-7.5 1.9-15.5 2.9-30.4 6.1-44.7 9.6l-42 10.5c-12.4 3.2-25 6-38 8.4-2.3.4-4.8.6-7.5.4a17.8 17.8 0 0 1-14.6-10.4 73 73 0 0 1 9.5-1.1c3-.2 5-1.6 6.2-4.2a18 18 0 0 0 1.5-8.1l6.6-2.3c6.7-2.3 13.9-5 19.5-9.2 8-5.9 10.2-14.8 9.2-24.3 18.4-6.6 31.4-11 39-13.5a319.8 319.8 0 0 1 38.6-10.8c.3-22.3 1.4-44.5 3.4-66.4 1-11.7 2.8-23.6 5.2-35.8 2.4-12 6-24.8 11.8-35.2 3-5.3 7-10.4 12.4-13.2a14 14 0 0 1 6.2-1.9c1.9 0 3.3-.2 4.4-.5Z"/><path fill="#4687E6" d="m493.9 482.8.3 1a6020.3 6020.3 0 0 0 2.3 40c.4 3.8 0 7.4-1 11-1.7 1.5-4 2.8-6.6 3.8-8.6 3.3-17 5.5-25 6.6-6.5 1-12.8 1.5-18.8 1.7-18.4.8-37.4.7-57-.3-17.5-1-35.2-2.7-51.3-10l-9.7-4.8c-2.2-1.2-4-2.9-5.6-5.1a207 207 0 0 1 1.6-13.2l.3-1.3 3.2-1.4c2.9 5.8 8 9.9 14.6 10.4 2.7.2 5.2 0 7.6-.4 12.8-2.4 25.5-5.2 38-8.4 13.4-3.4 27.4-7 41.9-10.5 14.3-3.5 29.2-6.7 44.7-9.6 2.5-.5 5-1.2 7.5-2 4.8-1.3 9-3.8 12.6-7.4.1-.1.3-.2.4-.1Z"/><path fill="#E5775C" d="M343.8 497.4c0 3-.4 5.7-1.5 8.1a6.7 6.7 0 0 1-6.2 4.2c-3.1.1-6.3.5-9.5 1l-3.2 1.5-7.3 3.8-3.6 1.8a21.6 21.6 0 0 1-8.5 2.4c-12 .8-23.6-1-34.6-5.2-1.5-.5-3.6-1.2-4.6-2.4-1-1.2-1-2.4 0-3.6 1.6-.7 2.8-1 3.4-.8 1.8.4 3.5.7 5.3.7.4 0 .5 0 .4-.4v-.2c.1-.2.3-.3.5-.3l13.5-.6c19-1 37.7-4.4 55.9-10Z"/><path fill="#000645" d="M321.5 526.7c1.5 2.2 3.4 4 5.6 5 3.3 1.8 6.5 3.4 9.7 4.9 16 7.3 33.8 9 51.4 10a619 619 0 0 0 57 .3c6-.2 12.2-.8 18.7-1.7 8-1.1 16.4-3.3 25-6.6 2.7-1 4.9-2.3 6.6-3.8 2.7 10.4 3.8 18.5 5.7 31-6 1.1-12 2.4-18 3.7a216 216 0 0 0-27.8 8c-12.7 4.5-25.8 10.7-38.5 16.2a279.2 279.2 0 0 1-80.7 20.9c-.2-6.2-.5-12.3-1-18.4-.8-11.6-2.5-23.3-5.2-35-.6-3-1.6-6.5-3-10.5-2-6.3-4.3-12.9-6.7-19.9v-1l1.2-3.1Z"/><path fill="#5D3826" d="m354.7 201 .4 2.3a75.2 75.2 0 0 0-18.7-3.1h.1a234 234 0 0 1 18.8 5.5l.3.4.2.4c2.8 13 8.1 25.7 16.2 36.3l.2.7c-3 10.2 2 17.6 8.7 24.6a334 334 0 0 0-21.8 10c-2.6 1.4-5 2.8-7.5 4.4-.4.3-1 .6-1.5.7l-1.6.5c-1.8.3-3.4.7-5 1.2a101.7 101.7 0 0 0-29 16.3c-.3.2-.7.2-1 0l-2.1-.8.4-5.6c.2-2 .2-4 0-5.8-.6-7-2.2-14.3-4.7-21.5a30 30 0 0 0-18.8-19.8c-4.4-1.4-9.5-2.6-13.1-5a14.6 14.6 0 0 1-5.7-7.8c5.3-2.8 8.9-7.1 10.8-13a26 26 0 0 0-.6-18c-2.5-6.3-7.9-11.3-14.8-6.7a14.2 14.2 0 0 0-6.2 10.2c-.4 2.5-.8 3-1.3 1.2a13 13 0 0 0-6.1-7.3 27.8 27.8 0 0 0-8-3.2l-11.2-2.2c-10.2-2-20.3-4.8-30.4-8.4a115 115 0 0 1-14.2-6.3 30 30 0 0 1-10.6-9.5c0-.2-.1-.4-.3-.5-.5-.2-1-.3-1.7-.3-8 .6-15.5 7.9-17 15.6-1.1 5.3-.1 10.7 2 15.6a75.5 75.5 0 0 0 13.7 19.4c0 .2.2.3.3 0 .2-.3.2-.6.2-1 2.3 9.8 6 19 11.1 27.7l-.4-.3a.7.7 0 0 0-.6 0 .7.7 0 0 0-.4.6 51 51 0 0 1-.6 6.5l-1.8 11.6c-1.4 8.6-.8 17.2 4.8 24.3a65 65 0 0 1 3.6 5.2l-.4.3c-1.2.6-2 1-2.7 1.1l-19.4 4A58.2 58.2 0 0 1 157 303v.4a24 24 0 0 1 4.4 14.2c0 .6-.2 1-.4 1.4l-2.3 4.4c-.1.2-.2.3-.4.2l-.3-.1a1 1 0 0 0-.5-.2c-.7-.1-1.3 0-1.9.4a44 44 0 0 0-9.4 8c-.2-5 .7-9.7 2.8-14l2.8-5.7c.1-.3.2-.8.1-1.7a30 30 0 0 0-3-12c-1.2-2.5-2.9-5.3-5-8.3a34.5 34.5 0 0 1-5.3-11.8c-2.8-11.6 4-18.5 11-26.1 2.4-2.6 3.9-5.7 5.5-8.8 3.7-6.6 6.2-14.6 2.5-21.4-1.1-2-2.7-4-4.5-6-3-3-5.7-5.8-8.1-8.5a30.9 30.9 0 0 1 8.2-46.6c3.4-2.2 6.6-4.9 10.4-6.4 5.7-2.2 11-3.9 14.5-9.2 3-4.5 6-9.4 8-14.5 5.7-14.8 21-23.2 36.4-25.8a84.6 84.6 0 0 1 43.6 3.8c17.8 6.4 34.3 21.6 38.3 40.8.4 1.6.8 3.3 1.5 5 1 2.7 1.6 5.5 1.9 8.5.8 10 2.6 20.2 10 27.3 2.5 2.5 5.7 4.6 9.7 6.5 1 .5 2 .7 3.2.8 8.3.4 16.2 1.1 24 3.5Zm-84.3-88.3c-20.5-9.2-47.2-10.2-67.3 1.4 0 .2 0 .2.1.1 4.2-1.8 8.3-3 12.4-3.8 31.6-5.4 66 6.7 84.7 33.5.8 1.2 1 1.1.4-.3a59 59 0 0 0-30.3-30.9Zm82.1 145.4c2-4.2 3.2-8 2.8-12.8-1.3-14.4-21.2-17.2-32-17.1h-7.4c-11 .3-16.2-6.4-18-16.3-.7-4-1.2-8.3-1.4-12.8-.3-7.6-.9-14-1.7-19.3a56.4 56.4 0 0 0-12.4-27.9 62.8 62.8 0 0 0-30.4-19.8 71.2 71.2 0 0 0-31.8-1.8 39.5 39.5 0 0 0-13.6 5 50.6 50.6 0 0 1 24.6-5A61.6 61.6 0 0 1 275 147a55.8 55.8 0 0 1 18.4 37.6l1.6 20.9c.8 11.8 5.3 24.5 19.6 24.4l11-.1c10.6-.1 28.4 3 28.8 17.2 0 2.3-.3 4.4-1.1 6.4-1 2.4-1.8 4.8-2.6 7.3a29.9 29.9 0 0 0-.8 14.9v-.1c-.7-6 .1-12 2.6-17.5Zm-205.8-51.8 5.2 5.5c1 .9 1 .8.3-.2a99 99 0 0 1-4-6.1 37 37 0 0 1-.5-37.2c1-1.6.8-1.7-.4-.3-5 5.5-7.6 12-7.7 19.6 0 7.3 2.3 13.2 7.1 18.7Zm-.2 71.6c-3-6.6-2.4-12.7.3-19.1.3-.8.2-.8-.3-.3a38.8 38.8 0 0 0-3.1 4c-6.9 10-2.1 20.7 4 29.3a32.4 32.4 0 0 1 6.4 15.4.2.2 0 0 0 .1-.1c3.1-7.1 1.6-13.8-2.4-20-2-3.1-3.6-6.2-5-9.2Z"/><path fill="#E5775C" d="M352.5 258.1a31.2 31.2 0 0 0-2.6 17.6h-.1c-1-5.2-.6-10.1.9-14.9l2.6-7.3c.8-2 1.1-4.1 1-6.4-.3-14.1-18.1-17.3-28.8-17.2h-11c-14.2.2-18.7-12.5-19.5-24.3l-1.6-20.9A55.8 55.8 0 0 0 275 147a61.6 61.6 0 0 0-34.1-16 94 94 0 0 0-9.7-.8 50.5 50.5 0 0 0-24.6 5c4.2-2.5 8.8-4.1 13.6-5 11.1-1.7 21.7-1 31.8 2a62.8 62.8 0 0 1 30.4 19.7c6.6 8 10.7 17.3 12.4 27.9.8 5.3 1.4 11.7 1.7 19.3.2 4.5.7 8.8 1.4 12.8 1.8 10 7 16.6 18 16.4l7.4-.1c10.8-.1 30.7 2.7 32 17a24 24 0 0 1-2.8 13Z"/><path fill="#45241F" d="M177 172c-2.3 5-4 9.8-4.7 14.6a83.1 83.1 0 0 0 1.8 34c0 .3 0 .6-.2.9-.1.3-.2.2-.3 0l-.2-.3a1 1 0 0 0-.3-.2c-.5-.1-.8-.4-.9-.8a1 1 0 0 0-.3-.4l-1.2-1.3c-5-6-8.5-11.5-10.8-16.4a25.9 25.9 0 0 1-2-15.6c1.5-7.7 9-15 17-15.6.6 0 1.2.1 1.7.3.2.1.3.3.3.5v.3Z"/><path fill="#E5775C" d="M177 172a30 30 0 0 0 10.5 9.2c4.8 2.5 9.5 4.6 14.2 6.3 10 3.6 20.2 6.4 30.4 8.4l11.3 2.2c2.6.6 5.2 1.6 7.9 3.2 3 1.7 5 4.1 6.1 7.3-.4-.3-1.2-1-2.3-2.2-3.7-3.7-10.4-4.5-15.6-4.7-6-.2-12.2-.6-18.7-1a170 170 0 0 1-35.5-6.4 37.4 37.4 0 0 1-13-7.7c.8-4.8 2.4-9.6 4.7-14.6Z"/><path fill="#F9A17B" d="M172.3 186.6a33.5 33.5 0 0 0 13 7.7 170 170 0 0 0 35.4 6.4c6.6.4 12.8.8 18.8 1 5.2.2 11.9 1 15.6 4.7a40 40 0 0 0 2.3 2.2c.5 1.7 1 1.3 1.3-1.2l.3-1.5c1-3.7 3-6.6 6-8.7 6.8-4.6 12.2.4 14.7 6.7a26 26 0 0 1 .6 18 21.4 21.4 0 0 1-10.8 13c-.7 1.6-1.4 3.3-1.8 5a74.1 74.1 0 0 1-2.8 9.4c-.4.3-.7.7-.9 1.2a44.5 44.5 0 0 1-28.6 27.3 35 35 0 0 1-18.9-.3c-2.5-1-4.6-2-6.4-3-10.4-6-18.9-15.9-24.9-26.3a98.6 98.6 0 0 1-13-61.6Z"/><path fill="#45241F" d="M269.5 234.9c1.2 3.4 3 6 5.7 7.7 3.6 2.5 8.7 3.7 13.1 5.1a30 30 0 0 1 18.8 19.8 89.1 89.1 0 0 1 4.7 21.5 36 36 0 0 1 0 5.8c0 1.8-.2 3.7-.4 5.6-2-.9-4-1.6-5.8-2l-3.6-1.2-3.4-1.4-2.8-1-7.2-2.9a331 331 0 0 1-23.1-9.4.7.7 0 0 1-.5-.6l-.4-3.1c-.5-5.3-.6-10.7-.4-16.2l.7-13.3 1.5-4.6 1.3-4.7c.4-1.8 1-3.5 1.8-5.1ZM185.2 248.2a71.3 71.3 0 0 0 25 26.3c1.7 1 3.8 2 6.3 3l-1.7 5.9-.5 1.9a1.4 1.4 0 0 1-.8.8l-16.2 6.4-6 2.8-1.5.8a65 65 0 0 0-3.6-5.2c-5.6-7.1-6.2-15.7-4.8-24.3l1.8-11.6a51 51 0 0 0 .7-6.8.7.7 0 0 1 1-.3l.3.3Z"/><path fill="#E5775C" d="m264.9 249.3-.7 13.3c-.5 0-.9.3-1.3 1l-.7 1.5a46.9 46.9 0 0 1-23.4 18.8 32.8 32.8 0 0 1-24-.5l1.7-5.9a35 35 0 0 0 18.9.3 44.5 44.5 0 0 0 28.6-27.3c.2-.5.5-.9.9-1.2Z"/><path fill="#F9A17B" d="M264.2 262.6a139.2 139.2 0 0 0 .8 19.3c0 .3.2.5.5.6a331 331 0 0 0 23.1 9.4 1 1 0 0 0-.5.2 40 40 0 0 1-13 20.7c-12.7 11.3-32.6 18.4-49.5 13.9a39 39 0 0 1-22.8-16.4 30.6 30.6 0 0 1-5-14l-.5-3.8 16.2-6.4a1.4 1.4 0 0 0 .8-.8l.5-2a32.8 32.8 0 0 0 24 .5 46.9 46.9 0 0 0 24.1-20.1c.4-.8.8-1.2 1.3-1.1ZM326.1 314.8c2.7 3.5 5 7.2 6.7 11 2.1 4.6 4.2 9.8 6.2 15.3 2.1 6.3 4.5 12.5 7.1 18.8a1013.8 1013.8 0 0 1 30 87c1.5 5 2.5 9.9 3 14.7 1 9.5-1.2 18.4-9.2 24.3a72.6 72.6 0 0 1-19.5 9.2l-6.6 2.3c-18.2 5.6-36.9 9-55.9 10l-13.5.6c-.2 0-.4.1-.4.3v.2c0 .3-.1.5-.5.4-1.8 0-3.5-.3-5.3-.7-.6-.1-1.8.1-3.4.8.2-.4 0-.7-.7-.9a32 32 0 0 0 7.3-12.1 40.3 40.3 0 0 0 .3-25.3l27.7-9 9.7-2.8 13-3.3h.2a.2.2 0 0 0 0-.2v-.1c-3.4-9.3-7-18.6-11-27.8l-2-4.7c-2.2-4.4-3.7-8-4.7-10.6a31 31 0 0 1-1.4-6.2c-1.6-11-2-21.5-1.3-31.8.8-10.7 2.6-21.7 5.3-32.7.7-2.8 1.6-5.5 2.7-8.3 3-8 8.5-14 16.2-18.4ZM161 319l.3-.1a.5.5 0 0 1 .2.5c-.6 3.2-1.5 6.1-2.7 8.7a28 28 0 0 1-5.7 9.4c-2 2.2-2.8 5.3-.5 7.5a.3.3 0 0 0 .3 0h.2c1.3-2.3 2.8-4.3 4.6-6.2V349c0 .7.1 1.3.4 1.7.4.6 1 1 1.5 1.2 2.5 1.3 4.9 2.6 7.5 3.4 3 1 9 3 8.5 7.2-.3 2-2 2.6-3.8 2.5-5.5-.4-9.6-2-14.3-4.4-.3-.1-.5 0-.6.3 0 0 0 .3.3.6.9 1 1.5 2.2 1.8 3.4-2.7-1.9-5.6-3.7-8.7-5.3-5-2.6-10.6-4-16.5-4.2a84.6 84.6 0 0 1 12.4-23.7c3-3.3 6-6 9.4-8 .6-.4 1.2-.5 1.9-.4.2 0 .3 0 .5.2l.3.1c.2 0 .3 0 .4-.2l2.3-4.4Z"/><path fill="#E5775C" d="M158.8 328.1c.1 1 0 2-.4 3-.4.9-.6 1.6-.6 2.2v5.5a32.6 32.6 0 0 0-5 6.3.3.3 0 0 1-.2 0c-2.3-2.3-1.6-5.4.5-7.6a28 28 0 0 0 5.7-9.4Z"/><path fill="#FF0084" d="m298.6 295.8-2.8-1c-3.8 7.2-8.2 13.9-13.4 20a61.2 61.2 0 0 1-33.7 21 56 56 0 0 1-29.1-2c-7.2-2.5-13-6.4-17.2-11.6a49.2 49.2 0 0 1-11-26.9l-1.6.8-.4.3c.5 4.6 1.5 9 3.2 13.2 4 10 10.3 18.5 20 23.4a59.5 59.5 0 0 0 72.3-17.8 95.6 95.6 0 0 0 11.9-18.4c.3-.7.9-1 1.8-1ZM184.3 300a17 17 0 0 0 2.4-2.5l-19.4 4A58 58 0 0 1 157 303a.4.4 0 0 0 0 .4 24 24 0 0 1 4.4 14.2c0 .6-.2 1-.4 1.4l.3-.1a.5.5 0 0 1 .2.5 39 39 0 0 1-2.7 8.7c.1 1 0 2-.4 3s-.6 1.6-.6 2.2V349c0 .7 0 1.3.3 1.7.4.6 1 1 1.5 1.2l3.1-9c3.6-9 7-18 10.6-26.8 2-4.9 4.8-10.1 8.5-14l2.5-2.2ZM337.3 304.3c.7 1.2 1.3 2.4 1.7 3.8 1.3 5 2.2 9.7 2.5 15.3.3 5.3 1.5 10.4 3.4 15.3a30.8 30.8 0 0 1 1.2 21.2A359 359 0 0 1 339 341c-2-5.5-4-10.7-6.2-15.3-1.8-3.8-4-7.5-6.7-11 3.7-2.7 7-5.8 9.8-9.5.4-.6.4-.8 0-.8l1.4-.2ZM335.9 304.5ZM311.2 427.5l-2-4.7c-6 1-10.6 1.8-13.8 2.1-17.4 2-34.5.9-51.4-3.3l-11.8-3a64.4 64.4 0 0 0-16.5-2.2l3.6 2.4a618 618 0 0 1 13.4 7.7 77.6 77.6 0 0 1 29.4 31.8c12 .3 24 1.3 36 3 .5 0 .9.2 1.3.5l9.7-2.9c0-10.4.7-21 2.1-31.4Z"/><path fill="#F9A17B" d="M106.1 443.2c.5 0 .8.2 1 .4a5072 5072 0 0 0 20 28.8c1.2 1.6 2 3.3 3 5l.2.2.3.1 9.3.2c1.5-.2 2.7-.6 3.7-1.4 5.3-4 10.1-8 16.8-9 2.8-.5 5.5-.8 8.3-1.1 4.6-.5 9-1.9 13.3-3.3 2-.6 4.3-.5 4.4 2.3.2 5.7-8.1 8.7-12.5 9.4-2.4.3-5.8.7-8 2.1-1.8 1.2-1.4 3.1.3 4.1a39.3 39.3 0 0 0 21.7 1.6c3.6-1 7.2-2 10.8-3.2 2-.6 10.7-3.2 10 1.7-.2.9-.7 1.6-1.5 2.1l-.2.3v.2l.3.1c1.4-.3 2.7-.2 3.8.4 2.4 1.2 1.6 4.4 0 5.8-1 .7-2.1 1.4-3.5 1.8-6.7 2.2-13 4.5-19.7 5.8-1.1.2-1.1.3 0 .3 4.2.2 8.8-.6 12.9-1.9 2-.7 4.9-1.3 6.8-.6 1.4.4 1.4 2.2.5 3a9 9 0 0 1-3.1 2 100 100 0 0 1-13 4.2v.2h.1c2.1-.4 4.4-.6 6.8-.8 1-.1 2 0 2.8.5 1.5.8 1.6 2.5.6 3.8-.6.6-1.3 1.1-2.2 1.5l-6 2.1a86.7 86.7 0 0 1-31.5 3c-5.6-.5-9.8-3.1-14.5-5.9-4-2.3-8.1-4.1-12.4-5.5l-4.8-.9a37.7 37.7 0 0 1-29-18.4c-1.8-3-3-6.7-3.5-11-.8-7.3 1-15.3 4-22l3.7-8Z"/><path fill="#E5775C" d="M271.7 470.7a42.7 42.7 0 0 1-.3 25.3 32 32 0 0 1-7.3 12.1l-7.6-.1a32 32 0 0 0 11-18.3l.3-3.6a44.5 44.5 0 0 0-.6-13.7c0-.2.2-.3.4-.3l4-1.4Z"/><path fill="#FF66B5" fill-rule="evenodd" d="m295.8 294.7-7.2-2.8a1 1 0 0 0-.5.2 40 40 0 0 1-13 20.7c-12.7 11.3-32.6 18.4-49.5 13.9a39 39 0 0 1-22.8-16.4 30.6 30.6 0 0 1-5-14 202 202 0 0 0-.5-3.8l-6 2.8c1.1 10.3 4.8 19.3 11 27 4.4 5.1 10.1 9 17.3 11.5a56 56 0 0 0 29.1 2c13-2.5 25.2-11 33.7-21 5.2-6.1 9.6-12.8 13.4-20Zm6.2 2.5-3.4-1.4c-.9 0-1.5.3-1.8 1l-1 2c-3 5.9-6.7 11.3-11 16.4a59.5 59.5 0 0 1-72.3 17.8 43.4 43.4 0 0 1-19.9-23.4 48.4 48.4 0 0 1-3.2-13.2c-1.2.6-2 1-2.7 1.1-.8 1-1.5 1.7-2.4 2.4l-2.5 2.2a44.3 44.3 0 0 0-8.5 14L162.7 343c-1.1 3-2.2 6-3.1 8.9 2.5 1.3 4.9 2.6 7.5 3.4l.3.1c3 1 8.7 3 8.2 7.1-.3 2-2 2.6-3.8 2.5-5.5-.4-9.6-2-14.3-4.4-.3-.1-.5 0-.6.3 0 0 0 .3.3.6.9 1 1.5 2.2 1.8 3.4 5.8 4.5 11 9.4 16 14.7l3.5 3.9c5.3 5.8 10.4 11.4 15.9 16.4a154 154 0 0 0 21.3 16.5c5.7 0 11.2.7 16.5 2.2l11.8 3a144.2 144.2 0 0 0 65.2 1.2c-2-4.4-3.6-8-4.6-10.6a31 31 0 0 1-1.4-6.2c-1.6-11-2-21.5-1.3-31.8.8-10.7 2.6-21.7 5.3-32.7.7-2.8 1.6-5.5 2.7-8.3 3-8 8.5-14 16.2-18.4 3.7-2.7 7-5.8 9.8-9.5.4-.6.4-.9 0-.8-5 1.5-9.9 1.5-14.8-.1l-2.7-1c-1-.5-2.2-.9-3.3-1.2-.5-.2-1-.5-1.6-1l-2.1-.8c-2-.9-4-1.6-5.8-2l-3.6-1.2Zm-40 161.1c12.1.3 24.1 1.3 36.1 3 .5 0 .9.2 1.3.5l-27.7 8.9-4.1 1.4c-.2 0-.3.1-.4.3v.6c-1-5.2-2.7-10-5.1-14.7ZM131 502.6c-2.4-.2-4.8-.7-7.2-1.4a231 231 0 0 0-1.5 16.7c-.6 12.5-.8 25.6-.7 39.4.5.3 1 .6 1.5.7l23.7 6.3 6.6 2.1c10 2.9 19.5 6.7 28.6 11.4 3.4 1.8 7 4.1 10.2 6.3a189.5 189.5 0 0 0 44.5 21.4c12.6 4 25.4 6.9 38.5 8.6 20.4 2.6 40.8 2.8 61 .5a450 450 0 0 0-.9-18.4c-.8-11.6-2.5-23.3-5.2-35-.6-3-1.6-6.5-3-10.5-2-6.3-4.3-12.9-6.7-19.9v-1h-.3l-.2-.3c-1-3.5-1.9-7-2.7-10.6-.2-1-.6-2-1-3l-3.6 1.9a21.6 21.6 0 0 1-8.5 2.4c-12 .8-23.6-1-34.6-5.2l-.6-.2c-1.4-.5-3.2-1.2-4-2.2-1-1.2-1-2.4 0-3.6.2-.4 0-.7-.7-.9l-7.6-.1a52.3 52.3 0 0 1-6 4.2c-5.3 3-11.3 5.3-18 7-3.5.8-7 1.7-10.4 2a82.8 82.8 0 0 1-43.6-5.4c-.4-.1-.4-.4 0-.8-5.3.5-10.6.5-15.8 0-5.3-.5-9.3-2.9-13.7-5.4l-.9-.6c-4-2.3-8.1-4.1-12.4-5.5l-4.8-.9Z" clip-rule="evenodd"/><path fill="#E4F5FD" d="M133.8 355.4c6 .2 11.5 1.6 16.5 4.2a76.6 76.6 0 0 1 24.7 20c6.7 7.3 12.7 14.2 19.4 20.3a154 154 0 0 0 25 18.9l13.3 7.7a77.6 77.6 0 0 1 29.4 31.8 52.1 52.1 0 0 1 5.7 27.8 23 23 0 0 1-1.7 4.4c-4 6.7-9.6 11.7-16.8 15.1a86.4 86.4 0 0 1-55.1 6.3l5.9-2.1c.9-.4 1.6-.9 2.2-1.5 1-1.3.9-3-.6-3.8a5 5 0 0 0-2.8-.5 68 68 0 0 0-6.8.8v-.2a100 100 0 0 0 12.9-4.2 9 9 0 0 0 3.1-2c.9-.8.9-2.6-.5-3-2-.7-4.8 0-6.8.6-4.1 1.3-8.7 2-13 2-1-.1-1-.2 0-.4 6.8-1.3 13-3.6 19.8-5.8 1.4-.4 2.6-1 3.5-1.8 1.6-1.4 2.4-4.6 0-5.8a5.4 5.4 0 0 0-3.8-.4l-.3-.1v-.2l.2-.3c.8-.5 1.3-1.2 1.4-2 .8-5-7.9-2.4-9.9-1.8l-10.8 3.3a39.3 39.3 0 0 1-21.7-1.7c-1.7-1-2-2.9-.3-4.1 2.2-1.4 5.6-1.8 8-2.1 4.4-.7 12.7-3.7 12.5-9.4 0-2.8-2.4-3-4.4-2.3a67.4 67.4 0 0 1-13.3 3.3l-8.3 1c-6.7 1-11.5 5.1-16.8 9.1-1 .8-2.2 1.2-3.7 1.4a273 273 0 0 1-30.2-39.9c-4.7-7.6-8.2-15-11.4-23.6a95.6 95.6 0 0 1-6-35.4c.4-1.8.7-3 1-3.4a31.6 31.6 0 0 1 17.7-17 50.2 50.2 0 0 1 22.8-3.2Zm-2.7 70.2c2.5 1.6 5.4 2.8 8.9 3.6 8.3 2 15.5 0 21.6-5.7 10-9.3 9.8-22.5 2.5-33.3a41.5 41.5 0 0 0-15.7-14.2c-7.4-4-16.8-6-24.9-3a21.2 21.2 0 0 0-12.8 17.7 31 31 0 0 0 6.6 23c3.8 4.9 8.5 8.9 13.8 11.9Z"/><path fill="#E5775C" d="M148.4 376c-1.6 0-3.2-.3-4.7-.7l-4.2-1c-7-.5-14 1.7-18.8 7.4-7.9 9.6-5.9 24.2 1.1 33.7 2 2.7 5.1 6.1 9.3 10.2-5.3-3-10-7-13.8-12a31 31 0 0 1-6.6-22.9c.7-7.6 5.6-15 12.8-17.6 8.1-3.1 17.5-1 24.9 2.9Z"/><path fill="#F9A17B" d="M148.4 376c6.4 3.3 11.6 8 15.7 14.2 7.3 10.8 7.6 24-2.5 33.3a22.6 22.6 0 0 1-21.6 5.7c-3.5-.8-6.4-2-8.9-3.6-4.2-4-7.3-7.5-9.3-10.2-7-9.5-9-24-1-33.7a21.5 21.5 0 0 1 22.9-6.4c1.5.4 3 .6 4.7.7Z"/><path fill="#ADD9E4" d="M98.3 414.4a95.6 95.6 0 0 1-6-35.4c-1.7 6-2.3 12.3-1.7 18.6a96 96 0 0 0 2.6 15.1 119.4 119.4 0 0 0 13 30.5c.4 0 .7.2.9.4l20 28.8a163.3 163.3 0 0 0 3.2 5.3h.3l9.3.2a273 273 0 0 1-30.2-39.9c-4.7-7.6-8.2-15-11.4-23.6ZM267.5 489.7l.3-3.6c-.7 2.3-1.3 3.7-1.7 4.4-4 6.7-9.6 11.7-16.8 15a86.4 86.4 0 0 1-55.1 6.4c-5.1 1.5-10.4 2.5-15.8 3.1-.3.4-.3.7.1.8a82.8 82.8 0 0 0 43.6 5.5c3.4-.4 7-1.3 10.4-2.1 6.7-1.7 12.7-4 18-7 1.8-1 3.8-2.4 6-4.2a32 32 0 0 0 11-18.3Z"/></svg>