<svg width="628" height="549" viewBox="0 0 628 549" fill="none" xmlns="http://www.w3.org/2000/svg">
<path d="M501.178 565.708C368 559.314 286 558.146 121.545 557.259C119.981 557.496 118.511 556.599 117.123 556.202C109.545 554.039 102.554 551.286 96.1508 547.941C90.9813 545.242 86.3735 541.934 82.3274 538.017C74.8557 530.791 70.2681 521.889 68.5645 511.312C68.555 511.253 68.5236 511.2 68.4767 511.163C68.4297 511.126 68.3706 511.108 68.3112 511.113L68.1625 511.124C68.1258 511.128 68.1074 511.146 68.1074 511.179C67.9899 514.491 67.9844 517.819 68.0909 521.164C68.2084 524.854 68.9647 529.28 70.3599 534.442C73.6258 546.542 82.6413 553.817 94.0415 558.036C95.3706 558.528 96.7254 558.954 98.1059 559.314C99.5452 559.684 100.928 560.064 102.253 560.454C106.24 561.617 111.472 562.667 117.949 563.604C118.742 563.718 119.537 563.789 120.334 563.819C122.349 563.885 124.255 564.342 126.287 564.402C132.988 564.597 139.686 564.836 146.383 565.118C146.651 565.129 146.828 565.037 146.912 564.843C146.952 564.747 146.929 564.696 146.84 564.689C146.818 564.685 146.8 564.685 146.785 564.689C146.683 564.703 146.653 564.656 146.697 564.546C146.723 564.483 146.719 564.413 146.686 564.336L153.334 566.44C152.375 566.748 151.434 566.886 150.508 566.853C148.867 566.794 148.039 566.765 148.025 566.765C137.575 567.25 127.35 566.976 117.349 565.944C111.25 565.317 105.179 564.197 99.1358 562.585C97.6341 562.181 96.1912 561.68 94.807 561.081C93.4743 560.505 92.1084 559.916 90.7096 559.314C86.5937 557.533 82.8726 555.284 79.5462 552.567C73.7359 547.814 70.1396 541.993 68.157 534.889C65.3317 524.755 65.574 513.817 66.7856 503.645C67.0647 501.307 67.195 498.935 67.1767 496.53C67.1436 492.186 67.1895 487.92 67.3143 483.731C67.6228 473.504 67.5236 463.067 66.9839 453.727C66.7122 449.009 66.156 444.081 65.3152 438.945C64.3753 433.203 62.5982 427.244 59.9841 421.068C59.3415 419.548 58.543 418.28 57.5884 417.262C51.9874 411.298 45.2629 406.132 38.7973 401.368C35.8178 399.171 32.9044 396.885 29.9965 394.605C26.1634 391.598 22.5616 388.47 19.1691 385.067C17.6895 383.58 15.8702 381.514 13.7113 378.871C6.99968 370.657 2.75535 361.053 0.978307 350.056C-0.247996 342.467 -0.321424 334.882 0.758016 327.3C1.36933 323.01 2.17891 318.444 3.43459 314.27C6.37551 304.485 10.3775 295.704 15.4406 287.928C18.1319 283.797 21.5171 279.338 25.5962 274.551C27.0831 272.803 28.438 270.963 29.6606 269.032C35.3736 260.018 42.4817 251.869 50.9851 244.585C63.7786 233.625 78.3456 223.778 88.4406 211.1C90.9794 207.912 92.7032 203.478 94.361 199.568C95.11 197.813 95.7047 196.133 96.1453 194.529C96.6226 192.81 97.1422 191.098 97.7039 189.39C98.3171 187.529 98.8531 185.684 99.312 183.855C99.8114 181.854 100.232 179.956 100.573 178.161C102.042 170.377 103.153 161.92 103.905 152.788C104.276 148.306 104.621 143.712 104.941 139.009C105.198 135.224 105.491 131.559 105.822 128.016C106.207 123.846 106.657 119.495 107.171 114.964C107.99 107.746 109.457 100.338 111.571 92.7419C112.566 89.1657 113.756 85.6649 115.14 82.2393C119.263 72.0581 124.161 62.8553 129.834 54.631C134.588 47.7358 139.866 41.3252 145.667 35.3993C154.931 25.9414 165.463 18.1705 177.263 12.0867C190.962 5.02628 205.415 1.29046 220.622 0.879245C230.04 0.622235 239.461 1.31616 248.886 2.96102C249.591 3.08586 250.303 3.25842 251.023 3.47872C252.609 3.96336 254.267 4.04597 255.886 4.48105C256.778 4.72338 257.672 4.9914 258.568 5.28513C261.182 6.1406 263.943 7.07134 266.851 8.07735C272.634 10.082 278.415 12.5952 284.194 15.6169C285.571 16.3329 286.907 17.0929 288.203 17.897C289.095 18.4514 290.017 18.9929 290.968 19.5216C291.856 20.0173 292.739 20.557 293.617 21.1408C298.5 24.3681 301.685 26.5619 303.172 27.7221C309.759 32.8733 314.552 36.9322 317.552 39.8988C321.304 43.6145 325.297 47.9267 329.53 52.8356C331.656 55.2955 334.285 57.8785 337.417 60.5844C337.872 60.9773 338.362 61.3096 338.887 61.5813C352.747 68.7665 367.715 73.2972 383.789 75.1734C388.907 75.7719 394.058 76.1904 399.242 76.4291C404.151 76.6604 412.021 76.6751 422.852 76.4731C430.809 76.3263 439.896 76.139 450.114 75.9114C454.718 75.8123 461.595 75.9352 470.744 76.2804C479.295 76.6071 487.285 77.525 494.712 79.0341C497.394 79.5793 499.685 80.0915 502.549 80.0474C511.387 79.9116 519.626 80.3797 527.266 81.4518C529.946 81.83 532.977 82.4009 536.359 83.1646C539.538 83.8842 542.463 84.747 545.132 85.753C550.882 87.9229 556.244 90.4802 561.219 93.4248C566.055 96.2831 570.929 99.4553 575.142 103.123C587.295 113.705 597.022 126.173 604.325 140.529C605.93 143.683 607.644 147.547 609.469 152.122C615.017 166.037 617.985 180.588 618.374 195.773C618.481 199.904 618.345 204.216 617.967 208.71C616.975 220.452 613.825 231.252 608.516 241.11C605.069 247.509 600.742 254.232 595.535 261.278C595.154 261.796 594.818 262.332 594.528 262.886C591.348 268.992 588.367 275.009 585.584 280.939C580.269 292.246 576.557 304.373 575.72 316.61C574.435 335.368 577.994 353.276 586.399 370.334C587.996 373.584 590.285 377.406 593.266 381.801C598.107 388.938 602.915 396.087 607.977 403.065C611.861 408.414 615.048 413.92 617.537 419.581C618.606 422.008 619.656 424.507 620.687 427.077C621.381 428.802 621.996 430.599 622.532 432.468C623.087 434.392 623.592 436.235 624.047 437.998C627.41 451.113 628.304 464.117 626.729 477.012C626.237 481.036 625.642 484.687 624.945 487.966C620.814 507.379 610.796 525.008 595.789 538.182C588.023 545 579.179 550.282 569.254 554.027C562.062 556.744 555.345 558.565 549.103 559.49C540.418 560.779 531.81 561.302 523.169 561.66C520.903 561.752 518.688 562.043 516.521 562.535C512.501 563.453 508.402 564.312 504.223 565.113C503.75 565.205 503.256 565.274 502.742 565.322C502.195 565.373 501.674 565.502 501.178 565.708ZM274.049 13.5296C269.539 11.547 264.676 9.38259 259.939 8.07735C257.314 7.35405 254.625 6.64911 251.871 5.96253C248.567 5.13643 244.036 4.26994 238.279 3.36306C227.193 1.62274 215.495 2.55348 204.326 4.85555C178.689 10.1536 156.456 25.3099 139.499 45.4612C129.935 56.8321 122.215 70.0883 116.341 85.2298C114.171 90.8308 112.524 97.0211 111.313 102.875C110.002 109.194 108.895 116.837 107.992 125.802C107.733 128.391 107.815 130.979 107.546 133.546C107.355 135.367 107.197 137.184 107.072 138.998C106.562 146.345 105.958 153.681 105.26 161.005C104.605 167.917 103.343 174.95 101.989 181.757C101.379 184.812 100.245 188.952 98.5851 194.176C98.5631 194.242 98.5851 194.286 98.6512 194.308L98.7999 194.369C98.8629 194.391 98.9319 194.389 98.9932 194.362C99.0545 194.336 99.1035 194.287 99.1303 194.226C104.17 182.721 107.303 169.993 109.352 157.729C110.773 149.218 112.214 140.639 113.675 131.993C114.424 127.561 115.327 123.084 116.385 118.56C123.357 88.749 138.866 61.3114 162.272 41.8649C181.889 25.5687 206.738 16.3824 232.111 16.3714C244.849 16.3604 257.527 19.026 269.462 23.7843C277.627 27.041 286.397 31.3936 295.77 36.8422C302.776 40.914 309.742 45.0647 316.671 49.2944C320.614 51.6992 324.59 54.0087 328.6 56.2226C330.516 57.28 330.703 57.0322 329.161 55.4791C327.516 53.8269 325.829 51.9966 324.1 49.9883C322.558 48.1966 320.876 46.3883 319.055 44.5636C312.289 37.7748 305.006 31.7112 297.208 26.3728C289.982 21.4235 282.263 17.1425 274.049 13.5296ZM611.771 165.973C603.598 136.553 585.424 109.682 558.531 94.4932C555.348 92.6941 552.071 91.1245 548.701 89.7844C543.634 87.7724 538.936 86.2579 534.608 85.2408C529.614 84.0696 524.981 83.2362 520.707 82.7405C516.867 82.2962 512.848 82.076 508.651 82.0796C508.545 82.0796 508.444 82.0943 508.348 82.1237C507.952 82.2522 507.952 82.377 508.348 82.4982C516.213 84.9434 523.764 88.2056 531 92.2847C550.728 103.402 567.479 117.797 581.255 135.468C595.321 153.526 605.619 175.038 608.648 197.751C610.135 208.894 609.653 219.899 607.2 230.767C606.324 234.644 604.936 238.951 603.532 242.966C602.941 244.655 601.981 246.861 600.652 249.586C600.63 249.626 600.639 249.657 600.679 249.679L600.806 249.745C600.86 249.775 600.924 249.783 600.984 249.767C601.043 249.75 601.094 249.711 601.125 249.657C603.549 245.552 605.221 242.652 606.143 240.956C610.222 233.411 613.038 225.583 614.591 217.472C616.522 207.372 616.86 196.864 615.604 185.948C614.8 178.943 613.522 172.285 611.771 165.973ZM25.095 387.137C28.0249 390.03 31.2375 392.764 34.7329 395.338C37.9822 397.728 41.171 400.46 44.4313 402.894C47.3098 405.045 50.0139 407.268 52.5436 409.563C54.3097 411.164 54.5226 410.977 53.1825 409.001C49.9276 404.205 46.469 399.551 42.713 395.007C29.6496 379.212 15.4626 364.012 11.0072 343.778C7.36133 327.206 10.082 309.671 16.6082 293.887C17.8455 290.891 19.237 287.807 20.7827 284.634C20.8488 284.499 20.8195 284.387 20.6946 284.299L20.579 284.21C20.5386 284.185 20.5055 284.19 20.4798 284.227C18.7579 286.823 17.1497 289.36 15.6554 291.838C9.42108 302.188 5.27037 313.201 3.20328 324.877C0.548738 339.862 2.56994 356.665 10.4069 370.186C13.1496 374.915 16.9735 379.649 21.8787 384.389C22.8976 385.375 24.0761 386.124 25.095 387.137ZM615.351 419.79C614.969 419.049 614.626 418.307 614.321 417.565C614.284 417.474 614.216 417.404 614.117 417.356C614.047 417.323 613.979 417.327 613.913 417.367C613.745 417.463 613.686 417.604 613.737 417.791C614.079 419.018 614.437 420.185 614.811 421.294C615.736 424.036 616.265 426.493 616.86 429.164C617.62 432.589 617.912 435.932 618.396 439.341C618.642 441.082 618.817 442.991 618.92 445.069C619.327 453.194 618.859 461.277 617.515 469.318C614.971 484.57 609.946 498.948 602.442 512.452C598.979 518.686 594.755 524.423 589.769 529.662C587.731 531.804 585.501 533.567 583.315 535.483C581.692 536.901 579.997 538.219 578.231 539.438C571.362 544.185 563.98 548.093 556.086 551.163C548.376 554.166 540.526 556.699 532.537 558.763C532.497 558.774 532.461 558.799 532.437 558.833C532.413 558.867 532.402 558.908 532.405 558.95L532.416 559.093C532.419 559.13 532.439 559.148 532.476 559.148C536.17 558.913 539.828 558.579 543.452 558.146C550.491 557.302 557.551 555.717 564.634 553.393C571.771 551.047 578.628 547.555 584.956 543.458C599.082 534.316 610.328 521.291 616.953 505.804C620.5 497.506 622.944 488.911 624.284 480.019C624.816 476.501 625.125 472.815 625.209 468.96C625.33 463.365 625.22 458.637 624.878 454.779C624.179 446.887 622.444 438.394 619.702 430.552C618.567 427.306 617.508 424.54 616.524 422.252C616.19 421.485 615.799 420.664 615.351 419.79Z" fill="#005FDF" fill-opacity="0.06"/>
<path d="M443.543 235.238C441.784 236.23 440.068 236.881 438.394 237.194C441.316 232.549 443.637 227.774 445.355 222.869C445.417 222.689 445.526 222.542 445.68 222.428C446.176 222.048 446.969 221.977 447.547 221.701C459.14 216.227 463.81 203.538 460.418 191.527C459.492 188.261 457.333 184.62 453.974 183.502C450.752 182.428 446.781 183.993 444.336 186.069C436.819 192.452 436.444 206.688 437.143 215.555C437.153 215.669 437.126 215.782 437.067 215.879C437.007 215.976 436.918 216.052 436.813 216.095C434.649 216.998 430.215 217.488 430.314 213.776C430.329 213.126 430.219 211.84 429.984 209.916C430.142 208.531 430.206 207.158 430.177 205.796C430.022 197.957 428.939 190.421 426.927 183.188C424.912 175.946 421.585 170.257 414.393 167.024C411.955 165.927 409.333 164.84 406.528 163.764C394.764 159.237 383.717 152.876 373.897 145.149C372.349 143.938 370.918 142.467 369.634 141.035C369.556 140.946 369.459 140.875 369.351 140.826C369.243 140.776 369.126 140.75 369.007 140.749C368.889 140.747 368.771 140.77 368.662 140.817C368.553 140.863 368.454 140.932 368.373 141.019C365.407 144.184 363.015 147.431 361.197 150.761C358.293 156.243 356.277 161.831 355.15 167.526C353.101 177.898 352.887 188.529 354.506 199.419C353.305 198.593 352.358 197.557 351.482 196.742C343.974 189.737 339.663 181.052 338.551 170.687C338.033 165.873 337.947 161.414 338.292 157.309C338.593 153.689 338.665 151.165 338.507 149.737C338.235 147.266 337.754 144.916 337.064 142.687C336.051 139.394 335.147 135.897 333.721 132.73C331.546 127.9 329.899 122.988 329.409 117.794C328.461 107.787 332.702 97.2793 341.272 91.4635C350.887 84.9428 364.59 85.0199 373.991 92.1575C376.025 93.7032 378.149 95.3187 380.363 97.0039C387.44 102.39 397.716 100.71 405.377 97.8245C410.18 96.0218 415.378 94.0373 420.974 91.8711C436.389 85.9066 455.488 88.5722 464.24 103.817C466.459 107.677 467.808 112.21 469.686 116.291C470.105 117.199 470.595 118.086 471.295 118.813C474.351 121.98 477.534 125.62 481.312 127.922C484.369 129.784 487.431 131.761 490.064 134.157C497.196 140.661 497.421 149.797 494.244 158.427C492.323 163.648 489.812 168.585 486.71 173.237C485.634 174.856 484.672 176.57 483.824 178.381C482.425 181.366 480.896 184.336 479.236 187.291C474.397 195.909 469.767 204.036 465.347 211.673C463.287 215.23 460.726 218.849 458.187 222.147C454.104 227.468 449.223 231.831 443.543 235.238ZM332.895 122.608C332.438 113.421 335.439 103.552 342.131 96.8883C349.327 89.725 357.83 88.2252 367.641 92.3888C370.134 93.4462 372.704 94.6449 375.351 95.9851C375.722 96.1723 375.753 96.1283 375.445 95.8529C372.074 92.8569 368.382 90.8082 364.369 89.7067C351.857 86.2591 338.804 91.8105 333.627 103.943C330.958 110.196 330.58 116.761 332.493 123.637C332.761 124.596 332.9 124.577 332.911 123.582C332.915 123.256 332.91 122.931 332.895 122.608ZM449.954 93.6499C441.368 89.7673 431.339 90.307 422.472 93.4902C419.3 94.6247 416.249 95.796 413.319 97.0039C413.256 97.0296 413.236 97.0755 413.258 97.1416C413.276 97.1893 413.308 97.2077 413.352 97.1967C425.842 93.8592 441.357 90.72 453.093 97.7639C457.73 100.551 461.662 105.281 464.598 109.847C464.869 110.273 464.921 110.247 464.752 109.77C462.101 102.284 457.168 96.9103 449.954 93.6499ZM468.447 160.84C468.844 157.157 468.636 153.735 467.825 150.574C466.58 145.716 462.797 142.28 460.357 138.127C456.507 131.574 460.566 122.734 454.348 116.544C448.054 110.277 440.817 109.197 432.231 109.065C423.557 108.933 415.241 109.616 407.051 111.378C404.668 111.892 402.352 112.366 400.101 112.799C393.143 114.135 386.371 114.761 379.784 114.677C379.285 114.67 379.283 114.694 379.779 114.749C390.226 115.872 399.666 114.137 410.306 112.369C418.075 111.077 426.628 110.71 435.965 111.268C442.563 111.664 448.164 113.179 452.95 117.998C455.681 120.746 456.447 124.161 456.546 127.961C456.673 132.714 457.245 136.855 460.247 140.771C463.144 144.554 466.723 147.914 467.566 152.876C468.084 155.945 468.343 159.107 468.343 162.36C468.343 162.488 468.354 162.49 468.376 162.365C468.464 161.914 468.398 161.297 468.447 160.84ZM494.15 149.175C494.745 142.291 491.049 136.767 485.146 132.906C484.962 132.785 484.912 132.827 484.997 133.033C485.045 133.147 485.112 133.244 485.201 133.325C485.329 133.442 485.445 133.575 485.548 133.721C491.953 142.924 492.564 152.804 489.496 163.742C489.342 164.285 489.403 164.309 489.678 163.814C492.208 159.257 493.698 154.378 494.15 149.175Z" fill="#45241F"/>
<path d="M468.448 160.841C468.398 161.298 468.464 161.915 468.376 162.366C468.354 162.491 468.343 162.489 468.343 162.361C468.343 159.108 468.084 155.947 467.567 152.877C466.724 147.915 463.144 144.556 460.247 140.772C457.246 136.856 456.673 132.715 456.547 127.962C456.447 124.162 455.682 120.747 452.95 117.999C448.164 113.18 442.563 111.666 435.966 111.269C426.629 110.711 418.076 111.078 410.307 112.371C399.667 114.138 390.227 115.873 379.78 114.75C379.284 114.695 379.286 114.671 379.785 114.678C386.372 114.763 393.144 114.137 400.102 112.8C402.352 112.367 404.669 111.893 407.052 111.379C415.241 109.617 423.558 108.934 432.232 109.066C440.818 109.198 448.054 110.278 454.349 116.545C460.567 122.735 456.508 131.575 460.358 138.129C462.797 142.281 466.581 145.718 467.826 150.575C468.637 153.736 468.844 157.158 468.448 160.841Z" fill="#E5775C"/>
<path d="M429.984 209.916C429.18 206.167 428.347 202.43 427.484 198.703C426.421 194.093 425.033 190.227 423.419 185.948C420.825 179.058 417.257 173.336 410.169 170.61C405.405 168.776 399.528 167.664 395.723 166.579C384.855 163.473 374.584 159.015 364.909 153.207C364.619 153.031 364.03 152.59 363.141 151.885C362.543 151.404 361.895 151.03 361.197 150.762C363.015 147.432 365.407 144.184 368.373 141.019C368.454 140.933 368.553 140.864 368.662 140.817C368.771 140.771 368.889 140.748 369.008 140.749C369.126 140.751 369.243 140.777 369.351 140.826C369.459 140.876 369.556 140.947 369.635 141.036C370.918 142.468 372.35 143.938 373.897 145.15C383.717 152.876 394.765 159.237 406.528 163.764C409.333 164.84 411.955 165.927 414.393 167.025C421.585 170.258 424.912 175.947 426.928 183.189C428.94 190.422 430.023 197.958 430.177 205.797C430.206 207.159 430.142 208.532 429.984 209.916Z" fill="#E5775C"/>
<path d="M361.198 150.763C361.895 151.031 362.543 151.405 363.142 151.886C364.03 152.591 364.62 153.032 364.91 153.208C374.584 159.016 384.855 163.474 395.723 166.58C399.529 167.665 405.405 168.777 410.169 170.611C417.257 173.337 420.826 179.059 423.42 185.949C425.033 190.228 426.421 194.095 427.484 198.704C428.347 202.431 429.18 206.168 429.984 209.917C430.219 211.841 430.33 213.128 430.315 213.778C430.216 217.49 434.649 217 436.814 216.096C436.919 216.053 437.008 215.978 437.067 215.881C437.127 215.784 437.154 215.67 437.144 215.557C436.445 206.69 436.819 192.453 444.337 186.07C446.782 183.994 450.753 182.43 453.974 183.504C457.334 184.622 459.493 188.262 460.418 191.528C463.811 203.54 459.14 216.229 447.547 221.703C446.969 221.978 446.176 222.05 445.68 222.43C445.526 222.544 445.418 222.691 445.355 222.87C443.637 227.776 441.317 232.551 438.394 237.195C435.428 242.097 431.646 246.477 427.049 250.336C417.13 258.646 404.348 262.088 391.741 258.156C391.499 258.079 391.284 258.123 391.097 258.288C390.972 257.998 390.84 257.827 390.701 257.776C383.508 255.121 377.461 249.702 372.642 243.54C372.576 243.455 372.491 243.424 372.389 243.446C372.311 243.461 372.256 243.483 372.223 243.512C372.205 243.189 372.144 242.961 372.042 242.829C363.924 232.244 358.62 219.505 355.811 206.464C355.778 206.313 355.714 206.178 355.619 206.056C355.505 205.913 355.415 205.79 355.349 205.687C355.639 205.115 355.554 204.32 355.095 203.303L354.721 201.061C354.776 200.562 354.704 200.015 354.506 199.42C352.887 188.53 353.102 177.899 355.151 167.527C356.278 161.832 358.293 156.244 361.198 150.763Z" fill="#F9A17B"/>
<path d="M443.544 235.239L442.938 244.068C441.958 245.264 440.998 246.476 440.058 247.702C431.896 258.387 419.769 266.042 406.32 267.27C401.018 267.755 395.577 267.05 389.996 265.155C389.802 265.089 389.691 264.953 389.666 264.748L389.578 264.01L391.098 258.288C391.285 258.122 391.5 258.078 391.742 258.155C404.348 262.088 417.131 258.646 427.05 250.335C431.646 246.476 435.428 242.096 438.395 237.194C440.069 236.882 441.785 236.231 443.544 235.239Z" fill="#E5775C"/>
<path d="M442.938 244.067C442.96 246.901 442.988 249.749 443.021 252.609C443.065 256.442 443.351 260.253 443.88 264.042C443.921 264.336 444.021 264.496 444.183 264.521C444.062 264.973 444.025 265.268 444.073 265.408C445.376 269.425 445.901 273.225 445.648 276.808C445.332 281.243 443.315 285.139 439.595 288.495C437.554 290.33 435.217 291.786 432.585 292.862C427.694 294.856 422.396 295.838 416.69 295.808C407.989 295.764 397.657 293.589 391.924 287.206C388.289 283.156 386.776 278.367 387.386 272.837C387.499 271.791 387.764 270.532 388.179 269.059C388.531 267.811 388.834 266.552 389.087 265.281L389.578 264.009L389.666 264.747C389.691 264.953 389.802 265.088 389.996 265.155C395.577 267.049 401.018 267.754 406.32 267.269C419.769 266.041 431.896 258.386 440.058 247.702C440.998 246.475 441.958 245.264 442.938 244.067Z" fill="#F9A17B"/>
<path d="M444.182 264.521C447.891 264.932 451.349 265.639 454.558 266.641C455.248 270.357 455.399 273.551 455.01 276.224C454.287 281.17 452.23 285.939 448.842 290.532C443.738 297.457 436.72 301.879 427.787 303.799C419.247 305.635 410.626 305.604 401.925 303.706C392.342 301.619 384.422 294.492 382.263 284.975C381.123 279.942 381.856 274.704 384.257 270.353C385.032 268.958 386.082 267.396 387.407 265.667L389.087 265.281C388.834 266.551 388.531 267.811 388.178 269.059C387.763 270.531 387.499 271.791 387.385 272.837C386.776 278.366 388.288 283.156 391.923 287.206C397.656 293.589 407.988 295.764 416.69 295.808C422.395 295.838 427.693 294.855 432.584 292.862C435.216 291.786 437.553 290.33 439.595 288.494C443.314 285.139 445.332 281.243 445.647 276.808C445.901 273.224 445.376 269.424 444.072 265.408C444.025 265.268 444.061 264.973 444.182 264.521Z" fill="#005FDF"/>
<path d="M387.407 265.667C386.081 267.396 385.031 268.958 384.257 270.353C381.855 274.704 381.123 279.942 382.263 284.975C384.422 294.492 392.341 301.618 401.924 303.706C410.626 305.604 419.247 305.635 427.787 303.799C436.72 301.879 443.738 297.457 448.841 290.532C452.23 285.939 454.286 281.17 455.01 276.224C455.399 273.551 455.248 270.357 454.558 266.641C459.985 268.139 464.743 269.714 468.833 271.367C480.362 276.015 488.118 279.073 492.102 280.542C495.032 281.621 497.686 282.868 500.065 284.281C499.033 284.612 497.574 284.786 495.687 284.805C493.88 284.823 491.815 285.44 489.491 286.655C484.05 289.497 480.074 294.58 477.122 299.911C471.344 310.331 467.737 323.097 465.347 335.092C462.913 347.322 461.167 359.242 460.109 370.851C458.108 392.826 456.967 414.98 456.684 437.314C456.684 437.379 456.661 437.442 456.62 437.492C456.579 437.542 456.522 437.577 456.458 437.589C443.422 440.15 431.289 443.747 418.028 448.086C410.519 450.543 397.542 455.042 379.096 461.585C378.615 456.768 377.607 451.859 376.073 446.858C371.983 433.556 368.267 421.87 364.926 411.799C359.106 394.256 352.839 376.948 346.124 359.875C347.526 355.08 347.804 350.32 346.955 345.595C346.574 343.484 345.894 341.17 344.918 338.655C343.012 333.759 341.751 328.665 341.492 323.422C341.222 317.772 340.33 313.129 338.964 308.101C338.59 306.731 338.026 305.466 337.273 304.306C338.656 299.845 339.785 295.263 342.153 291.259C342.843 290.092 343.836 288.785 345.132 287.338C346.205 286.141 347.319 284.928 348.475 283.698C348.967 283.558 349.514 283.404 350.117 283.235C350.656 283.084 351.167 282.848 351.648 282.524C354.03 280.916 356.505 279.464 359.072 278.168C366.187 274.574 373.47 271.22 380.919 268.106C382.953 267.042 385.116 266.228 387.407 265.667Z" fill="#4687E6"/>
<path d="M348.475 283.698C347.319 284.928 346.204 286.141 345.132 287.338C343.836 288.785 342.843 290.092 342.153 291.259C339.784 295.263 338.655 299.845 337.273 304.306L335.869 304.499C330.927 306.045 326.007 305.997 321.109 304.356C319.088 303.678 317.127 302.797 315.101 302.169C314.572 302.004 314.027 301.681 313.465 301.2C313.847 301.387 314.173 301.378 314.445 301.173C323.417 294.338 332.796 288.55 343.54 284.92C345.057 284.406 346.702 283.999 348.475 283.698Z" fill="#005FDF"/>
<path d="M500.065 284.282C501.295 284.859 502.611 285.398 504.014 285.901C505.893 286.577 507.206 287.109 507.951 287.499C521.946 294.768 525.349 310.811 526.621 325.158C528.378 344.94 527.618 364.871 525.052 384.786C521.714 410.676 515.447 436.224 507.186 461.327C504.961 468.085 501.888 474.572 496.733 479.369C495.686 480.344 494.343 481.511 493.863 482.778C493.761 482.719 493.649 482.751 493.528 482.872C489.933 486.452 485.738 488.954 480.943 490.378C478.454 491.116 475.926 491.788 473.382 492.267C457.873 495.19 442.977 498.41 428.695 501.927C414.207 505.492 400.233 508.999 386.773 512.446C374.286 515.644 361.625 518.425 348.789 520.79C346.377 521.234 343.851 521.359 341.211 521.164C334.663 520.685 329.458 516.582 326.594 510.788C329.796 510.205 332.968 509.836 336.111 509.682C339.019 509.535 341.069 508.145 342.263 505.512C343.364 503.082 343.865 500.361 343.766 497.351C345.954 496.591 348.178 495.827 350.436 495.06C357.133 492.785 364.265 490.042 369.932 485.884C377.917 480.03 380.087 471.108 379.096 461.586C397.542 455.043 410.519 450.544 418.027 448.087C431.289 443.748 443.422 440.151 456.458 437.59C456.521 437.578 456.579 437.543 456.62 437.493C456.661 437.443 456.683 437.38 456.683 437.315C456.966 414.981 458.108 392.827 460.109 370.852C461.166 359.243 462.912 347.323 465.346 335.093C467.737 323.098 471.344 310.332 477.121 299.912C480.073 294.581 484.049 289.498 489.491 286.656C491.815 285.441 493.88 284.824 495.686 284.805C497.574 284.787 499.033 284.613 500.065 284.282Z" fill="#005FDF"/>
<path d="M493.864 482.778C494.041 483.24 494.136 483.575 494.151 483.78C494.511 490.227 494.882 496.677 495.263 503.127C495.285 503.524 495.434 506.966 495.709 513.454C495.856 516.901 496.11 520.342 496.469 523.775C496.866 527.578 496.536 531.246 495.478 534.778C493.764 536.335 491.561 537.624 488.869 538.644C480.271 541.912 471.943 544.104 463.888 545.22C457.356 546.123 451.109 546.696 445.146 546.938C426.671 547.691 407.678 547.566 388.167 546.564C370.61 545.661 352.86 543.931 336.833 536.552C333.613 535.068 330.373 533.471 327.113 531.76C324.917 530.611 323.034 528.915 321.462 526.671C321.749 522.868 322.167 518.908 322.718 514.792C322.762 514.469 322.883 514.043 323.082 513.514C323.243 513.085 323.346 512.648 323.39 512.204L326.595 510.788C329.459 516.582 334.664 520.685 341.212 521.164C343.852 521.359 346.378 521.234 348.79 520.79C361.626 518.425 374.287 515.644 386.774 512.446C400.234 508.998 414.208 505.492 428.696 501.927C442.978 498.41 457.874 495.19 473.383 492.267C475.927 491.788 478.455 491.116 480.944 490.378C485.739 488.953 489.934 486.451 493.529 482.871C493.65 482.75 493.762 482.719 493.864 482.778Z" fill="#4687E6"/>
<path d="M343.768 497.35C343.867 500.361 343.365 503.081 342.264 505.512C341.071 508.145 339.02 509.534 336.112 509.681C332.969 509.835 329.797 510.204 326.596 510.788L323.39 512.203L316.104 515.959C314.925 516.562 313.723 517.175 312.497 517.799C309.798 519.176 306.978 519.961 304.037 520.156C291.943 520.953 280.394 519.242 269.391 515.023C267.915 514.456 265.767 513.773 264.77 512.589C263.742 511.37 263.751 510.175 264.798 509.004C266.431 508.332 267.555 508.069 268.168 508.216C269.956 508.642 271.748 508.886 273.543 508.949C273.863 508.96 273.997 508.807 273.945 508.491C273.934 508.433 273.94 508.374 273.962 508.315C274.046 508.117 274.197 508.014 274.413 508.007C279.095 507.845 283.598 507.647 287.923 507.412C306.945 506.377 325.56 503.023 343.768 497.35Z" fill="#E5775C"/>
<path d="M321.463 526.672C323.034 528.915 324.917 530.611 327.113 531.761C330.373 533.472 333.614 535.069 336.834 536.552C352.86 543.932 370.61 545.661 388.168 546.564C407.678 547.567 426.671 547.692 445.147 546.939C451.109 546.697 457.356 546.124 463.888 545.221C471.944 544.105 480.271 541.913 488.869 538.645C491.561 537.624 493.764 536.335 495.478 534.779C498.221 545.221 499.317 553.294 501.178 565.708C495.23 566.931 489.222 568.195 483.153 569.503C473.574 571.566 464.307 574.211 455.352 577.439C442.696 581.999 429.566 588.183 416.921 593.702C391.169 604.931 363.203 611.628 336.156 614.564C335.965 608.403 335.651 602.28 335.214 596.197C334.385 584.617 332.661 572.939 330.043 561.164C329.378 558.179 328.389 554.702 327.075 550.733C324.993 544.44 322.735 537.81 320.3 530.841C320.238 530.661 320.262 530.307 320.372 529.778L321.463 526.672Z" fill="#000645"/>
<path d="M354.72 201.06L355.095 203.302C349.059 201.433 342.898 200.339 336.612 200.019C336.561 200.016 336.513 200.032 336.469 200.069C336.436 200.098 336.423 200.142 336.43 200.201C336.434 200.245 336.458 200.273 336.502 200.284C342.784 201.8 349.066 203.601 355.348 205.687C355.414 205.789 355.504 205.912 355.618 206.056C355.713 206.177 355.778 206.313 355.811 206.463C358.619 219.504 363.923 232.243 372.041 242.828C372.144 242.96 372.204 243.188 372.223 243.511C369.177 253.656 374.167 261.057 380.919 268.107C373.469 271.22 366.187 274.574 359.071 278.169C356.505 279.465 354.03 280.917 351.647 282.525C351.166 282.848 350.656 283.085 350.116 283.236C349.514 283.404 348.967 283.559 348.475 283.698C346.702 283.999 345.057 284.407 343.54 284.921C332.795 288.55 323.416 294.338 314.445 301.173C314.173 301.379 313.846 301.388 313.465 301.2L311.383 300.374C311.559 298.491 311.711 296.628 311.84 294.784C311.987 292.743 311.98 290.815 311.818 289.002C311.183 281.908 309.595 274.732 307.054 267.473C303.882 258.392 297.774 250.737 288.324 247.708C283.885 246.281 278.845 245.07 275.178 242.641C272.589 240.926 270.704 238.336 269.522 234.87C274.812 232.087 278.392 227.771 280.261 221.922C282.214 215.805 282.02 209.804 279.677 203.919C277.171 197.607 271.835 192.551 264.945 197.249C261.92 199.313 259.95 202.195 259.036 205.896C258.911 206.395 258.806 206.911 258.722 207.443C258.318 209.933 257.892 210.331 257.444 208.638C256.379 205.448 254.327 202.988 251.287 201.259C248.603 199.728 245.967 198.685 243.378 198.13C241.267 197.675 237.504 196.924 232.088 195.878C221.888 193.91 211.77 191.116 201.732 187.496C197.043 185.803 192.305 183.705 187.517 181.201C183.291 178.991 179.776 175.939 176.97 172.048C176.897 172.055 176.864 171.932 176.871 171.679C176.879 171.469 176.787 171.319 176.596 171.227C176.097 170.996 175.52 170.9 174.867 170.941C166.898 171.453 159.385 178.778 157.832 186.455C156.764 191.753 157.761 197.244 159.942 202.079C162.181 207.043 165.754 212.505 170.659 218.464C171.056 218.941 171.478 219.376 171.926 219.769C172.063 219.888 172.164 220.042 172.218 220.215C172.35 220.633 172.627 220.903 173.049 221.024C173.178 221.061 173.295 221.125 173.402 221.217C173.479 221.283 173.534 221.362 173.567 221.454C173.673 221.744 173.796 221.751 173.936 221.476C174.061 221.219 174.119 220.916 174.112 220.567C176.4 230.297 180.1 239.503 185.215 248.187L184.829 247.944C184.731 247.884 184.618 247.85 184.503 247.846C184.387 247.843 184.272 247.869 184.17 247.924C184.068 247.979 183.982 248.059 183.921 248.158C183.86 248.256 183.826 248.368 183.822 248.484C183.752 250.735 183.552 252.894 183.221 254.961C182.546 259.176 181.931 263.069 181.376 266.642C180.038 275.233 180.561 283.77 186.162 290.902C187.466 292.561 188.685 294.278 189.819 296.051L189.384 296.354C188.242 297.044 187.337 297.441 186.669 297.544C179.994 298.891 173.541 300.218 167.311 301.525C163.929 302.236 160.729 302.693 157.326 302.82C157.253 302.823 157.183 302.845 157.122 302.884C157.061 302.922 157.011 302.977 156.978 303.041C156.945 303.105 156.929 303.176 156.933 303.248C156.937 303.319 156.961 303.388 157.001 303.447C159.826 307.771 161.495 312.325 161.357 317.59C161.342 318.167 161.223 318.62 160.999 318.951L158.686 323.434C158.598 323.606 158.46 323.672 158.273 323.632C158.163 323.61 158.058 323.56 157.959 323.483C157.82 323.369 157.66 323.301 157.48 323.279C156.782 323.195 156.158 323.325 155.607 323.671C152.277 325.738 149.127 328.42 146.157 331.717C145.984 326.72 146.939 322.035 149.021 317.662C149.931 315.749 150.858 313.853 151.802 311.973C151.93 311.712 151.969 311.154 151.918 310.299C151.646 305.588 150.662 301.577 148.966 298.265C147.692 295.779 145.997 293.022 143.882 289.993C141.426 286.483 139.671 282.542 138.617 278.169C135.831 266.625 142.505 259.741 149.582 252.069C151.951 249.498 153.476 246.391 155.139 243.34C158.763 236.715 161.258 228.674 157.585 221.95C156.454 219.872 154.947 217.876 153.063 215.963C150.137 212.989 147.442 210.124 144.978 207.366C141.226 203.162 138.939 198.525 138.116 193.455C135.853 179.51 141.47 167.994 153.162 160.725C156.643 158.56 159.76 155.906 163.599 154.43C169.288 152.232 174.586 150.536 178.149 145.188C181.118 140.733 184.014 135.831 186.03 130.698C191.818 115.928 207.156 107.535 222.549 104.885C237.272 102.348 251.784 103.635 266.085 108.746C283.929 115.118 300.44 130.34 304.433 149.495C304.77 151.129 305.248 152.781 305.865 154.452C306.874 157.176 307.508 160.032 307.765 163.021C308.629 173.05 310.419 183.2 317.733 190.316C320.259 192.772 323.516 194.947 327.503 196.842C328.428 197.282 329.508 197.536 330.741 197.602C339.002 198.048 346.867 198.742 354.72 201.06ZM270.381 112.711C249.877 103.476 223.238 102.49 203.108 114.083C203.064 114.108 203.053 114.142 203.075 114.182V114.187C203.108 114.25 203.156 114.266 203.219 114.237C207.389 112.398 211.522 111.129 215.616 110.431C247.211 105.04 281.693 117.139 300.264 143.861C301.112 145.08 301.264 144.999 300.721 143.619C295.367 129.944 283.455 118.599 270.381 112.711ZM352.539 258.128C354.478 253.903 355.717 250.12 355.293 245.295C354.037 230.943 334.112 228.09 323.279 228.179C320.859 228.201 318.392 228.235 315.877 228.283C304.989 228.487 299.674 221.818 297.906 211.921C297.187 207.897 296.726 203.61 296.524 199.061C296.183 191.498 295.604 185.078 294.789 179.802C293.141 169.154 289.023 159.856 282.436 151.907C274.594 142.435 263.689 135.556 252.03 132.114C241.904 129.125 231.308 128.518 220.242 130.291C215.395 131.069 210.839 132.696 206.572 135.17C206.547 135.185 206.541 135.205 206.556 135.231V135.236C206.582 135.284 206.622 135.295 206.677 135.27C214.138 131.587 222.322 129.904 231.229 130.219C234.699 130.34 237.911 130.607 240.867 131.018C254.095 132.85 265.481 138.168 275.023 146.973C286.082 157.176 292.214 169.76 293.418 184.726C293.972 191.591 294.494 198.543 294.982 205.582C295.808 217.417 300.269 230.095 314.566 229.996C318.524 229.97 322.185 229.939 325.548 229.902C336.16 229.787 354.021 232.964 354.351 247.052C354.406 249.365 354.052 251.513 353.288 253.496C352.374 255.879 351.511 258.32 350.7 260.821C349.158 265.572 348.853 270.506 349.786 275.624C349.797 275.683 349.832 275.707 349.89 275.696C349.96 275.685 349.989 275.646 349.978 275.58C349.152 269.539 350.017 263.618 352.539 258.128ZM146.697 206.281C148.345 208.15 150.095 209.997 151.945 211.822C152.815 212.677 152.9 212.606 152.198 211.607C150.77 209.573 149.445 207.531 148.222 205.483C141.558 194.319 141.057 179.394 147.726 168.341C148.692 166.744 148.545 166.634 147.286 168.011C142.248 173.5 139.697 180.022 139.631 187.578C139.565 194.865 141.883 200.835 146.697 206.281ZM146.537 277.932C143.524 271.329 144.125 265.193 146.829 258.755C147.13 258.039 147.02 257.97 146.498 258.546C145.378 259.791 144.334 261.118 143.365 262.528C136.547 272.469 141.261 283.224 147.495 291.832C150.928 296.58 152.975 301.654 153.636 307.055C153.641 307.089 153.657 307.12 153.681 307.145C153.705 307.169 153.737 307.185 153.771 307.19C153.805 307.195 153.84 307.188 153.87 307.172C153.9 307.156 153.924 307.13 153.939 307.099C157.028 299.972 155.47 293.331 151.499 287.036C149.56 283.966 147.906 280.932 146.537 277.932Z" fill="#5D3826"/>
<path d="M352.54 258.127C350.017 263.617 349.153 269.538 349.979 275.579C349.99 275.645 349.96 275.684 349.891 275.695C349.832 275.706 349.797 275.682 349.786 275.623C348.853 270.505 349.158 265.571 350.7 260.82C351.512 258.319 352.374 255.878 353.289 253.495C354.052 251.512 354.407 249.364 354.352 247.051C354.021 232.963 336.161 229.786 325.548 229.901C322.185 229.938 318.524 229.969 314.567 229.995C300.269 230.094 295.808 217.416 294.982 205.581C294.494 198.543 293.973 191.59 293.418 184.725C292.214 169.759 286.083 157.175 275.024 146.972C265.481 138.167 254.096 132.849 240.867 131.017C237.912 130.606 234.699 130.339 231.229 130.218C222.322 129.903 214.138 131.586 206.678 135.269C206.622 135.294 206.582 135.283 206.556 135.236V135.23C206.542 135.204 206.547 135.184 206.573 135.169C210.839 132.695 215.396 131.068 220.242 130.29C231.308 128.517 241.904 129.124 252.031 132.113C263.69 135.555 274.594 142.434 282.437 151.906C289.023 159.855 293.141 169.153 294.79 179.801C295.605 185.077 296.183 191.497 296.524 199.06C296.726 203.609 297.187 207.896 297.907 211.92C299.675 221.817 304.989 228.486 315.877 228.282C318.392 228.234 320.86 228.2 323.279 228.178C334.112 228.089 354.038 230.942 355.293 245.294C355.717 250.119 354.478 253.902 352.54 258.127Z" fill="#E5775C"/>
<path d="M176.971 172.048C174.654 176.986 173.092 181.842 172.284 186.615C170.562 198.206 171.172 209.523 174.113 220.567C174.12 220.916 174.061 221.219 173.937 221.476C173.797 221.751 173.674 221.744 173.568 221.454C173.535 221.362 173.479 221.283 173.402 221.217C173.296 221.125 173.178 221.061 173.05 221.024C172.628 220.903 172.35 220.633 172.218 220.215C172.164 220.042 172.063 219.888 171.926 219.769C171.478 219.376 171.056 218.941 170.66 218.464C165.755 212.505 162.182 207.043 159.942 202.079C157.761 197.244 156.765 191.753 157.833 186.455C159.386 178.778 166.898 171.453 174.867 170.941C175.521 170.9 176.097 170.996 176.597 171.227C176.788 171.319 176.879 171.469 176.872 171.679C176.865 171.932 176.898 172.055 176.971 172.048Z" fill="#45241F"/>
<path d="M176.971 172.047C179.776 175.939 183.292 178.99 187.518 181.201C192.306 183.705 197.044 185.803 201.732 187.495C211.771 191.116 221.889 193.91 232.089 195.878C237.505 196.924 241.268 197.675 243.379 198.13C245.967 198.685 248.604 199.727 251.288 201.258C254.328 202.988 256.38 205.448 257.445 208.638C256.986 208.26 256.202 207.515 255.093 206.402C251.365 202.674 244.717 201.853 239.452 201.671C233.523 201.469 227.298 201.148 220.777 200.708C213.041 200.183 205.384 199.136 197.806 197.568C193.602 196.698 189.447 195.595 185.343 194.259C183.151 193.546 181.051 192.645 179.042 191.554C176.722 190.291 174.469 188.645 172.285 186.614C173.092 181.841 174.655 176.986 176.971 172.047Z" fill="#E5775C"/>
<path d="M172.284 186.615C174.469 188.645 176.721 190.292 179.041 191.555C181.05 192.645 183.15 193.547 185.342 194.259C189.447 195.595 193.601 196.699 197.805 197.569C205.383 199.137 213.04 200.183 220.776 200.708C227.297 201.149 233.522 201.47 239.452 201.672C244.717 201.854 251.364 202.674 255.092 206.403C256.201 207.515 256.985 208.26 257.444 208.639C257.892 210.331 258.318 209.933 258.722 207.444C258.806 206.911 258.911 206.395 259.036 205.896C259.95 202.195 261.92 199.313 264.945 197.249C271.835 192.552 277.171 197.607 279.677 203.919C282.02 209.804 282.214 215.806 280.261 221.922C278.392 227.771 274.812 232.087 269.522 234.87C268.758 236.467 268.149 238.169 267.693 239.975C267.106 242.322 266.682 243.88 266.421 244.651C265.874 246.259 265.353 247.796 264.857 249.261C264.457 249.643 264.176 250.043 264.014 250.461C259.184 262.996 248.627 274.402 235.365 277.839C229.168 279.447 222.889 279.335 216.53 277.503C214 276.548 211.862 275.562 210.114 274.545C199.688 268.493 191.202 258.645 185.215 248.187C180.101 239.504 176.4 230.297 174.112 220.568C171.171 209.523 170.562 198.206 172.284 186.615Z" fill="#F9A17B"/>
<path d="M269.523 234.87C270.705 238.336 272.59 240.926 275.179 242.641C278.847 245.069 283.886 246.281 288.325 247.707C297.776 250.736 303.883 258.392 307.055 267.473C309.596 274.732 311.184 281.908 311.819 289.001C311.981 290.815 311.988 292.743 311.841 294.784C311.713 296.627 311.56 298.491 311.384 300.374C309.402 299.515 307.467 298.849 305.579 298.375C304.181 298.026 303.002 297.65 302.044 297.246C300.884 296.758 299.729 296.286 298.58 295.83L295.754 294.723L288.644 291.904C280.769 289.044 273.04 285.903 265.458 282.481C265.22 282.374 265.075 282.192 265.023 281.935C264.829 280.933 264.684 279.878 264.588 278.769C264.137 273.463 263.997 268.068 264.17 262.583L264.858 249.26C265.354 247.795 265.875 246.259 266.422 244.651C266.683 243.88 267.107 242.321 267.694 239.975C268.15 238.169 268.759 236.467 269.523 234.87Z" fill="#45241F"/>
<path d="M185.216 248.187C191.203 258.645 199.689 268.492 210.115 274.545C211.862 275.562 214.001 276.548 216.531 277.502L214.846 283.384L214.262 285.251C214.2 285.449 214.095 285.63 213.955 285.782C213.815 285.933 213.643 286.051 213.452 286.127L197.332 292.499L191.34 295.335L189.82 296.051C188.686 294.278 187.467 292.561 186.163 290.902C180.562 283.77 180.039 275.233 181.377 266.642C181.932 263.069 182.547 259.176 183.222 254.961C183.553 252.894 183.753 250.735 183.823 248.484C183.827 248.368 183.861 248.256 183.922 248.157C183.983 248.059 184.069 247.979 184.171 247.924C184.273 247.869 184.388 247.842 184.504 247.846C184.619 247.85 184.732 247.884 184.831 247.944L185.216 248.187Z" fill="#45241F"/>
<path d="M264.857 249.261L264.169 262.583C263.739 262.532 263.325 262.899 262.924 263.684C262.546 264.433 262.293 264.905 262.164 265.1C256.275 274.029 248.473 280.282 238.758 283.858C233.086 285.947 227.037 286.344 220.611 285.048C219.609 284.846 217.687 284.291 214.845 283.384L216.53 277.502C222.89 279.335 229.168 279.447 235.366 277.838C248.627 274.402 259.185 262.996 264.015 250.461C264.176 250.043 264.457 249.643 264.857 249.261Z" fill="#E5775C"/>
<path d="M264.17 262.583C263.997 268.068 264.137 273.464 264.588 278.769C264.684 279.878 264.829 280.933 265.023 281.936C265.075 282.193 265.22 282.374 265.458 282.481C273.04 285.903 280.769 289.044 288.644 291.904C288.413 291.904 288.217 291.957 288.055 292.064C287.901 292.17 287.8 292.313 287.752 292.493C285.748 300.317 281.538 307.075 275.124 312.766C262.407 324.061 242.454 331.199 225.629 326.705C216.032 324.139 208.415 318.684 202.779 310.343C200.749 307.332 199.289 303.963 198.401 300.237C198.177 299.297 197.975 298.013 197.795 296.387C197.656 295.109 197.501 293.813 197.333 292.499L213.453 286.127C213.643 286.051 213.815 285.933 213.955 285.782C214.095 285.63 214.2 285.449 214.262 285.251L214.846 283.384C217.688 284.291 219.61 284.845 220.612 285.047C227.037 286.343 233.086 285.947 238.759 283.858C248.474 280.282 256.276 274.029 262.165 265.1C262.294 264.905 262.547 264.433 262.925 263.684C263.325 262.899 263.74 262.531 264.17 262.583Z" fill="#F9A17B"/>
<path d="M326.121 314.814C328.805 318.347 331.021 321.992 332.769 325.752C334.946 330.426 337.013 335.557 338.97 341.145C341.147 347.368 343.532 353.612 346.124 359.876C352.839 376.948 359.107 394.256 364.926 411.799C368.267 421.87 371.983 433.557 376.073 446.859C377.608 451.859 378.616 456.768 379.097 461.585C380.088 471.108 377.918 480.029 369.932 485.884C364.265 490.042 357.133 492.784 350.436 495.059C348.178 495.826 345.955 496.59 343.767 497.35C325.56 503.023 306.945 506.377 287.922 507.412C283.597 507.647 279.094 507.845 274.413 508.007C274.196 508.014 274.046 508.117 273.961 508.315C273.939 508.374 273.934 508.433 273.945 508.491C273.996 508.807 273.862 508.96 273.543 508.949C271.747 508.886 269.956 508.642 268.167 508.216C267.554 508.069 266.431 508.332 264.797 509.004C264.981 508.578 264.749 508.291 264.103 508.145C267.466 504.638 269.915 500.577 271.45 495.962C273.69 489.232 274.125 482.328 272.755 475.249C272.362 473.197 272.008 471.675 271.692 470.683L299.433 461.762L309.131 458.925L322.184 455.566C322.214 455.558 322.242 455.544 322.267 455.525C322.291 455.507 322.311 455.483 322.326 455.456C322.34 455.429 322.349 455.399 322.351 455.369C322.353 455.338 322.349 455.308 322.338 455.279C318.949 445.957 315.244 436.698 311.224 427.5L309.247 422.847C307.143 418.408 305.588 414.855 304.582 412.19C304.013 410.674 303.537 408.606 303.156 405.989C301.562 395.088 301.142 384.499 301.894 374.222C302.684 363.461 304.459 352.545 307.22 341.476C307.907 338.726 308.788 335.981 309.864 333.242C312.992 325.278 318.411 319.136 326.121 314.814Z" fill="#F9A17B"/>
<path d="M161 318.95C161.132 318.873 161.226 318.855 161.281 318.895C161.361 318.951 161.424 319.029 161.461 319.12C161.498 319.211 161.508 319.311 161.49 319.408C160.877 322.605 159.979 325.515 158.797 328.137C157.394 331.827 155.489 334.949 153.08 337.505C151.032 339.686 150.283 342.786 152.634 345.011C152.666 345.041 152.703 345.063 152.745 345.076C152.786 345.089 152.829 345.093 152.871 345.087C152.914 345.081 152.954 345.066 152.989 345.042C153.024 345.019 153.054 344.987 153.075 344.951C154.36 342.733 155.906 340.677 157.712 338.782C157.738 342.101 157.738 345.503 157.712 348.987C157.705 349.7 157.846 350.269 158.136 350.695C158.533 351.286 159.019 351.682 159.596 351.884C162.09 353.201 164.481 354.451 167.113 355.337C170.104 356.351 176.101 358.24 175.556 362.508C175.291 364.557 173.65 365.085 171.844 364.964C166.287 364.595 162.201 362.96 157.47 360.603C157.176 360.456 156.981 360.54 156.886 360.856C156.846 360.992 156.959 361.218 157.227 361.533C158.098 362.55 158.696 363.677 159.023 364.915C156.306 363.006 153.405 361.249 150.321 359.644C145.254 357.012 139.743 355.591 133.788 355.382C134.908 351.879 136.49 348.051 138.535 343.899C140.867 339.177 143.408 335.116 146.158 331.716C149.128 328.419 152.278 325.737 155.608 323.67C156.159 323.325 156.783 323.195 157.481 323.279C157.661 323.301 157.82 323.369 157.96 323.483C158.059 323.56 158.164 323.61 158.274 323.632C158.461 323.672 158.599 323.606 158.687 323.433L161 318.95Z" fill="#F9A17B"/>
<path d="M158.797 328.136C158.911 329.153 158.779 330.135 158.401 331.083C158.034 332.004 157.834 332.735 157.801 333.275C157.694 335.066 157.665 336.902 157.713 338.782C155.906 340.676 154.36 342.733 153.075 344.95C153.054 344.987 153.025 345.018 152.99 345.042C152.954 345.066 152.914 345.081 152.872 345.087C152.829 345.093 152.786 345.089 152.745 345.076C152.704 345.062 152.666 345.04 152.635 345.011C150.283 342.786 151.032 339.685 153.081 337.504C155.489 334.949 157.395 331.826 158.797 328.136Z" fill="#E5775C"/>
<path d="M298.579 295.831L295.754 294.724C292.017 301.986 287.581 308.652 282.448 314.721C273.918 324.816 261.702 333.286 248.716 335.737C238.634 337.642 228.928 336.987 219.599 333.771C212.424 331.296 206.68 327.443 202.366 322.211C196.073 314.574 192.398 305.615 191.34 295.335L189.82 296.051L189.385 296.354C189.855 300.973 190.938 305.39 192.635 309.605C196.627 319.534 202.917 328.098 212.511 333.049C219.619 336.717 227.775 338.63 236.98 338.788C256.696 339.124 272.524 329.998 284.828 315.2C289.072 310.093 292.725 304.655 295.787 298.887C296.143 298.223 296.478 297.531 296.79 296.811C297.102 296.099 297.698 295.772 298.579 295.831Z" fill="#FF0084"/>
<path d="M184.329 299.929C185.155 299.243 185.936 298.448 186.67 297.544C179.995 298.892 173.542 300.219 167.312 301.526C163.93 302.237 160.73 302.694 157.327 302.82C157.254 302.823 157.184 302.846 157.123 302.884C157.061 302.923 157.012 302.978 156.979 303.041C156.945 303.105 156.93 303.177 156.934 303.248C156.938 303.32 156.962 303.389 157.002 303.448C159.827 307.772 161.496 312.326 161.358 317.591C161.343 318.168 161.224 318.621 161 318.952C161.132 318.874 161.226 318.856 161.281 318.896C161.361 318.952 161.424 319.03 161.461 319.121C161.498 319.212 161.508 319.312 161.49 319.409C160.877 322.607 159.979 325.516 158.797 328.138C158.911 329.155 158.779 330.137 158.401 331.084C158.033 332.006 157.833 332.736 157.8 333.276C157.694 335.068 157.664 336.904 157.712 338.783C157.738 342.103 157.738 345.504 157.712 348.989C157.705 349.701 157.846 350.27 158.136 350.696C158.533 351.287 159.019 351.684 159.596 351.885C160.517 348.911 161.555 345.947 162.707 342.991C166.25 333.893 169.773 324.932 173.276 316.11C175.22 311.225 178.067 305.971 181.801 302.077C182.007 301.864 182.85 301.148 184.329 299.929Z" fill="#FF0084"/>
<path d="M337.273 304.306C338.026 305.466 338.589 306.731 338.964 308.1C340.33 313.128 341.222 317.771 341.492 323.422C341.75 328.665 343.012 333.759 344.917 338.655C345.894 341.17 346.573 343.483 346.955 345.594C347.803 350.32 347.526 355.08 346.123 359.875C343.531 353.611 341.146 347.368 338.969 341.144C337.012 335.556 334.945 330.425 332.768 325.751C331.02 321.992 328.805 318.346 326.121 314.814C329.8 312.148 333.047 308.961 335.863 305.253C336.277 304.707 336.3 304.452 335.933 304.49L337.273 304.306Z" fill="#FF0084"/>
<path d="M335.869 304.498L335.933 304.49C335.913 304.492 335.891 304.495 335.869 304.498Z" fill="#FF0084"/>
<path d="M311.224 427.5L309.247 422.846C303.266 423.867 298.636 424.563 295.357 424.934C278.028 426.902 260.914 425.793 244.018 421.607C240.056 420.627 236.104 419.608 232.161 418.551C226.892 417.141 221.407 416.425 215.705 416.403C217.515 417.651 218.728 418.452 219.345 418.804C225.994 422.578 230.45 425.154 232.711 426.531C245.499 434.34 255.282 444.944 262.06 458.341C274.117 458.628 286.136 459.619 298.117 461.315C298.557 461.378 298.996 461.526 299.433 461.761L309.131 458.925C309.069 448.461 309.766 437.986 311.224 427.5Z" fill="#FF0084"/>
<path d="M106.141 443.169C106.603 443.239 106.919 443.395 107.088 443.637C113.733 453.242 120.412 462.825 127.124 472.385C128.269 474.01 129.134 475.701 130.098 477.425C130.148 477.517 130.222 477.594 130.313 477.648C130.404 477.702 130.508 477.731 130.615 477.733L139.928 477.915C141.393 477.728 142.632 477.256 143.646 476.499C148.922 472.54 153.713 468.437 160.438 467.445C163.158 467.045 165.917 466.689 168.715 466.377C173.264 465.87 177.643 464.548 181.971 463.144C184.02 462.483 186.311 462.599 186.41 465.402C186.614 471.13 178.276 474.104 173.936 474.77C171.469 475.15 168.054 475.459 165.917 476.901C164.133 478.108 164.463 480.024 166.242 481.015C167.48 481.702 168.981 482.198 170.747 482.502C176.547 483.499 182.252 484.193 187.903 482.662C191.479 481.693 195.079 480.613 198.703 479.424C200.729 478.763 209.425 476.246 208.61 481.12C208.471 481.961 208.005 482.66 207.212 483.218C207.109 483.292 207.039 483.391 207.002 483.516C206.988 483.567 206.991 483.617 207.013 483.664C207.061 483.789 207.151 483.835 207.283 483.802C208.675 483.468 209.951 483.598 211.111 484.193C213.501 485.416 212.719 488.594 211.072 489.976C210.158 490.743 208.998 491.36 207.592 491.826C200.895 494.046 194.561 496.265 187.853 497.576C186.774 497.785 186.785 497.905 187.886 497.934C192.11 498.05 196.659 497.345 200.79 496.006C202.839 495.346 205.68 494.685 207.603 495.357C208.952 495.83 208.979 497.571 208.126 498.457C207.432 499.181 206.384 499.823 204.981 500.385C200.817 502.048 196.531 503.43 192.121 504.532C192.07 504.547 192.048 504.58 192.055 504.631L192.088 504.785C192.092 504.807 192.105 504.816 192.127 504.813C194.245 504.435 196.513 504.154 198.928 503.97C199.916 503.897 200.828 504.073 201.666 504.499C203.164 505.264 203.329 507.016 202.271 508.266C201.724 508.916 200.99 509.413 200.068 509.758C198.185 510.46 196.219 511.174 194.17 511.901C189.089 513.402 183.847 514.441 178.447 515.018C173.167 515.48 167.902 515.462 162.652 514.963C156.979 514.423 152.799 511.78 148.112 509.048C144.106 506.709 139.959 504.868 135.671 503.524C134.522 503.164 132.925 502.87 130.88 502.643C128.504 502.382 126.099 501.91 123.665 501.227C114.211 498.257 106.97 492.608 101.944 484.281C100.108 481.245 98.937 477.537 98.4303 473.156C97.5822 465.859 99.4327 457.89 102.363 451.182C102.928 449.886 104.187 447.215 106.141 443.169Z" fill="#F9A17B"/>
<path d="M271.692 470.684C272.008 471.675 272.363 473.197 272.755 475.249C274.125 482.328 273.69 489.232 271.45 495.962C269.915 500.578 267.466 504.638 264.103 508.145L256.514 508.001C262.345 503.015 266.003 496.915 267.49 489.7C267.74 488.485 267.837 487.297 267.782 486.137C268.237 481.676 268.048 477.309 267.215 473.035C267.182 472.811 267.186 472.609 267.226 472.429C267.266 472.246 267.375 472.125 267.551 472.066L271.692 470.684Z" fill="#E5775C"/>
<path fill-rule="evenodd" clip-rule="evenodd" d="M295.754 294.724L288.644 291.904C288.412 291.904 288.216 291.958 288.054 292.064C287.9 292.171 287.799 292.314 287.752 292.494C285.747 300.318 281.537 307.075 275.123 312.766C262.407 324.062 242.454 331.199 225.629 326.705C216.031 324.139 208.414 318.685 202.779 310.343C200.748 307.332 199.289 303.964 198.4 300.237C198.176 299.297 197.974 298.014 197.794 296.387C197.655 295.11 197.501 293.814 197.332 292.499L191.34 295.335C192.397 305.616 196.073 314.574 202.366 322.211C206.68 327.443 212.424 331.297 219.598 333.771C228.928 336.987 238.633 337.643 248.715 335.737C261.702 333.287 273.917 324.816 282.448 314.721C287.581 308.652 292.016 301.986 295.754 294.724ZM302.044 297.246C300.883 296.758 299.729 296.286 298.579 295.83C297.698 295.772 297.102 296.098 296.79 296.811C296.477 297.53 296.143 298.222 295.787 298.887C292.725 304.655 289.072 310.093 284.828 315.2C272.524 329.998 256.696 339.124 236.98 338.788C227.775 338.63 219.619 336.717 212.511 333.049C202.917 328.098 196.627 319.534 192.635 309.604C190.938 305.389 189.855 300.972 189.385 296.354C188.243 297.044 187.338 297.44 186.67 297.543C185.936 298.446 185.156 299.241 184.329 299.928C182.85 301.147 182.007 301.863 181.802 302.076C178.068 305.969 175.22 311.223 173.276 316.109C169.774 324.931 166.251 333.892 162.708 342.99C161.555 345.946 160.518 348.91 159.596 351.884C162.091 353.201 164.481 354.451 167.114 355.337L167.385 355.429C170.452 356.464 176.085 358.365 175.556 362.508C175.292 364.557 173.651 365.085 171.844 364.964C166.287 364.595 162.201 362.96 157.47 360.602C157.176 360.456 156.982 360.54 156.886 360.856C156.846 360.992 156.96 361.217 157.228 361.533C158.098 362.55 158.696 363.677 159.023 364.915C164.78 369.431 170.093 374.33 174.961 379.614C176.161 380.917 177.339 382.207 178.504 383.482L178.507 383.484L178.508 383.486L178.509 383.487C183.849 389.332 188.908 394.87 194.386 399.914C201.131 406.126 208.237 411.622 215.705 416.403C221.407 416.425 226.892 417.141 232.161 418.551C236.104 419.608 240.057 420.627 244.018 421.607C260.915 425.793 278.028 426.902 295.358 424.934C298.636 424.563 303.266 423.867 309.247 422.846C307.143 418.408 305.588 414.855 304.582 412.19C304.013 410.673 303.538 408.606 303.156 405.988C301.563 395.088 301.142 384.499 301.895 374.222C302.684 363.461 304.459 352.545 307.22 341.475C307.907 338.725 308.788 335.981 309.864 333.242C312.992 325.278 318.411 319.136 326.122 314.814C329.801 312.149 333.048 308.962 335.864 305.254C336.301 304.677 336.303 304.426 335.87 304.499C330.928 306.045 326.008 305.997 321.11 304.356C320.203 304.052 319.308 303.707 318.413 303.362L318.413 303.362C317.315 302.938 316.218 302.515 315.101 302.169C314.573 302.004 314.028 301.681 313.466 301.2L311.384 300.374C309.401 299.515 307.466 298.848 305.579 298.375C304.18 298.026 303.002 297.65 302.044 297.246ZM262.06 458.342C274.117 458.629 286.136 459.62 298.116 461.316C298.557 461.379 298.996 461.527 299.432 461.762L271.692 470.684L267.55 472.067C267.374 472.125 267.266 472.247 267.225 472.43C267.185 472.61 267.181 472.812 267.214 473.036C266.219 467.844 264.501 462.946 262.06 458.342ZM130.881 502.642C128.505 502.382 126.101 501.91 123.666 501.227C122.932 507.296 122.446 512.838 122.207 517.854C121.608 530.359 121.388 543.494 121.546 557.259C122.001 557.611 122.479 557.854 122.978 557.986C130.897 560.06 138.801 562.177 146.687 564.336L153.334 566.44C163.306 569.259 172.818 573.052 181.868 577.818C185.317 579.634 188.809 581.923 192.117 584.091C194.346 585.551 196.491 586.957 198.484 588.128C211.375 595.702 224.071 601.49 236.573 605.492C249.155 609.524 262.004 612.384 275.118 614.073C295.51 616.698 315.856 616.861 336.156 614.563C335.966 608.402 335.652 602.28 335.215 596.196C334.385 584.616 332.661 572.938 330.043 561.164C329.379 558.179 328.389 554.702 327.075 550.733C324.993 544.44 322.735 537.809 320.301 530.84C320.238 530.66 320.262 530.306 320.372 529.777C320.248 529.869 320.123 529.862 319.998 529.755C319.928 529.696 319.873 529.599 319.833 529.463C318.845 525.957 317.933 522.43 317.096 518.884C316.868 517.914 316.537 516.94 316.104 515.959C314.926 516.561 313.723 517.175 312.497 517.799C309.798 519.176 306.979 519.961 304.038 520.156C291.943 520.953 280.395 519.242 269.391 515.023C269.204 514.951 269.006 514.878 268.802 514.801C267.39 514.275 265.641 513.623 264.77 512.589C263.742 511.37 263.751 510.175 264.798 509.003C264.981 508.578 264.75 508.291 264.104 508.144L256.515 508.001C254.268 509.752 252.254 511.137 250.473 512.154C245.197 515.164 239.203 517.501 232.492 519.165L232.458 519.173C229.048 520.018 225.535 520.89 222.094 521.257C217.574 521.742 213.333 521.975 209.372 521.957C198.746 521.902 188.457 519.862 178.503 515.838C178.125 515.684 178.106 515.41 178.448 515.017C173.168 515.48 167.903 515.462 162.653 514.962C157.352 514.458 153.354 512.116 149.028 509.582C148.725 509.405 148.42 509.226 148.113 509.048C144.108 506.709 139.961 504.867 135.672 503.524C134.523 503.164 132.926 502.87 130.881 502.642Z" fill="#FF66B5"/>
<path d="M133.788 355.382C139.743 355.591 145.254 357.012 150.321 359.644C153.405 361.249 156.306 363.006 159.022 364.915C164.78 369.431 170.092 374.331 174.961 379.614C181.658 386.889 187.71 393.768 194.385 399.914C201.13 406.126 208.236 411.623 215.704 416.403C217.514 417.651 218.728 418.452 219.345 418.804C225.994 422.579 230.449 425.154 232.711 426.531C245.499 434.341 255.282 444.944 262.06 458.342C264.501 462.946 266.219 467.844 267.214 473.035C268.048 477.309 268.237 481.676 267.782 486.137C267.102 488.351 266.546 489.814 266.113 490.527C262.06 497.216 256.468 502.239 249.338 505.595C232.973 513.29 215.539 515.581 197.034 512.468C196.586 512.394 196.115 512.352 195.619 512.341C195.02 512.327 194.538 512.18 194.17 511.901C196.219 511.174 198.185 510.46 200.069 509.758C200.99 509.413 201.725 508.916 202.272 508.266C203.329 507.016 203.164 505.264 201.666 504.499C200.829 504.073 199.916 503.897 198.929 503.97C196.513 504.154 194.246 504.434 192.127 504.813C192.105 504.816 192.092 504.807 192.089 504.785L192.056 504.631C192.048 504.58 192.07 504.546 192.122 504.532C196.531 503.43 200.818 502.048 204.981 500.385C206.384 499.823 207.432 499.18 208.126 498.457C208.98 497.571 208.952 495.83 207.603 495.357C205.681 494.685 202.839 495.346 200.79 496.006C196.66 497.345 192.111 498.05 187.887 497.934C186.785 497.905 186.774 497.785 187.853 497.576C194.561 496.265 200.895 494.046 207.592 491.826C208.998 491.36 210.158 490.743 211.072 489.976C212.719 488.594 213.501 485.416 211.111 484.193C209.951 483.598 208.675 483.468 207.283 483.802C207.151 483.835 207.061 483.789 207.014 483.664C206.992 483.617 206.988 483.567 207.003 483.516C207.039 483.391 207.109 483.292 207.212 483.218C208.005 482.66 208.471 481.961 208.611 481.12C209.426 476.246 200.73 478.763 198.703 479.424C195.079 480.613 191.479 481.693 187.903 482.662C182.253 484.193 176.547 483.499 170.748 482.502C168.982 482.198 167.48 481.702 166.243 481.015C164.464 480.024 164.133 478.108 165.918 476.901C168.055 475.459 171.469 475.15 173.936 474.77C178.276 474.104 186.614 471.13 186.411 465.402C186.311 462.599 184.02 462.483 181.972 463.144C177.643 464.548 173.265 465.87 168.715 466.377C165.918 466.689 163.159 467.045 160.438 467.445C153.713 468.437 148.922 472.54 143.646 476.499C142.633 477.256 141.393 477.728 139.929 477.915C136.477 474.251 132.367 469.388 127.598 463.326C120.46 454.257 114.49 445.825 109.688 438.031C104.973 430.381 101.454 422.946 98.315 414.415C94.0413 402.798 92.0366 390.996 92.3009 379.008C92.7121 377.209 93.0297 376.064 93.2537 375.572C96.9877 367.395 102.903 361.728 110.998 358.57C118.198 355.765 125.795 354.702 133.788 355.382ZM131.111 425.556C133.571 427.183 136.521 428.395 139.962 429.191C148.292 431.122 155.522 429.239 161.649 423.541C171.695 414.206 171.375 401.027 164.128 390.155C160.016 383.983 154.769 379.256 148.388 375.974C141.002 372.091 131.634 370.004 123.544 373.055C116.33 375.775 111.444 383.144 110.69 390.722C109.846 399.237 112.043 406.866 117.282 413.611C121.141 418.575 125.751 422.557 131.111 425.556Z" fill="#E4F5FD"/>
<path d="M148.389 375.974C146.773 375.919 145.2 375.689 143.669 375.285C141.657 374.753 140.28 374.456 139.538 374.393C132.5 373.826 125.407 376.007 120.725 381.712C112.844 391.334 114.805 405.873 121.816 415.406C123.82 418.131 126.919 421.514 131.112 425.556C125.752 422.557 121.142 418.575 117.283 413.611C112.044 406.866 109.846 399.237 110.691 390.722C111.445 383.144 116.33 375.776 123.545 373.055C131.635 370.004 141.003 372.091 148.389 375.974Z" fill="#E5775C"/>
<path d="M148.388 375.974C154.769 379.256 160.015 383.983 164.128 390.155C171.375 401.027 171.695 414.206 161.649 423.541C155.521 429.239 148.292 431.123 139.961 429.191C136.521 428.395 133.571 427.183 131.111 425.556C126.918 421.514 123.819 418.131 121.815 415.406C114.804 405.873 112.843 391.334 120.724 381.712C125.405 376.007 132.499 373.826 139.537 374.393C140.279 374.456 141.656 374.753 143.668 375.285C145.199 375.689 146.772 375.919 148.388 375.974Z" fill="#F9A17B"/>
<path d="M98.3153 414.415C94.0416 402.798 92.0369 390.996 92.3013 379.008C90.5609 385.077 89.9919 391.273 90.594 397.596C91.1154 403.096 91.9745 408.14 93.1714 412.73C95.4074 421.314 98.7155 429.781 103.096 438.13C104.326 440.476 105.341 442.156 106.141 443.169C106.604 443.239 106.92 443.395 107.088 443.637C113.734 453.242 120.413 462.825 127.124 472.385C128.037 473.68 128.771 475.016 129.519 476.377C129.71 476.725 129.902 477.074 130.098 477.425C130.148 477.517 130.222 477.594 130.313 477.648C130.404 477.702 130.509 477.731 130.616 477.733L139.929 477.915C136.478 474.251 132.367 469.388 127.598 463.326C120.46 454.257 114.49 445.825 109.688 438.031C104.974 430.381 101.454 422.946 98.3153 414.415Z" fill="#ADD9E4"/>
<path d="M267.49 489.7C267.739 488.485 267.836 487.297 267.781 486.137C267.102 488.351 266.546 489.814 266.113 490.526C262.059 497.216 256.467 502.238 249.337 505.594C232.973 513.29 215.539 515.581 197.034 512.467C196.586 512.394 196.114 512.352 195.619 512.341C195.02 512.326 194.537 512.179 194.17 511.9C189.089 513.402 183.848 514.441 178.447 515.017C178.105 515.41 178.124 515.684 178.502 515.838C188.455 519.862 198.745 521.901 209.37 521.956C213.332 521.975 217.573 521.742 222.092 521.257C225.534 520.889 229.047 520.018 232.456 519.173L232.49 519.164C239.202 517.501 245.196 515.164 250.472 512.153C252.252 511.136 254.266 509.752 256.513 508.001C262.344 503.015 266.003 496.915 267.49 489.7Z" fill="#ADD9E4"/>
</svg>
